<?xml version="1.0" encoding="UTF-8" standalone="no"?>
<!DOCTYPE svg PUBLIC "-//W3C//DTD SVG 1.1//EN"
 "http://www.w3.org/Graphics/SVG/1.1/DTD/svg11.dtd">
<!-- Generated by graphviz version 2.40.1 (20161225.0304)
 -->
<!-- Title: %681 Pages: 1 -->
<svg width="679pt" height="247pt"
 viewBox="0.00 0.00 678.85 246.60" xmlns="http://www.w3.org/2000/svg" xmlns:xlink="http://www.w3.org/1999/xlink">
<g id="graph0" class="graph" transform="scale(1 1) rotate(0) translate(4 242.6)">
<title>%681</title>
<polygon fill="#ffffff" stroke="transparent" points="-4,4 -4,-242.6 674.8521,-242.6 674.8521,4 -4,4"/>
<text text-anchor="middle" x="335.4261" y="-8.2" font-family="Times,serif" font-size="14.00" fill="#000000">Автомат 3.4. (ответ)</text>
<g id="node1" class="node">
<title></title>
</g>
<!-- q1 -->
<g id="node5" class="node">
<title>q1</title>
<ellipse fill="none" stroke="#000000" cx="111.6935" cy="-127.8" rx="20.8887" ry="20.8887"/>
<text text-anchor="middle" x="111.6935" y="-123.6" font-family="Times,serif" font-size="14.00" fill="#000000">q1</text>
</g>
<!-- &#45;&gt;q1 -->
<g id="edge1" class="edge">
<title>&#45;&gt;q1</title>
<path fill="none" stroke="#000000" d="M54.2637,-127.8C62.7209,-127.8 72.1012,-127.8 80.7873,-127.8"/>
<polygon fill="#000000" stroke="#000000" points="80.9294,-131.3001 90.9294,-127.8 80.9293,-124.3001 80.9294,-131.3001"/>
</g>
<!-- q2 -->
<g id="node2" class="node">
<title>q2</title>
<ellipse fill="none" stroke="#000000" cx="209.795" cy="-127.8" rx="20.8568" ry="20.8568"/>
<ellipse fill="none" stroke="#000000" cx="209.795" cy="-127.8" rx="24.8884" ry="24.8884"/>
<text text-anchor="middle" x="209.795" y="-123.6" font-family="Times,serif" font-size="14.00" fill="#000000">q2</text>
</g>
<!-- q5 -->
<g id="node3" class="node">
<title>q5</title>
<ellipse fill="none" stroke="#000000" cx="301.3965" cy="-127.8" rx="20.8568" ry="20.8568"/>
<ellipse fill="none" stroke="#000000" cx="301.3965" cy="-127.8" rx="24.8884" ry="24.8884"/>
<text text-anchor="middle" x="301.3965" y="-123.6" font-family="Times,serif" font-size="14.00" fill="#000000">q5</text>
</g>
<!-- q2&#45;&gt;q5 -->
<g id="edge3" class="edge">
<title>q2&#45;&gt;q5</title>
<path fill="none" stroke="#000000" d="M234.8255,-127.8C244.5193,-127.8 255.788,-127.8 266.2674,-127.8"/>
<polygon fill="#000000" stroke="#000000" points="266.3962,-131.3001 276.3962,-127.8 266.3962,-124.3001 266.3962,-131.3001"/>
<text text-anchor="middle" x="255.5957" y="-132" font-family="Times,serif" font-size="14.00" fill="#000000">c</text>
</g>
<!-- q3 -->
<g id="node6" class="node">
<title>q3</title>
<ellipse fill="none" stroke="#000000" cx="565.7718" cy="-158.8" rx="20.8887" ry="20.8887"/>
<text text-anchor="middle" x="565.7718" y="-154.6" font-family="Times,serif" font-size="14.00" fill="#000000">q3</text>
</g>
<!-- q2&#45;&gt;q3 -->
<g id="edge4" class="edge">
<title>q2&#45;&gt;q3</title>
<path fill="none" stroke="#000000" d="M219.7652,-150.5548C233.6789,-178.3743 261.7477,-221.8 301.3965,-221.8 301.3965,-221.8 301.3965,-221.8 478.1703,-221.8 505.6246,-221.8 530.3547,-201.1529 546.482,-183.4987"/>
<polygon fill="#000000" stroke="#000000" points="549.3541,-185.5293 553.2654,-175.6828 544.0675,-180.941 549.3541,-185.5293"/>
<text text-anchor="middle" x="389.7834" y="-226" font-family="Times,serif" font-size="14.00" fill="#000000">a</text>
</g>
<!-- q6 -->
<g id="node7" class="node">
<title>q6</title>
<ellipse fill="none" stroke="#000000" cx="389.7834" cy="-73.8" rx="20.8887" ry="20.8887"/>
<text text-anchor="middle" x="389.7834" y="-69.6" font-family="Times,serif" font-size="14.00" fill="#000000">q6</text>
</g>
<!-- q2&#45;&gt;q6 -->
<g id="edge5" class="edge">
<title>q2&#45;&gt;q6</title>
<path fill="none" stroke="#000000" d="M226.9659,-109.8888C239.5006,-98.1361 257.583,-83.7386 276.703,-77 303.3676,-67.6024 335.8004,-67.7618 359.0828,-69.7016"/>
<polygon fill="#000000" stroke="#000000" points="358.7869,-73.1894 369.0827,-70.6903 359.4756,-66.2233 358.7869,-73.1894"/>
<text text-anchor="middle" x="301.3965" y="-81" font-family="Times,serif" font-size="14.00" fill="#000000">b</text>
</g>
<!-- q5&#45;&gt;q5 -->
<g id="edge9" class="edge">
<title>q5&#45;&gt;q5</title>
<path fill="none" stroke="#000000" d="M293.2452,-151.5081C292.5778,-161.7362 295.2949,-170.4935 301.3965,-170.4935 305.3053,-170.4935 307.8251,-166.8995 308.956,-161.6272"/>
<polygon fill="#000000" stroke="#000000" points="312.4579,-161.6954 309.5478,-151.5081 305.4698,-161.2866 312.4579,-161.6954"/>
<text text-anchor="middle" x="301.3965" y="-174.6935" font-family="Times,serif" font-size="14.00" fill="#000000">c</text>
</g>
<!-- q5&#45;&gt;q3 -->
<g id="edge11" class="edge">
<title>q5&#45;&gt;q3</title>
<path fill="none" stroke="#000000" d="M325.7125,-133.5566C338.5485,-136.4104 354.6016,-139.689 369.0899,-141.8 427.3713,-150.292 496.0323,-155.0434 534.8766,-157.2496"/>
<polygon fill="#000000" stroke="#000000" points="534.8319,-160.7523 545.0087,-157.8053 535.2154,-153.7628 534.8319,-160.7523"/>
<text text-anchor="middle" x="431.9768" y="-153" font-family="Times,serif" font-size="14.00" fill="#000000">a</text>
</g>
<!-- q5&#45;&gt;q6 -->
<g id="edge10" class="edge">
<title>q5&#45;&gt;q6</title>
<path fill="none" stroke="#000000" d="M322.0927,-113.9878C329.0315,-109.4472 336.8462,-104.4303 344.0899,-100 350.0651,-96.3456 356.5551,-92.5326 362.717,-88.9831"/>
<polygon fill="#000000" stroke="#000000" points="364.4622,-92.017 371.4121,-84.0202 360.9922,-85.9376 364.4622,-92.017"/>
<text text-anchor="middle" x="347.5899" y="-104" font-family="Times,serif" font-size="14.00" fill="#000000">b</text>
</g>
<!-- q7 -->
<g id="node4" class="node">
<title>q7</title>
<ellipse fill="none" stroke="#000000" cx="478.1703" cy="-109.8" rx="20.8568" ry="20.8568"/>
<ellipse fill="none" stroke="#000000" cx="478.1703" cy="-109.8" rx="24.8884" ry="24.8884"/>
<text text-anchor="middle" x="478.1703" y="-105.6" font-family="Times,serif" font-size="14.00" fill="#000000">q7</text>
</g>
<!-- q7&#45;&gt;q5 -->
<g id="edge15" class="edge">
<title>q7&#45;&gt;q5</title>
<path fill="none" stroke="#000000" d="M453.5151,-112.3105C422.9583,-115.422 370.6989,-120.7433 336.1023,-124.2661"/>
<polygon fill="#000000" stroke="#000000" points="335.5701,-120.8021 325.9761,-125.2972 336.2792,-127.7661 335.5701,-120.8021"/>
<text text-anchor="middle" x="389.7834" y="-125" font-family="Times,serif" font-size="14.00" fill="#000000">c</text>
</g>
<!-- q7&#45;&gt;q3 -->
<g id="edge14" class="edge">
<title>q7&#45;&gt;q3</title>
<path fill="none" stroke="#000000" d="M499.8246,-121.9124C511.5333,-128.4617 526.1073,-136.6136 538.5748,-143.5873"/>
<polygon fill="#000000" stroke="#000000" points="537.1796,-146.8172 547.6157,-148.6444 540.5968,-140.708 537.1796,-146.8172"/>
<text text-anchor="middle" x="523.971" y="-139" font-family="Times,serif" font-size="14.00" fill="#000000">a</text>
</g>
<!-- q7&#45;&gt;q6 -->
<g id="edge13" class="edge">
<title>q7&#45;&gt;q6</title>
<path fill="none" stroke="#000000" d="M463.4416,-89.6085C456.0896,-81.2453 446.4258,-72.4675 435.4768,-68 430.5139,-65.975 425.0172,-65.408 419.6065,-65.6745"/>
<polygon fill="#000000" stroke="#000000" points="418.9092,-62.2369 409.4706,-67.0497 419.8504,-69.1734 418.9092,-62.2369"/>
<text text-anchor="middle" x="431.9768" y="-72" font-family="Times,serif" font-size="14.00" fill="#000000">b</text>
</g>
<!-- q1&#45;&gt;q2 -->
<g id="edge2" class="edge">
<title>q1&#45;&gt;q2</title>
<path fill="none" stroke="#000000" d="M132.4983,-127.8C144.6891,-127.8 160.4111,-127.8 174.4896,-127.8"/>
<polygon fill="#000000" stroke="#000000" points="174.8495,-131.3001 184.8495,-127.8 174.8495,-124.3001 174.8495,-131.3001"/>
<text text-anchor="middle" x="158.7442" y="-132" font-family="Times,serif" font-size="14.00" fill="#000000">b,c</text>
</g>
<!-- q4 -->
<g id="node8" class="node">
<title>q4</title>
<ellipse fill="none" stroke="#000000" cx="650.1587" cy="-118.8" rx="20.8887" ry="20.8887"/>
<text text-anchor="middle" x="650.1587" y="-114.6" font-family="Times,serif" font-size="14.00" fill="#000000">q4</text>
</g>
<!-- q3&#45;&gt;q4 -->
<g id="edge6" class="edge">
<title>q3&#45;&gt;q4</title>
<path fill="none" stroke="#000000" d="M584.5,-149.9227C595.4579,-144.7286 609.5118,-138.0669 621.8037,-132.2404"/>
<polygon fill="#000000" stroke="#000000" points="623.6539,-135.2368 631.191,-127.7908 620.6556,-128.9114 623.6539,-135.2368"/>
<text text-anchor="middle" x="607.9652" y="-144" font-family="Times,serif" font-size="14.00" fill="#000000">b</text>
</g>
<!-- q6&#45;&gt;q7 -->
<g id="edge12" class="edge">
<title>q6&#45;&gt;q7</title>
<path fill="none" stroke="#000000" d="M408.962,-81.6115C419.6987,-85.9845 433.3726,-91.5539 445.7258,-96.5854"/>
<polygon fill="#000000" stroke="#000000" points="444.6868,-99.9413 455.2683,-100.472 447.3273,-93.4584 444.6868,-99.9413"/>
<text text-anchor="middle" x="431.9768" y="-96" font-family="Times,serif" font-size="14.00" fill="#000000">a</text>
</g>
<!-- q4&#45;&gt;q5 -->
<g id="edge8" class="edge">
<title>q4&#45;&gt;q5</title>
<path fill="none" stroke="#000000" d="M642.8948,-99.3231C631.2149,-71.79 605.4666,-24.8 565.7718,-24.8 389.7834,-24.8 389.7834,-24.8 389.7834,-24.8 346.7253,-24.8 353.1839,-64.3349 326.0899,-97.8 325.3895,-98.6651 324.6769,-99.5433 323.9564,-100.4293"/>
<polygon fill="#000000" stroke="#000000" points="321.0012,-98.5143 317.3827,-108.4721 326.4212,-102.9443 321.0012,-98.5143"/>
<text text-anchor="middle" x="478.1703" y="-29" font-family="Times,serif" font-size="14.00" fill="#000000">c</text>
</g>
<!-- q4&#45;&gt;q3 -->
<g id="edge7" class="edge">
<title>q4&#45;&gt;q3</title>
<path fill="none" stroke="#000000" d="M629.8669,-113.5818C621.6685,-112.4707 612.3102,-112.5166 604.4652,-116 596.1742,-119.6814 588.9069,-126.1144 582.9766,-132.8915"/>
<polygon fill="#000000" stroke="#000000" points="580.1259,-130.8532 576.6479,-140.8609 585.6077,-135.2064 580.1259,-130.8532"/>
<text text-anchor="middle" x="607.9652" y="-120" font-family="Times,serif" font-size="14.00" fill="#000000">a</text>
</g>
</g>
</svg>
