<?xml version="1.0" encoding="UTF-8" standalone="no"?>
<!DOCTYPE svg PUBLIC "-//W3C//DTD SVG 1.1//EN"
 "http://www.w3.org/Graphics/SVG/1.1/DTD/svg11.dtd">
<!-- Generated by graphviz version 2.40.1 (20161225.0304)
 -->
<!-- Title: %619 Pages: 1 -->
<svg width="754pt" height="232pt"
 viewBox="0.00 0.00 753.71 232.29" xmlns="http://www.w3.org/2000/svg" xmlns:xlink="http://www.w3.org/1999/xlink">
<g id="graph0" class="graph" transform="scale(1 1) rotate(0) translate(4 228.2935)">
<title>%619</title>
<polygon fill="#ffffff" stroke="transparent" points="-4,4 -4,-228.2935 749.7118,-228.2935 749.7118,4 -4,4"/>
<text text-anchor="middle" x="372.8559" y="-8.2" font-family="Times,serif" font-size="14.00" fill="#000000">Автомат 3.2. (ответ)</text>
<g id="node1" class="node">
<title></title>
</g>
<!-- q1 -->
<g id="node5" class="node">
<title>q1</title>
<ellipse fill="none" stroke="#000000" cx="111.6935" cy="-61.4935" rx="20.8887" ry="20.8887"/>
<text text-anchor="middle" x="111.6935" y="-57.2935" font-family="Times,serif" font-size="14.00" fill="#000000">q1</text>
</g>
<!-- &#45;&gt;q1 -->
<g id="edge1" class="edge">
<title>&#45;&gt;q1</title>
<path fill="none" stroke="#000000" d="M54.2637,-61.4935C62.7209,-61.4935 72.1012,-61.4935 80.7873,-61.4935"/>
<polygon fill="#000000" stroke="#000000" points="80.9294,-64.9936 90.9294,-61.4935 80.9293,-57.9936 80.9294,-64.9936"/>
</g>
<!-- q2 -->
<g id="node2" class="node">
<title>q2</title>
<ellipse fill="none" stroke="#000000" cx="199.295" cy="-61.4935" rx="20.8568" ry="20.8568"/>
<ellipse fill="none" stroke="#000000" cx="199.295" cy="-61.4935" rx="24.8884" ry="24.8884"/>
<text text-anchor="middle" x="199.295" y="-57.2935" font-family="Times,serif" font-size="14.00" fill="#000000">q2</text>
</g>
<!-- q3 -->
<g id="node6" class="node">
<title>q3</title>
<ellipse fill="none" stroke="#000000" cx="286.8965" cy="-61.4935" rx="20.8887" ry="20.8887"/>
<text text-anchor="middle" x="286.8965" y="-57.2935" font-family="Times,serif" font-size="14.00" fill="#000000">q3</text>
</g>
<!-- q2&#45;&gt;q3 -->
<g id="edge3" class="edge">
<title>q2&#45;&gt;q3</title>
<path fill="none" stroke="#000000" d="M224.1637,-61.4935C233.9999,-61.4935 245.4133,-61.4935 255.7872,-61.4935"/>
<polygon fill="#000000" stroke="#000000" points="256.1119,-64.9935 266.1118,-61.4935 256.1118,-57.9935 256.1119,-64.9935"/>
<text text-anchor="middle" x="245.0957" y="-65.6935" font-family="Times,serif" font-size="14.00" fill="#000000">a</text>
</g>
<!-- q6 -->
<g id="node3" class="node">
<title>q6</title>
<ellipse fill="none" stroke="#000000" cx="375.2834" cy="-118.4935" rx="20.8568" ry="20.8568"/>
<ellipse fill="none" stroke="#000000" cx="375.2834" cy="-118.4935" rx="24.8884" ry="24.8884"/>
<text text-anchor="middle" x="375.2834" y="-114.2935" font-family="Times,serif" font-size="14.00" fill="#000000">q6</text>
</g>
<!-- {q3,q7} -->
<g id="node9" class="node">
<title>{q3,q7}</title>
<ellipse fill="none" stroke="#000000" cx="484.2248" cy="-118.4935" rx="42.0668" ry="42.0668"/>
<text text-anchor="middle" x="484.2248" y="-114.2935" font-family="Times,serif" font-size="14.00" fill="#000000">{q3,q7}</text>
</g>
<!-- q6&#45;&gt;{q3,q7} -->
<g id="edge7" class="edge">
<title>q6&#45;&gt;{q3,q7}</title>
<path fill="none" stroke="#000000" d="M400.0039,-118.4935C409.5206,-118.4935 420.785,-118.4935 431.928,-118.4935"/>
<polygon fill="#000000" stroke="#000000" points="432.0736,-121.9936 442.0735,-118.4935 432.0735,-114.9936 432.0736,-121.9936"/>
<text text-anchor="middle" x="421.0841" y="-122.6935" font-family="Times,serif" font-size="14.00" fill="#000000">a</text>
</g>
<!-- {q6,q8} -->
<g id="node4" class="node">
<title>{q6,q8}</title>
<ellipse fill="none" stroke="#000000" cx="615.2915" cy="-130.4935" rx="42.0639" ry="42.0639"/>
<ellipse fill="none" stroke="#000000" cx="615.2915" cy="-130.4935" rx="46.0668" ry="46.0668"/>
<text text-anchor="middle" x="615.2915" y="-126.2935" font-family="Times,serif" font-size="14.00" fill="#000000">{q6,q8}</text>
</g>
<!-- {q6,q8}&#45;&gt;{q3,q7} -->
<g id="edge12" class="edge">
<title>{q6,q8}&#45;&gt;{q3,q7}</title>
<path fill="none" stroke="#000000" d="M570.7342,-118.8341C564.2417,-117.5331 557.6066,-116.4176 551.2582,-115.6935 546.4482,-115.1448 541.4331,-114.8481 536.4064,-114.7361"/>
<polygon fill="#000000" stroke="#000000" points="536.1312,-111.2362 526.1338,-114.7437 536.1365,-118.2362 536.1312,-111.2362"/>
<text text-anchor="middle" x="547.7582" y="-120.6935" font-family="Times,serif" font-size="14.00" fill="#000000">a</text>
</g>
<!-- q1&#45;&gt;q2 -->
<g id="edge2" class="edge">
<title>q1&#45;&gt;q2</title>
<path fill="none" stroke="#000000" d="M132.4538,-61.4935C141.9626,-61.4935 153.4967,-61.4935 164.288,-61.4935"/>
<polygon fill="#000000" stroke="#000000" points="164.3165,-64.9936 174.3164,-61.4935 164.3164,-57.9936 164.3165,-64.9936"/>
<text text-anchor="middle" x="153.4942" y="-65.6935" font-family="Times,serif" font-size="14.00" fill="#000000">a</text>
</g>
<!-- q3&#45;&gt;q6 -->
<g id="edge5" class="edge">
<title>q3&#45;&gt;q6</title>
<path fill="none" stroke="#000000" d="M304.3589,-72.7548C316.162,-80.3666 332.0401,-90.6062 345.7803,-99.4672"/>
<polygon fill="#000000" stroke="#000000" points="344.1357,-102.5712 354.4366,-105.0495 347.9295,-96.6884 344.1357,-102.5712"/>
<text text-anchor="middle" x="329.0899" y="-94.6935" font-family="Times,serif" font-size="14.00" fill="#000000">b</text>
</g>
<!-- q4 -->
<g id="node7" class="node">
<title>q4</title>
<ellipse fill="none" stroke="#000000" cx="615.2915" cy="-45.4935" rx="20.8887" ry="20.8887"/>
<text text-anchor="middle" x="615.2915" y="-41.2935" font-family="Times,serif" font-size="14.00" fill="#000000">q4</text>
</g>
<!-- q3&#45;&gt;q4 -->
<g id="edge4" class="edge">
<title>q3&#45;&gt;q4</title>
<path fill="none" stroke="#000000" d="M307.9386,-60.4682C364.1256,-57.7307 517.9008,-50.2385 584.1976,-47.0084"/>
<polygon fill="#000000" stroke="#000000" points="584.6068,-50.4927 594.4246,-46.5101 584.2661,-43.501 584.6068,-50.4927"/>
<text text-anchor="middle" x="421.0841" y="-59.6935" font-family="Times,serif" font-size="14.00" fill="#000000">a</text>
</g>
<!-- q5 -->
<g id="node8" class="node">
<title>q5</title>
<ellipse fill="none" stroke="#000000" cx="725.0183" cy="-85.4935" rx="20.8887" ry="20.8887"/>
<text text-anchor="middle" x="725.0183" y="-81.2935" font-family="Times,serif" font-size="14.00" fill="#000000">q5</text>
</g>
<!-- q4&#45;&gt;q5 -->
<g id="edge6" class="edge">
<title>q4&#45;&gt;q5</title>
<path fill="none" stroke="#000000" d="M634.9085,-52.6447C651.9162,-58.8447 676.7608,-67.9016 696.0571,-74.9359"/>
<polygon fill="#000000" stroke="#000000" points="694.9773,-78.2675 705.5712,-78.4042 697.3748,-71.6908 694.9773,-78.2675"/>
<text text-anchor="middle" x="682.8249" y="-74.6935" font-family="Times,serif" font-size="14.00" fill="#000000">b</text>
</g>
<!-- q5&#45;&gt;q6 -->
<g id="edge9" class="edge">
<title>q5&#45;&gt;q6</title>
<path fill="none" stroke="#000000" d="M718.8216,-105.6462C710.2356,-129.6318 692.1831,-168.5621 661.3249,-185.4935 575.7131,-232.4671 532.5745,-206.4636 442.1914,-169.4935 427.0338,-163.2934 412.3186,-152.7409 400.5661,-142.838"/>
<polygon fill="#000000" stroke="#000000" points="402.761,-140.1076 392.9341,-136.1474 398.1465,-145.3714 402.761,-140.1076"/>
<text text-anchor="middle" x="547.7582" y="-211.6935" font-family="Times,serif" font-size="14.00" fill="#000000">b</text>
</g>
<!-- q5&#45;&gt;q4 -->
<g id="edge8" class="edge">
<title>q5&#45;&gt;q4</title>
<path fill="none" stroke="#000000" d="M712.1828,-68.6787C705.3965,-61.1339 696.3893,-52.9803 686.3249,-48.6935 673.9028,-43.4023 659.1289,-42.0483 646.2804,-42.233"/>
<polygon fill="#000000" stroke="#000000" points="645.8655,-38.7481 636.0343,-42.6974 646.1825,-45.7409 645.8655,-38.7481"/>
<text text-anchor="middle" x="682.8249" y="-53.6935" font-family="Times,serif" font-size="14.00" fill="#000000">a</text>
</g>
<!-- {q3,q7}&#45;&gt;{q6,q8} -->
<g id="edge11" class="edge">
<title>{q3,q7}&#45;&gt;{q6,q8}</title>
<path fill="none" stroke="#000000" d="M524.2259,-132.2377C530.8451,-134.0039 537.6911,-135.5301 544.2582,-136.4935 549.2576,-137.2268 554.4691,-137.5737 559.6979,-137.6386"/>
<polygon fill="#000000" stroke="#000000" points="559.7933,-141.1375 569.7233,-137.4435 559.6571,-134.1388 559.7933,-141.1375"/>
<text text-anchor="middle" x="547.7582" y="-140.6935" font-family="Times,serif" font-size="14.00" fill="#000000">b</text>
</g>
<!-- {q3,q7}&#45;&gt;q4 -->
<g id="edge10" class="edge">
<title>{q3,q7}&#45;&gt;q4</title>
<path fill="none" stroke="#000000" d="M521.083,-97.9646C542.4253,-86.0776 568.8219,-71.3756 588.239,-60.5609"/>
<polygon fill="#000000" stroke="#000000" points="590.1243,-63.5171 597.1576,-55.5935 586.7182,-57.4017 590.1243,-63.5171"/>
<text text-anchor="middle" x="547.7582" y="-88.6935" font-family="Times,serif" font-size="14.00" fill="#000000">a</text>
</g>
</g>
</svg>
