<?xml version="1.0" encoding="UTF-8" standalone="no"?>
<!DOCTYPE svg PUBLIC "-//W3C//DTD SVG 1.1//EN"
 "http://www.w3.org/Graphics/SVG/1.1/DTD/svg11.dtd">
<!-- Generated by graphviz version 2.40.1 (20161225.0304)
 -->
<!-- Title: %551 Pages: 1 -->
<svg width="809pt" height="193pt"
 viewBox="0.00 0.00 808.73 193.49" xmlns="http://www.w3.org/2000/svg" xmlns:xlink="http://www.w3.org/1999/xlink">
<g id="graph0" class="graph" transform="scale(1 1) rotate(0) translate(4 189.4935)">
<title>%551</title>
<polygon fill="#ffffff" stroke="transparent" points="-4,4 -4,-189.4935 804.7322,-189.4935 804.7322,4 -4,4"/>
<text text-anchor="middle" x="400.3661" y="-8.2" font-family="Times,serif" font-size="14.00" fill="#000000">Автомат 3.1.1.</text>
<g id="node1" class="node">
<title></title>
</g>
<!-- q1 -->
<g id="node3" class="node">
<title>q1</title>
<ellipse fill="none" stroke="#000000" cx="111.6935" cy="-97.8" rx="20.8887" ry="20.8887"/>
<text text-anchor="middle" x="111.6935" y="-93.6" font-family="Times,serif" font-size="14.00" fill="#000000">q1</text>
</g>
<!-- &#45;&gt;q1 -->
<g id="edge1" class="edge">
<title>&#45;&gt;q1</title>
<path fill="none" stroke="#000000" d="M54.2637,-97.8C62.7209,-97.8 72.1012,-97.8 80.7873,-97.8"/>
<polygon fill="#000000" stroke="#000000" points="80.9294,-101.3001 90.9294,-97.8 80.9293,-94.3001 80.9294,-101.3001"/>
</g>
<!-- q10 -->
<g id="node2" class="node">
<title>q10</title>
<ellipse fill="none" stroke="#000000" cx="771.2103" cy="-92.8" rx="25.5409" ry="25.5409"/>
<ellipse fill="none" stroke="#000000" cx="771.2103" cy="-92.8" rx="29.5439" ry="29.5439"/>
<text text-anchor="middle" x="771.2103" y="-88.6" font-family="Times,serif" font-size="14.00" fill="#000000">q10</text>
</g>
<!-- q2 -->
<g id="node4" class="node">
<title>q2</title>
<ellipse fill="none" stroke="#000000" cx="217.0762" cy="-164.8" rx="20.8887" ry="20.8887"/>
<text text-anchor="middle" x="217.0762" y="-160.6" font-family="Times,serif" font-size="14.00" fill="#000000">q2</text>
</g>
<!-- q1&#45;&gt;q2 -->
<g id="edge2" class="edge">
<title>q1&#45;&gt;q2</title>
<path fill="none" stroke="#000000" d="M127.3046,-111.9693C134.1372,-117.8325 142.4039,-124.4878 150.3869,-129.8 162.4982,-137.8593 176.6784,-145.5242 188.8417,-151.6152"/>
<polygon fill="#000000" stroke="#000000" points="187.5655,-154.8873 198.086,-156.1402 190.6431,-148.6001 187.5655,-154.8873"/>
<text text-anchor="middle" x="164.3848" y="-149" font-family="Times,serif" font-size="14.00" fill="#000000">lamb</text>
</g>
<!-- q9 -->
<g id="node8" class="node">
<title>q9</title>
<ellipse fill="none" stroke="#000000" cx="678.7803" cy="-92.8" rx="20.8887" ry="20.8887"/>
<text text-anchor="middle" x="678.7803" y="-88.6" font-family="Times,serif" font-size="14.00" fill="#000000">q9</text>
</g>
<!-- q1&#45;&gt;q9 -->
<g id="edge12" class="edge">
<title>q1&#45;&gt;q9</title>
<path fill="none" stroke="#000000" d="M131.7224,-103.2984C152.7942,-108.5919 187.008,-115.8 217.0762,-115.8 217.0762,-115.8 217.0762,-115.8 573.3976,-115.8 599.629,-115.8 628.706,-108.9137 649.6607,-102.6771"/>
<polygon fill="#000000" stroke="#000000" points="650.7346,-106.0086 659.247,-99.7008 648.6589,-99.3234 650.7346,-106.0086"/>
<text text-anchor="middle" x="395.2369" y="-120" font-family="Times,serif" font-size="14.00" fill="#000000">lamb</text>
</g>
<!-- q6 -->
<g id="node9" class="node">
<title>q6</title>
<ellipse fill="none" stroke="#000000" cx="276.4631" cy="-72.8" rx="20.8887" ry="20.8887"/>
<text text-anchor="middle" x="276.4631" y="-68.6" font-family="Times,serif" font-size="14.00" fill="#000000">q6</text>
</g>
<!-- q1&#45;&gt;q6 -->
<g id="edge7" class="edge">
<title>q1&#45;&gt;q6</title>
<path fill="none" stroke="#000000" d="M131.145,-90.426C137.2289,-88.3752 144.0176,-86.3441 150.3869,-85 182.3929,-78.2461 219.7708,-75.2219 245.4719,-73.8734"/>
<polygon fill="#000000" stroke="#000000" points="245.8972,-77.3574 255.722,-73.3921 245.5688,-70.3651 245.8972,-77.3574"/>
<text text-anchor="middle" x="164.3848" y="-89" font-family="Times,serif" font-size="14.00" fill="#000000">lamb</text>
</g>
<!-- q3 -->
<g id="node5" class="node">
<title>q3</title>
<ellipse fill="none" stroke="#000000" cx="335.85" cy="-164.8" rx="20.8887" ry="20.8887"/>
<text text-anchor="middle" x="335.85" y="-160.6" font-family="Times,serif" font-size="14.00" fill="#000000">q3</text>
</g>
<!-- q2&#45;&gt;q3 -->
<g id="edge3" class="edge">
<title>q2&#45;&gt;q3</title>
<path fill="none" stroke="#000000" d="M238.0371,-164.8C256.6099,-164.8 283.9698,-164.8 305.034,-164.8"/>
<polygon fill="#000000" stroke="#000000" points="305.0986,-168.3001 315.0985,-164.8 305.0985,-161.3001 305.0986,-168.3001"/>
<text text-anchor="middle" x="276.4631" y="-169" font-family="Times,serif" font-size="14.00" fill="#000000">a</text>
</g>
<!-- q4 -->
<g id="node6" class="node">
<title>q4</title>
<ellipse fill="none" stroke="#000000" cx="454.6238" cy="-164.8" rx="20.8887" ry="20.8887"/>
<text text-anchor="middle" x="454.6238" y="-160.6" font-family="Times,serif" font-size="14.00" fill="#000000">q4</text>
</g>
<!-- q3&#45;&gt;q4 -->
<g id="edge4" class="edge">
<title>q3&#45;&gt;q4</title>
<path fill="none" stroke="#000000" d="M356.8109,-164.8C375.3837,-164.8 402.7437,-164.8 423.8078,-164.8"/>
<polygon fill="#000000" stroke="#000000" points="423.8724,-168.3001 433.8724,-164.8 423.8723,-161.3001 423.8724,-168.3001"/>
<text text-anchor="middle" x="395.2369" y="-169" font-family="Times,serif" font-size="14.00" fill="#000000">b</text>
</g>
<!-- q5 -->
<g id="node7" class="node">
<title>q5</title>
<ellipse fill="none" stroke="#000000" cx="573.3976" cy="-164.8" rx="20.8887" ry="20.8887"/>
<text text-anchor="middle" x="573.3976" y="-160.6" font-family="Times,serif" font-size="14.00" fill="#000000">q5</text>
</g>
<!-- q4&#45;&gt;q5 -->
<g id="edge5" class="edge">
<title>q4&#45;&gt;q5</title>
<path fill="none" stroke="#000000" d="M475.5847,-164.8C494.1575,-164.8 521.5175,-164.8 542.5817,-164.8"/>
<polygon fill="#000000" stroke="#000000" points="542.6462,-168.3001 552.6462,-164.8 542.6461,-161.3001 542.6462,-168.3001"/>
<text text-anchor="middle" x="514.0107" y="-169" font-family="Times,serif" font-size="14.00" fill="#000000">a</text>
</g>
<!-- q5&#45;&gt;q9 -->
<g id="edge6" class="edge">
<title>q5&#45;&gt;q9</title>
<path fill="none" stroke="#000000" d="M592.6164,-156.4708C606.4053,-150.0846 625.1157,-140.5598 640.0868,-129.8 645.9692,-125.5723 651.8562,-120.4895 657.1998,-115.464"/>
<polygon fill="#000000" stroke="#000000" points="659.875,-117.7431 664.5761,-108.2484 654.9801,-112.7391 659.875,-117.7431"/>
<text text-anchor="middle" x="626.0889" y="-150" font-family="Times,serif" font-size="14.00" fill="#000000">lamb</text>
</g>
<!-- q9&#45;&gt;q10 -->
<g id="edge11" class="edge">
<title>q9&#45;&gt;q10</title>
<path fill="none" stroke="#000000" d="M699.7541,-92.8C709.1184,-92.8 720.4772,-92.8 731.3565,-92.8"/>
<polygon fill="#000000" stroke="#000000" points="731.5596,-96.3001 741.5596,-92.8 731.5596,-89.3001 731.5596,-96.3001"/>
<text text-anchor="middle" x="720.581" y="-97" font-family="Times,serif" font-size="14.00" fill="#000000">a</text>
</g>
<!-- q9&#45;&gt;q1 -->
<g id="edge13" class="edge">
<title>q9&#45;&gt;q1</title>
<path fill="none" stroke="#000000" d="M665.2502,-76.6849C646.7558,-56.5764 611.5018,-24.8 573.3976,-24.8 217.0762,-24.8 217.0762,-24.8 217.0762,-24.8 182.1448,-24.8 150.4348,-52.2386 131.1259,-73.4714"/>
<polygon fill="#000000" stroke="#000000" points="128.2892,-71.3991 124.352,-81.2352 133.5637,-76.0012 128.2892,-71.3991"/>
<text text-anchor="middle" x="395.2369" y="-29" font-family="Times,serif" font-size="14.00" fill="#000000">lamb</text>
</g>
<!-- q7 -->
<g id="node10" class="node">
<title>q7</title>
<ellipse fill="none" stroke="#000000" cx="395.2369" cy="-70.8" rx="20.8887" ry="20.8887"/>
<text text-anchor="middle" x="395.2369" y="-66.6" font-family="Times,serif" font-size="14.00" fill="#000000">q7</text>
</g>
<!-- q6&#45;&gt;q7 -->
<g id="edge8" class="edge">
<title>q6&#45;&gt;q7</title>
<path fill="none" stroke="#000000" d="M297.424,-72.447C315.9968,-72.1343 343.3568,-71.6736 364.4209,-71.3189"/>
<polygon fill="#000000" stroke="#000000" points="364.5458,-74.8174 374.4854,-71.1494 364.4279,-67.8184 364.5458,-74.8174"/>
<text text-anchor="middle" x="335.85" y="-77" font-family="Times,serif" font-size="14.00" fill="#000000">a</text>
</g>
<!-- q8 -->
<g id="node11" class="node">
<title>q8</title>
<ellipse fill="none" stroke="#000000" cx="514.0107" cy="-70.8" rx="20.8887" ry="20.8887"/>
<text text-anchor="middle" x="514.0107" y="-66.6" font-family="Times,serif" font-size="14.00" fill="#000000">q8</text>
</g>
<!-- q7&#45;&gt;q8 -->
<g id="edge9" class="edge">
<title>q7&#45;&gt;q8</title>
<path fill="none" stroke="#000000" d="M416.1978,-70.8C434.7706,-70.8 462.1306,-70.8 483.1948,-70.8"/>
<polygon fill="#000000" stroke="#000000" points="483.2593,-74.3001 493.2593,-70.8 483.2592,-67.3001 483.2593,-74.3001"/>
<text text-anchor="middle" x="454.6238" y="-75" font-family="Times,serif" font-size="14.00" fill="#000000">b</text>
</g>
<!-- q8&#45;&gt;q9 -->
<g id="edge10" class="edge">
<title>q8&#45;&gt;q9</title>
<path fill="none" stroke="#000000" d="M534.5457,-73.5418C563.1144,-77.3563 615.0668,-84.293 648.2023,-88.7172"/>
<polygon fill="#000000" stroke="#000000" points="647.8706,-92.2039 658.2459,-90.0583 648.7971,-85.2655 647.8706,-92.2039"/>
<text text-anchor="middle" x="573.3976" y="-85" font-family="Times,serif" font-size="14.00" fill="#000000">lamb</text>
</g>
</g>
</svg>
