<?xml version="1.0" encoding="UTF-8" standalone="no"?>
<!DOCTYPE svg PUBLIC "-//W3C//DTD SVG 1.1//EN"
 "http://www.w3.org/Graphics/SVG/1.1/DTD/svg11.dtd">
<!-- Generated by graphviz version 2.40.1 (20161225.0304)
 -->
<!-- Title: %645 Pages: 1 -->
<svg width="337pt" height="117pt"
 viewBox="0.00 0.00 336.59 117.19" xmlns="http://www.w3.org/2000/svg" xmlns:xlink="http://www.w3.org/1999/xlink">
<g id="graph0" class="graph" transform="scale(1 1) rotate(0) translate(4 113.1869)">
<title>%645</title>
<polygon fill="#ffffff" stroke="transparent" points="-4,4 -4,-113.1869 332.5899,-113.1869 332.5899,4 -4,4"/>
<text text-anchor="middle" x="164.295" y="-8.2" font-family="Times,serif" font-size="14.00" fill="#000000">Автомат 3.3.1.</text>
<g id="node1" class="node">
<title></title>
</g>
<!-- q1 -->
<g id="node2" class="node">
<title>q1</title>
<ellipse fill="none" stroke="#000000" cx="115.6935" cy="-49.4935" rx="20.8568" ry="20.8568"/>
<ellipse fill="none" stroke="#000000" cx="115.6935" cy="-49.4935" rx="24.8884" ry="24.8884"/>
<text text-anchor="middle" x="115.6935" y="-45.2935" font-family="Times,serif" font-size="14.00" fill="#000000">q1</text>
</g>
<!-- &#45;&gt;q1 -->
<g id="edge1" class="edge">
<title>&#45;&gt;q1</title>
<path fill="none" stroke="#000000" d="M54.0929,-49.4935C62.5145,-49.4935 71.9196,-49.4935 80.7952,-49.4935"/>
<polygon fill="#000000" stroke="#000000" points="80.8805,-52.9936 90.8805,-49.4935 80.8805,-45.9936 80.8805,-52.9936"/>
</g>
<!-- q1&#45;&gt;q1 -->
<g id="edge2" class="edge">
<title>q1&#45;&gt;q1</title>
<path fill="none" stroke="#000000" d="M107.9127,-73.2015C107.2756,-83.4297 109.8692,-92.1869 115.6935,-92.1869 119.4246,-92.1869 121.8299,-88.5929 122.9093,-83.3207"/>
<polygon fill="#000000" stroke="#000000" points="126.4113,-83.3811 123.4742,-73.2015 119.4222,-82.9908 126.4113,-83.3811"/>
<text text-anchor="middle" x="115.6935" y="-96.3869" font-family="Times,serif" font-size="14.00" fill="#000000">a</text>
</g>
<!-- q2 -->
<g id="node3" class="node">
<title>q2</title>
<ellipse fill="none" stroke="#000000" cx="213.795" cy="-88.4935" rx="20.8887" ry="20.8887"/>
<text text-anchor="middle" x="213.795" y="-84.2935" font-family="Times,serif" font-size="14.00" fill="#000000">q2</text>
</g>
<!-- q1&#45;&gt;q2 -->
<g id="edge3" class="edge">
<title>q1&#45;&gt;q2</title>
<path fill="none" stroke="#000000" d="M138.9421,-58.7359C152.661,-64.1898 170.1442,-71.1402 184.7635,-76.9521"/>
<polygon fill="#000000" stroke="#000000" points="183.7599,-80.3195 194.3455,-80.7614 186.3459,-73.8146 183.7599,-80.3195"/>
<text text-anchor="middle" x="166.7442" y="-75.6935" font-family="Times,serif" font-size="14.00" fill="#000000">a,b</text>
</g>
<!-- q3 -->
<g id="node4" class="node">
<title>q3</title>
<ellipse fill="none" stroke="#000000" cx="307.8965" cy="-49.4935" rx="20.8887" ry="20.8887"/>
<text text-anchor="middle" x="307.8965" y="-45.2935" font-family="Times,serif" font-size="14.00" fill="#000000">q3</text>
</g>
<!-- q2&#45;&gt;q3 -->
<g id="edge4" class="edge">
<title>q2&#45;&gt;q3</title>
<path fill="none" stroke="#000000" d="M233.2929,-80.4126C246.6293,-74.8854 264.5259,-67.4682 279.4474,-61.2841"/>
<polygon fill="#000000" stroke="#000000" points="280.8475,-64.4925 288.7455,-57.4305 278.1674,-58.0259 280.8475,-64.4925"/>
<text text-anchor="middle" x="260.8457" y="-74.6935" font-family="Times,serif" font-size="14.00" fill="#000000">a,b</text>
</g>
<!-- q3&#45;&gt;q1 -->
<g id="edge5" class="edge">
<title>q3&#45;&gt;q1</title>
<path fill="none" stroke="#000000" d="M287.3754,-46.725C272.6805,-44.8865 252.406,-42.6427 234.4884,-41.6935 216.12,-40.7203 211.4725,-40.7702 193.1015,-41.6935 179.1573,-42.3942 163.8535,-43.8008 150.5615,-45.2289"/>
<polygon fill="#000000" stroke="#000000" points="149.9461,-41.7758 140.3972,-46.3658 150.7243,-48.7324 149.9461,-41.7758"/>
<text text-anchor="middle" x="213.795" y="-45.6935" font-family="Times,serif" font-size="14.00" fill="#000000">b</text>
</g>
</g>
</svg>
