<?xml version="1.0" encoding="UTF-8" standalone="no"?>
<!DOCTYPE svg PUBLIC "-//W3C//DTD SVG 1.1//EN"
 "http://www.w3.org/Graphics/SVG/1.1/DTD/svg11.dtd">
<!-- Generated by graphviz version 2.40.1 (20161225.0304)
 -->
<!-- Title: %579 Pages: 1 -->
<svg width="629pt" height="199pt"
 viewBox="0.00 0.00 628.54 198.77" xmlns="http://www.w3.org/2000/svg" xmlns:xlink="http://www.w3.org/1999/xlink">
<g id="graph0" class="graph" transform="scale(1 1) rotate(0) translate(4 194.7664)">
<title>%579</title>
<polygon fill="#ffffff" stroke="transparent" points="-4,4 -4,-194.7664 624.5427,-194.7664 624.5427,4 -4,4"/>
<text text-anchor="middle" x="310.2713" y="-8.2" font-family="Times,serif" font-size="14.00" fill="#000000">Автомат 3.1. (ответ)</text>
<g id="node1" class="node">
<title></title>
</g>
<!-- q1 -->
<g id="node4" class="node">
<title>q1</title>
<ellipse fill="none" stroke="#000000" cx="111.6935" cy="-87.733" rx="20.8887" ry="20.8887"/>
<text text-anchor="middle" x="111.6935" y="-83.533" font-family="Times,serif" font-size="14.00" fill="#000000">q1</text>
</g>
<!-- &#45;&gt;q1 -->
<g id="edge1" class="edge">
<title>&#45;&gt;q1</title>
<path fill="none" stroke="#000000" d="M54.2637,-87.733C62.7209,-87.733 72.1012,-87.733 80.7873,-87.733"/>
<polygon fill="#000000" stroke="#000000" points="80.9294,-91.2331 90.9294,-87.733 80.9293,-84.2331 80.9294,-91.2331"/>
</g>
<!-- {q3,q7,q10} -->
<g id="node2" class="node">
<title>{q3,q7,q10}</title>
<ellipse fill="none" stroke="#000000" cx="237.5345" cy="-87.733" rx="58.8704" ry="58.8704"/>
<ellipse fill="none" stroke="#000000" cx="237.5345" cy="-87.733" rx="62.8661" ry="62.8661"/>
<text text-anchor="middle" x="237.5345" y="-83.533" font-family="Times,serif" font-size="14.00" fill="#000000">{q3,q7,q10}</text>
</g>
<!-- {q8,q4} -->
<g id="node5" class="node">
<title>{q8,q4}</title>
<ellipse fill="none" stroke="#000000" cx="385.5009" cy="-148.733" rx="42.0668" ry="42.0668"/>
<text text-anchor="middle" x="385.5009" y="-144.533" font-family="Times,serif" font-size="14.00" fill="#000000">{q8,q4}</text>
</g>
<!-- {q3,q7,q10}&#45;&gt;{q8,q4} -->
<g id="edge3" class="edge">
<title>{q3,q7,q10}&#45;&gt;{q8,q4}</title>
<path fill="none" stroke="#000000" d="M296.0148,-111.8418C309.6653,-117.4693 324.053,-123.4008 337.2043,-128.8225"/>
<polygon fill="#000000" stroke="#000000" points="335.9546,-132.093 346.5338,-132.6686 338.6226,-125.6213 335.9546,-132.093"/>
<text text-anchor="middle" x="321.9675" y="-127.933" font-family="Times,serif" font-size="14.00" fill="#000000">b</text>
</g>
<!-- {q5,q7,q3,q10} -->
<g id="node3" class="node">
<title>{q5,q7,q3,q10}</title>
<ellipse fill="none" stroke="#000000" cx="545.5385" cy="-108.733" rx="71.0082" ry="71.0082"/>
<ellipse fill="none" stroke="#000000" cx="545.5385" cy="-108.733" rx="75.0084" ry="75.0084"/>
<text text-anchor="middle" x="545.5385" y="-104.533" font-family="Times,serif" font-size="14.00" fill="#000000">{q5,q7,q3,q10}</text>
</g>
<!-- {q5,q7,q3,q10}&#45;&gt;{q3,q7,q10} -->
<g id="edge5" class="edge">
<title>{q5,q7,q3,q10}&#45;&gt;{q3,q7,q10}</title>
<path fill="none" stroke="#000000" d="M472.986,-88.8644C458.0653,-85.5644 442.3783,-82.6579 427.5343,-80.933 390.421,-76.6204 380.8114,-79.7357 343.4675,-80.933 332.8202,-81.2744 321.5801,-81.8083 310.5579,-82.4304"/>
<polygon fill="#000000" stroke="#000000" points="310.296,-78.9397 300.5199,-83.0235 310.709,-85.9275 310.296,-78.9397"/>
<text text-anchor="middle" x="385.5009" y="-85.933" font-family="Times,serif" font-size="14.00" fill="#000000">a</text>
</g>
<!-- {q5,q7,q3,q10}&#45;&gt;{q8,q4} -->
<g id="edge6" class="edge">
<title>{q5,q7,q3,q10}&#45;&gt;{q8,q4}</title>
<path fill="none" stroke="#000000" d="M470.315,-106.9332C461.8526,-107.9673 453.4386,-109.5661 445.5343,-111.933 439.8325,-113.6404 434.1281,-116.0295 428.6282,-118.7791"/>
<polygon fill="#000000" stroke="#000000" points="426.7133,-115.8364 419.6021,-123.6903 430.0589,-121.9852 426.7133,-115.8364"/>
<text text-anchor="middle" x="449.0343" y="-116.933" font-family="Times,serif" font-size="14.00" fill="#000000">b</text>
</g>
<!-- q1&#45;&gt;{q3,q7,q10} -->
<g id="edge2" class="edge">
<title>q1&#45;&gt;{q3,q7,q10}</title>
<path fill="none" stroke="#000000" d="M132.4735,-87.733C141.4904,-87.733 152.6441,-87.733 164.2827,-87.733"/>
<polygon fill="#000000" stroke="#000000" points="164.5939,-91.2331 174.5938,-87.733 164.5938,-84.2331 164.5939,-91.2331"/>
<text text-anchor="middle" x="153.4942" y="-91.933" font-family="Times,serif" font-size="14.00" fill="#000000">a</text>
</g>
<!-- {q8,q4}&#45;&gt;{q5,q7,q3,q10} -->
<g id="edge4" class="edge">
<title>{q8,q4}&#45;&gt;{q5,q7,q3,q10}</title>
<path fill="none" stroke="#000000" d="M426.2992,-138.5358C437.4064,-135.7597 449.8529,-132.6488 462.4019,-129.5123"/>
<polygon fill="#000000" stroke="#000000" points="463.6114,-132.8177 472.4642,-126.9973 461.914,-126.0266 463.6114,-132.8177"/>
<text text-anchor="middle" x="449.0343" y="-137.933" font-family="Times,serif" font-size="14.00" fill="#000000">a</text>
</g>
</g>
</svg>
