<?xml version="1.0" encoding="UTF-8" standalone="no"?>
<!DOCTYPE svg PUBLIC "-//W3C//DTD SVG 1.1//EN"
 "http://www.w3.org/Graphics/SVG/1.1/DTD/svg11.dtd">
<!-- Generated by graphviz version 2.40.1 (20161225.0304)
 -->
<!-- Title: %657 Pages: 1 -->
<svg width="612pt" height="423pt"
 viewBox="0.00 0.00 612.12 423.19" xmlns="http://www.w3.org/2000/svg" xmlns:xlink="http://www.w3.org/1999/xlink">
<g id="graph0" class="graph" transform="scale(1 1) rotate(0) translate(4 419.19)">
<title>%657</title>
<polygon fill="#ffffff" stroke="transparent" points="-4,4 -4,-419.19 608.1164,-419.19 608.1164,4 -4,4"/>
<text text-anchor="middle" x="302.0582" y="-8.2" font-family="Times,serif" font-size="14.00" fill="#000000">Автомат 3.3. (ответ)</text>
<g id="node1" class="node">
<title></title>
</g>
<!-- q1 -->
<g id="node2" class="node">
<title>q1</title>
<ellipse fill="none" stroke="#000000" cx="115.6935" cy="-74.1566" rx="20.8568" ry="20.8568"/>
<ellipse fill="none" stroke="#000000" cx="115.6935" cy="-74.1566" rx="24.8884" ry="24.8884"/>
<text text-anchor="middle" x="115.6935" y="-69.9566" font-family="Times,serif" font-size="14.00" fill="#000000">q1</text>
</g>
<!-- &#45;&gt;q1 -->
<g id="edge1" class="edge">
<title>&#45;&gt;q1</title>
<path fill="none" stroke="#000000" d="M54.0929,-74.1566C62.5145,-74.1566 71.9196,-74.1566 80.7952,-74.1566"/>
<polygon fill="#000000" stroke="#000000" points="80.8805,-77.6567 90.8805,-74.1566 80.8805,-70.6567 80.8805,-77.6567"/>
</g>
<!-- {q1,q2} -->
<g id="node3" class="node">
<title>{q1,q2}</title>
<ellipse fill="none" stroke="#000000" cx="229.4203" cy="-262.1566" rx="42.0639" ry="42.0639"/>
<ellipse fill="none" stroke="#000000" cx="229.4203" cy="-262.1566" rx="46.0668" ry="46.0668"/>
<text text-anchor="middle" x="229.4203" y="-257.9566" font-family="Times,serif" font-size="14.00" fill="#000000">{q1,q2}</text>
</g>
<!-- q1&#45;&gt;{q1,q2} -->
<g id="edge2" class="edge">
<title>q1&#45;&gt;{q1,q2}</title>
<path fill="none" stroke="#000000" d="M128.5183,-95.3572C145.7815,-123.8946 176.9976,-175.4975 200.1537,-213.7765"/>
<polygon fill="#000000" stroke="#000000" points="197.3854,-215.9625 205.5561,-222.7072 203.3748,-212.3393 197.3854,-215.9625"/>
<text text-anchor="middle" x="161.8869" y="-155.3566" font-family="Times,serif" font-size="14.00" fill="#000000">a</text>
</g>
<!-- q2 -->
<g id="node6" class="node">
<title>q2</title>
<ellipse fill="none" stroke="#000000" cx="314.1471" cy="-74.1566" rx="20.8887" ry="20.8887"/>
<text text-anchor="middle" x="314.1471" y="-69.9566" font-family="Times,serif" font-size="14.00" fill="#000000">q2</text>
</g>
<!-- q1&#45;&gt;q2 -->
<g id="edge3" class="edge">
<title>q1&#45;&gt;q2</title>
<path fill="none" stroke="#000000" d="M140.4265,-74.1566C176.5941,-74.1566 243.8785,-74.1566 283.253,-74.1566"/>
<polygon fill="#000000" stroke="#000000" points="283.3338,-77.6567 293.3338,-74.1566 283.3337,-70.6567 283.3338,-77.6567"/>
<text text-anchor="middle" x="161.8869" y="-78.3566" font-family="Times,serif" font-size="14.00" fill="#000000">b</text>
</g>
<!-- {q1,q2,q3} -->
<g id="node4" class="node">
<title>{q1,q2,q3}</title>
<ellipse fill="none" stroke="#000000" cx="410.9451" cy="-167.1566" rx="54.2021" ry="54.2021"/>
<ellipse fill="none" stroke="#000000" cx="410.9451" cy="-167.1566" rx="58.2093" ry="58.2093"/>
<text text-anchor="middle" x="410.9451" y="-162.9566" font-family="Times,serif" font-size="14.00" fill="#000000">{q1,q2,q3}</text>
</g>
<!-- {q1,q2}&#45;&gt;{q1,q2,q3} -->
<g id="edge4" class="edge">
<title>{q1,q2}&#45;&gt;{q1,q2,q3}</title>
<path fill="none" stroke="#000000" d="M270.6111,-240.5997C294.0976,-228.3081 323.9725,-212.6733 350.1161,-198.9912"/>
<polygon fill="#000000" stroke="#000000" points="351.9541,-201.9797 359.1912,-194.2418 348.7082,-195.7776 351.9541,-201.9797"/>
<text text-anchor="middle" x="314.1471" y="-229.3566" font-family="Times,serif" font-size="14.00" fill="#000000">a</text>
</g>
<!-- {q2,q3} -->
<g id="node7" class="node">
<title>{q2,q3}</title>
<ellipse fill="none" stroke="#000000" cx="410.9451" cy="-319.1566" rx="42.0668" ry="42.0668"/>
<text text-anchor="middle" x="410.9451" y="-314.9566" font-family="Times,serif" font-size="14.00" fill="#000000">{q2,q3}</text>
</g>
<!-- {q1,q2}&#45;&gt;{q2,q3} -->
<g id="edge5" class="edge">
<title>{q1,q2}&#45;&gt;{q2,q3}</title>
<path fill="none" stroke="#000000" d="M273.3624,-275.9547C299.809,-284.2591 333.559,-294.8569 361.0127,-303.4775"/>
<polygon fill="#000000" stroke="#000000" points="360.2279,-306.8995 370.8172,-306.5562 362.3251,-300.221 360.2279,-306.8995"/>
<text text-anchor="middle" x="314.1471" y="-297.3566" font-family="Times,serif" font-size="14.00" fill="#000000">b</text>
</g>
<!-- {q1,q2,q3}&#45;&gt;{q1,q2,q3} -->
<g id="edge7" class="edge">
<title>{q1,q2,q3}&#45;&gt;{q1,q2,q3}</title>
<path fill="none" stroke="#000000" d="M396.878,-223.5783C398.4104,-235.048 403.0994,-243.2612 410.9451,-243.2612 416.2164,-243.2612 420.0628,-239.5536 422.4842,-233.6418"/>
<polygon fill="#000000" stroke="#000000" points="425.9703,-234.1297 425.0122,-223.5783 419.1812,-232.4242 425.9703,-234.1297"/>
<text text-anchor="middle" x="410.9451" y="-247.4612" font-family="Times,serif" font-size="14.00" fill="#000000">a,b</text>
</g>
<!-- {q1,q3} -->
<g id="node5" class="node">
<title>{q1,q3}</title>
<ellipse fill="none" stroke="#000000" cx="558.083" cy="-369.1566" rx="42.0639" ry="42.0639"/>
<ellipse fill="none" stroke="#000000" cx="558.083" cy="-369.1566" rx="46.0668" ry="46.0668"/>
<text text-anchor="middle" x="558.083" y="-364.9566" font-family="Times,serif" font-size="14.00" fill="#000000">{q1,q3}</text>
</g>
<!-- {q1,q3}&#45;&gt;{q1,q2} -->
<g id="edge11" class="edge">
<title>{q1,q3}&#45;&gt;{q1,q2}</title>
<path fill="none" stroke="#000000" d="M512.827,-378.3819C470.1229,-385.0305 405.0423,-389.7717 352.8405,-370.1566 318.4488,-357.2338 287.3707,-329.8998 265.0035,-305.9656"/>
<polygon fill="#000000" stroke="#000000" points="267.3759,-303.3725 258.0543,-298.3368 262.201,-308.0864 267.3759,-303.3725"/>
<text text-anchor="middle" x="410.9451" y="-388.3566" font-family="Times,serif" font-size="14.00" fill="#000000">a,b</text>
</g>
<!-- q3 -->
<g id="node8" class="node">
<title>q3</title>
<ellipse fill="none" stroke="#000000" cx="558.083" cy="-74.1566" rx="20.8887" ry="20.8887"/>
<text text-anchor="middle" x="558.083" y="-69.9566" font-family="Times,serif" font-size="14.00" fill="#000000">q3</text>
</g>
<!-- q2&#45;&gt;q3 -->
<g id="edge6" class="edge">
<title>q2&#45;&gt;q3</title>
<path fill="none" stroke="#000000" d="M334.9449,-74.1566C377.8809,-74.1566 476.5245,-74.1566 527.0371,-74.1566"/>
<polygon fill="#000000" stroke="#000000" points="527.3379,-77.6567 537.3378,-74.1566 527.3378,-70.6567 527.3379,-77.6567"/>
<text text-anchor="middle" x="410.9451" y="-78.3566" font-family="Times,serif" font-size="14.00" fill="#000000">a,b</text>
</g>
<!-- {q2,q3}&#45;&gt;{q1,q3} -->
<g id="edge9" class="edge">
<title>{q2,q3}&#45;&gt;{q1,q3}</title>
<path fill="none" stroke="#000000" d="M450.7627,-332.6874C467.3509,-338.3243 486.8619,-344.9545 504.6665,-351.0048"/>
<polygon fill="#000000" stroke="#000000" points="503.7586,-354.3928 514.353,-354.2964 506.0109,-347.765 503.7586,-354.3928"/>
<text text-anchor="middle" x="490.5496" y="-350.3566" font-family="Times,serif" font-size="14.00" fill="#000000">b</text>
</g>
<!-- {q2,q3}&#45;&gt;q3 -->
<g id="edge8" class="edge">
<title>{q2,q3}&#45;&gt;q3</title>
<path fill="none" stroke="#000000" d="M444.6595,-293.8018C453.3327,-286.2057 462.153,-277.413 469.0496,-268.1566 508.0545,-215.8064 535.5385,-143.6378 548.8872,-103.7168"/>
<polygon fill="#000000" stroke="#000000" points="552.2639,-104.6517 552.0502,-94.059 545.6116,-102.473 552.2639,-104.6517"/>
<text text-anchor="middle" x="490.5496" y="-243.3566" font-family="Times,serif" font-size="14.00" fill="#000000">a</text>
</g>
<!-- q3&#45;&gt;q1 -->
<g id="edge10" class="edge">
<title>q3&#45;&gt;q1</title>
<path fill="none" stroke="#000000" d="M538.5915,-66.5781C494.9092,-50.5047 385.7614,-15.409 293.4536,-27.3566 242.0361,-34.0117 184.2881,-51.0683 148.9526,-62.6441"/>
<polygon fill="#000000" stroke="#000000" points="147.556,-59.42 139.1712,-65.8966 149.7648,-66.0624 147.556,-59.42"/>
<text text-anchor="middle" x="314.1471" y="-32.3566" font-family="Times,serif" font-size="14.00" fill="#000000">b</text>
</g>
</g>
</svg>
