<?xml version="1.0" encoding="UTF-8" standalone="no"?>
<!DOCTYPE svg PUBLIC "-//W3C//DTD SVG 1.1//EN"
 "http://www.w3.org/Graphics/SVG/1.1/DTD/svg11.dtd">
<!-- Generated by graphviz version 2.40.1 (20161225.0304)
 -->
<!-- Title: %593 Pages: 1 -->
<svg width="752pt" height="145pt"
 viewBox="0.00 0.00 751.95 145.33" xmlns="http://www.w3.org/2000/svg" xmlns:xlink="http://www.w3.org/1999/xlink">
<g id="graph0" class="graph" transform="scale(1 1) rotate(0) translate(4 141.3318)">
<title>%593</title>
<polygon fill="#ffffff" stroke="transparent" points="-4,4 -4,-141.3318 747.9536,-141.3318 747.9536,4 -4,4"/>
<text text-anchor="middle" x="371.9768" y="-8.2" font-family="Times,serif" font-size="14.00" fill="#000000">Автомат 3.2.1.</text>
<g id="node1" class="node">
<title></title>
</g>
<!-- q1 -->
<g id="node5" class="node">
<title>q1</title>
<ellipse fill="none" stroke="#000000" cx="111.6935" cy="-95.5318" rx="20.8887" ry="20.8887"/>
<text text-anchor="middle" x="111.6935" y="-91.3318" font-family="Times,serif" font-size="14.00" fill="#000000">q1</text>
</g>
<!-- &#45;&gt;q1 -->
<g id="edge1" class="edge">
<title>&#45;&gt;q1</title>
<path fill="none" stroke="#000000" d="M54.2637,-95.5318C62.7209,-95.5318 72.1012,-95.5318 80.7873,-95.5318"/>
<polygon fill="#000000" stroke="#000000" points="80.9294,-99.0319 90.9294,-95.5318 80.9293,-92.0319 80.9294,-99.0319"/>
</g>
<!-- q2 -->
<g id="node2" class="node">
<title>q2</title>
<ellipse fill="none" stroke="#000000" cx="199.295" cy="-95.5318" rx="20.8568" ry="20.8568"/>
<ellipse fill="none" stroke="#000000" cx="199.295" cy="-95.5318" rx="24.8884" ry="24.8884"/>
<text text-anchor="middle" x="199.295" y="-91.3318" font-family="Times,serif" font-size="14.00" fill="#000000">q2</text>
</g>
<!-- q3 -->
<g id="node6" class="node">
<title>q3</title>
<ellipse fill="none" stroke="#000000" cx="286.8965" cy="-95.5318" rx="20.8887" ry="20.8887"/>
<text text-anchor="middle" x="286.8965" y="-91.3318" font-family="Times,serif" font-size="14.00" fill="#000000">q3</text>
</g>
<!-- q2&#45;&gt;q3 -->
<g id="edge3" class="edge">
<title>q2&#45;&gt;q3</title>
<path fill="none" stroke="#000000" d="M224.1637,-95.5318C233.9999,-95.5318 245.4133,-95.5318 255.7872,-95.5318"/>
<polygon fill="#000000" stroke="#000000" points="256.1119,-99.0319 266.1118,-95.5318 256.1118,-92.0319 256.1119,-99.0319"/>
<text text-anchor="middle" x="245.0957" y="-99.7318" font-family="Times,serif" font-size="14.00" fill="#000000">a</text>
</g>
<!-- q6 -->
<g id="node3" class="node">
<title>q6</title>
<ellipse fill="none" stroke="#000000" cx="543.2718" cy="-95.5318" rx="20.8568" ry="20.8568"/>
<ellipse fill="none" stroke="#000000" cx="543.2718" cy="-95.5318" rx="24.8884" ry="24.8884"/>
<text text-anchor="middle" x="543.2718" y="-91.3318" font-family="Times,serif" font-size="14.00" fill="#000000">q6</text>
</g>
<!-- q6&#45;&gt;q3 -->
<g id="edge9" class="edge">
<title>q6&#45;&gt;q3</title>
<path fill="none" stroke="#000000" d="M518.2666,-95.5318C471.1845,-95.5318 369.498,-95.5318 318.054,-95.5318"/>
<polygon fill="#000000" stroke="#000000" points="317.8768,-92.0319 307.8767,-95.5318 317.8767,-99.0319 317.8768,-92.0319"/>
<text text-anchor="middle" x="412.6914" y="-99.7318" font-family="Times,serif" font-size="14.00" fill="#000000">a</text>
</g>
<!-- q7 -->
<g id="node9" class="node">
<title>q7</title>
<ellipse fill="none" stroke="#000000" cx="630.8733" cy="-95.5318" rx="20.8887" ry="20.8887"/>
<text text-anchor="middle" x="630.8733" y="-91.3318" font-family="Times,serif" font-size="14.00" fill="#000000">q7</text>
</g>
<!-- q6&#45;&gt;q7 -->
<g id="edge10" class="edge">
<title>q6&#45;&gt;q7</title>
<path fill="none" stroke="#000000" d="M568.1405,-95.5318C577.9767,-95.5318 589.3901,-95.5318 599.764,-95.5318"/>
<polygon fill="#000000" stroke="#000000" points="600.0887,-99.0319 610.0887,-95.5318 600.0886,-92.0319 600.0887,-99.0319"/>
<text text-anchor="middle" x="589.0725" y="-99.7318" font-family="Times,serif" font-size="14.00" fill="#000000">a</text>
</g>
<!-- q8 -->
<g id="node4" class="node">
<title>q8</title>
<ellipse fill="none" stroke="#000000" cx="719.2602" cy="-95.5318" rx="20.8568" ry="20.8568"/>
<ellipse fill="none" stroke="#000000" cx="719.2602" cy="-95.5318" rx="24.8884" ry="24.8884"/>
<text text-anchor="middle" x="719.2602" y="-91.3318" font-family="Times,serif" font-size="14.00" fill="#000000">q8</text>
</g>
<!-- q8&#45;&gt;q7 -->
<g id="edge12" class="edge">
<title>q8&#45;&gt;q7</title>
<path fill="none" stroke="#000000" d="M699.4211,-80.7646C690.5061,-75.8362 679.7247,-72.1746 669.5667,-74.7318 665.4065,-75.7791 661.2064,-77.3704 657.1848,-79.2161"/>
<polygon fill="#000000" stroke="#000000" points="655.5027,-76.1456 648.2277,-83.8479 658.7181,-82.3634 655.5027,-76.1456"/>
<text text-anchor="middle" x="673.0667" y="-79.7318" font-family="Times,serif" font-size="14.00" fill="#000000">a</text>
</g>
<!-- q1&#45;&gt;q2 -->
<g id="edge2" class="edge">
<title>q1&#45;&gt;q2</title>
<path fill="none" stroke="#000000" d="M132.4538,-95.5318C141.9626,-95.5318 153.4967,-95.5318 164.288,-95.5318"/>
<polygon fill="#000000" stroke="#000000" points="164.3165,-99.0319 174.3164,-95.5318 164.3164,-92.0319 164.3165,-99.0319"/>
<text text-anchor="middle" x="153.4942" y="-99.7318" font-family="Times,serif" font-size="14.00" fill="#000000">a</text>
</g>
<!-- q3&#45;&gt;q6 -->
<g id="edge8" class="edge">
<title>q3&#45;&gt;q6</title>
<path fill="none" stroke="#000000" d="M306.2553,-103.8194C312.3356,-106.0715 319.1454,-108.2423 325.5899,-109.5318 401.8509,-124.7913 424.0919,-123.6174 500.5783,-109.5318 503.8003,-108.9385 507.1142,-108.163 510.4032,-107.2811"/>
<polygon fill="#000000" stroke="#000000" points="511.498,-110.607 520.0784,-104.3919 509.495,-103.8996 511.498,-110.607"/>
<text text-anchor="middle" x="412.6914" y="-124.7318" font-family="Times,serif" font-size="14.00" fill="#000000">b</text>
</g>
<!-- q4 -->
<g id="node7" class="node">
<title>q4</title>
<ellipse fill="none" stroke="#000000" cx="370.498" cy="-46.5318" rx="20.8887" ry="20.8887"/>
<text text-anchor="middle" x="370.498" y="-42.3318" font-family="Times,serif" font-size="14.00" fill="#000000">q4</text>
</g>
<!-- q3&#45;&gt;q4 -->
<g id="edge4" class="edge">
<title>q3&#45;&gt;q4</title>
<path fill="none" stroke="#000000" d="M302.3397,-81.5531C309.1439,-75.8521 317.4347,-69.4955 325.5899,-64.7318 330.4931,-61.8677 335.9328,-59.2487 341.2851,-56.9445"/>
<polygon fill="#000000" stroke="#000000" points="342.7246,-60.138 350.6903,-53.1524 340.1069,-53.6458 342.7246,-60.138"/>
<text text-anchor="middle" x="328.6972" y="-69.7318" font-family="Times,serif" font-size="14.00" fill="#000000">a</text>
</g>
<!-- q5 -->
<g id="node8" class="node">
<title>q5</title>
<ellipse fill="none" stroke="#000000" cx="454.8849" cy="-46.5318" rx="20.8887" ry="20.8887"/>
<text text-anchor="middle" x="454.8849" y="-42.3318" font-family="Times,serif" font-size="14.00" fill="#000000">q5</text>
</g>
<!-- q4&#45;&gt;q5 -->
<g id="edge5" class="edge">
<title>q4&#45;&gt;q5</title>
<path fill="none" stroke="#000000" d="M391.3577,-46.5318C401.0947,-46.5318 412.8888,-46.5318 423.6585,-46.5318"/>
<polygon fill="#000000" stroke="#000000" points="423.9727,-50.0319 433.9727,-46.5318 423.9727,-43.0319 423.9727,-50.0319"/>
<text text-anchor="middle" x="412.6914" y="-50.7318" font-family="Times,serif" font-size="14.00" fill="#000000">b</text>
</g>
<!-- q5&#45;&gt;q6 -->
<g id="edge7" class="edge">
<title>q5&#45;&gt;q6</title>
<path fill="none" stroke="#000000" d="M474.9367,-53.2978C483.0984,-56.3617 492.494,-60.2943 500.5783,-64.7318 505.5858,-67.4804 510.6929,-70.7228 515.5526,-74.0539"/>
<polygon fill="#000000" stroke="#000000" points="513.7863,-77.0935 523.9578,-80.0585 517.8553,-71.3976 513.7863,-77.0935"/>
<text text-anchor="middle" x="497.0783" y="-69.7318" font-family="Times,serif" font-size="14.00" fill="#000000">b</text>
</g>
<!-- q5&#45;&gt;q4 -->
<g id="edge6" class="edge">
<title>q5&#45;&gt;q4</title>
<path fill="none" stroke="#000000" d="M437.5304,-34.8479C431.1094,-31.1748 423.5874,-27.5937 416.1914,-25.7318 409.2631,-23.9877 402.087,-25.4929 395.532,-28.3454"/>
<polygon fill="#000000" stroke="#000000" points="393.5895,-25.4175 386.4739,-33.2673 396.9316,-31.5682 393.5895,-25.4175"/>
<text text-anchor="middle" x="412.6914" y="-30.7318" font-family="Times,serif" font-size="14.00" fill="#000000">a</text>
</g>
<!-- q7&#45;&gt;q8 -->
<g id="edge11" class="edge">
<title>q7&#45;&gt;q8</title>
<path fill="none" stroke="#000000" d="M651.8197,-95.5318C661.4912,-95.5318 673.2391,-95.5318 684.2027,-95.5318"/>
<polygon fill="#000000" stroke="#000000" points="684.3804,-99.0319 694.3804,-95.5318 684.3803,-92.0319 684.3804,-99.0319"/>
<text text-anchor="middle" x="673.0667" y="-99.7318" font-family="Times,serif" font-size="14.00" fill="#000000">b</text>
</g>
</g>
</svg>
