<?xml version="1.0" encoding="UTF-8" standalone="no"?>
<!DOCTYPE svg PUBLIC "-//W3C//DTD SVG 1.1//EN"
 "http://www.w3.org/Graphics/SVG/1.1/DTD/svg11.dtd">
<!-- Generated by graphviz version 2.40.1 (20161225.0304)
 -->
<!-- Title: %3 Pages: 1 -->
<svg width="247pt" height="117pt"
 viewBox="0.00 0.00 246.82 116.99" xmlns="http://www.w3.org/2000/svg" xmlns:xlink="http://www.w3.org/1999/xlink">
<g id="graph0" class="graph" transform="scale(1 1) rotate(0) translate(4 112.9869)">
<title>%3</title>
<polygon fill="#ffffff" stroke="transparent" points="-4,4 -4,-112.9869 242.8212,-112.9869 242.8212,4 -4,4"/>
<text text-anchor="middle" x="119.4106" y="-8.2" font-family="Times,serif" font-size="14.00" fill="#000000">Автомат 1.1. (ответ)</text>
<g id="node1" class="node">
<title></title>
</g>
<!-- q1 -->
<g id="node3" class="node">
<title>q1</title>
<ellipse fill="none" stroke="#000000" cx="119.1098" cy="-49.4935" rx="20.8887" ry="20.8887"/>
<text text-anchor="middle" x="119.1098" y="-45.2935" font-family="Times,serif" font-size="14.00" fill="#000000">q1</text>
</g>
<!-- &#45;&gt;q1 -->
<g id="edge1" class="edge">
<title>&#45;&gt;q1</title>
<path fill="none" stroke="#000000" d="M61.6801,-49.4935C70.1372,-49.4935 79.5176,-49.4935 88.2037,-49.4935"/>
<polygon fill="#000000" stroke="#000000" points="88.3458,-52.9936 98.3458,-49.4935 88.3457,-45.9936 88.3458,-52.9936"/>
</g>
<!-- q2 -->
<g id="node2" class="node">
<title>q2</title>
<ellipse fill="none" stroke="#000000" cx="206.7114" cy="-49.4935" rx="20.8568" ry="20.8568"/>
<ellipse fill="none" stroke="#000000" cx="206.7114" cy="-49.4935" rx="24.8884" ry="24.8884"/>
<text text-anchor="middle" x="206.7114" y="-45.2935" font-family="Times,serif" font-size="14.00" fill="#000000">q2</text>
</g>
<!-- q2&#45;&gt;q2 -->
<g id="edge4" class="edge">
<title>q2&#45;&gt;q2</title>
<path fill="none" stroke="#000000" d="M198.56,-73.2015C197.8927,-83.4297 200.6098,-92.1869 206.7114,-92.1869 210.6202,-92.1869 213.14,-88.5929 214.2708,-83.3207"/>
<polygon fill="#000000" stroke="#000000" points="217.7727,-83.3888 214.8627,-73.2015 210.7847,-82.9801 217.7727,-83.3888"/>
<text text-anchor="middle" x="206.7114" y="-96.3869" font-family="Times,serif" font-size="14.00" fill="#000000">a,b</text>
</g>
<!-- q1&#45;&gt;q2 -->
<g id="edge3" class="edge">
<title>q1&#45;&gt;q2</title>
<path fill="none" stroke="#000000" d="M139.8702,-49.4935C149.379,-49.4935 160.9131,-49.4935 171.7044,-49.4935"/>
<polygon fill="#000000" stroke="#000000" points="171.7329,-52.9936 181.7328,-49.4935 171.7328,-45.9936 171.7329,-52.9936"/>
<text text-anchor="middle" x="160.9106" y="-53.6935" font-family="Times,serif" font-size="14.00" fill="#000000">c</text>
</g>
<!-- q1&#45;&gt;q1 -->
<g id="edge2" class="edge">
<title>q1&#45;&gt;q1</title>
<path fill="none" stroke="#000000" d="M112.1953,-69.402C111.2386,-79.3307 113.5434,-88.1869 119.1098,-88.1869 122.5889,-88.1869 124.7938,-84.7274 125.7247,-79.7089"/>
<polygon fill="#000000" stroke="#000000" points="129.2322,-79.4995 126.0244,-69.402 122.2351,-79.296 129.2322,-79.4995"/>
<text text-anchor="middle" x="119.1098" y="-92.3869" font-family="Times,serif" font-size="14.00" fill="#000000">a,b</text>
</g>
</g>
</svg>
