<?xml version="1.0" encoding="UTF-8" standalone="no"?>
<!DOCTYPE svg PUBLIC "-//W3C//DTD SVG 1.1//EN"
 "http://www.w3.org/Graphics/SVG/1.1/DTD/svg11.dtd">
<!-- Generated by graphviz version 2.40.1 (20161225.0304)
 -->
<!-- Title: %59 Pages: 1 -->
<svg width="247pt" height="155pt"
 viewBox="0.00 0.00 246.82 155.19" xmlns="http://www.w3.org/2000/svg" xmlns:xlink="http://www.w3.org/1999/xlink">
<g id="graph0" class="graph" transform="scale(1 1) rotate(0) translate(4 151.1869)">
<title>%59</title>
<polygon fill="#ffffff" stroke="transparent" points="-4,4 -4,-151.1869 242.8212,-151.1869 242.8212,4 -4,4"/>
<text text-anchor="middle" x="119.4106" y="-8.2" font-family="Times,serif" font-size="14.00" fill="#000000">Автомат 1.3. (ответ)</text>
<g id="node1" class="node">
<title></title>
</g>
<!-- q1 -->
<g id="node4" class="node">
<title>q1</title>
<ellipse fill="none" stroke="#000000" cx="118.7171" cy="-86.4935" rx="20.8887" ry="20.8887"/>
<text text-anchor="middle" x="118.7171" y="-82.2935" font-family="Times,serif" font-size="14.00" fill="#000000">q1</text>
</g>
<!-- &#45;&gt;q1 -->
<g id="edge1" class="edge">
<title>&#45;&gt;q1</title>
<path fill="none" stroke="#000000" d="M61.2874,-86.4935C69.7445,-86.4935 79.1249,-86.4935 87.811,-86.4935"/>
<polygon fill="#000000" stroke="#000000" points="87.9531,-89.9936 97.9531,-86.4935 87.953,-82.9936 87.9531,-89.9936"/>
</g>
<!-- q2 -->
<g id="node2" class="node">
<title>q2</title>
<ellipse fill="none" stroke="#000000" cx="207.1041" cy="-122.4935" rx="20.8568" ry="20.8568"/>
<ellipse fill="none" stroke="#000000" cx="207.1041" cy="-122.4935" rx="24.8884" ry="24.8884"/>
<text text-anchor="middle" x="207.1041" y="-118.2935" font-family="Times,serif" font-size="14.00" fill="#000000">q2</text>
</g>
<!-- q2&#45;&gt;q1 -->
<g id="edge4" class="edge">
<title>q2&#45;&gt;q1</title>
<path fill="none" stroke="#000000" d="M184.6024,-112.3093C178.1164,-109.4488 171.0094,-106.386 164.4106,-103.6935 159.1131,-101.5319 153.4325,-99.3145 147.9391,-97.2209"/>
<polygon fill="#000000" stroke="#000000" points="148.9683,-93.8687 138.3763,-93.625 146.5045,-100.4208 148.9683,-93.8687"/>
<text text-anchor="middle" x="160.9106" y="-107.6935" font-family="Times,serif" font-size="14.00" fill="#000000">b</text>
</g>
<!-- q3 -->
<g id="node3" class="node">
<title>q3</title>
<ellipse fill="none" stroke="#000000" cx="207.1041" cy="-49.4935" rx="20.8568" ry="20.8568"/>
<ellipse fill="none" stroke="#000000" cx="207.1041" cy="-49.4935" rx="24.8884" ry="24.8884"/>
<text text-anchor="middle" x="207.1041" y="-45.2935" font-family="Times,serif" font-size="14.00" fill="#000000">q3</text>
</g>
<!-- q3&#45;&gt;q1 -->
<g id="edge5" class="edge">
<title>q3&#45;&gt;q1</title>
<path fill="none" stroke="#000000" d="M182.8647,-44.5963C174.5246,-43.9443 165.3044,-44.4174 157.4106,-47.6935 150.0409,-50.752 143.3467,-55.9714 137.6766,-61.6074"/>
<polygon fill="#000000" stroke="#000000" points="134.7436,-59.631 130.6121,-69.3872 139.9258,-64.3369 134.7436,-59.631"/>
<text text-anchor="middle" x="160.9106" y="-52.6935" font-family="Times,serif" font-size="14.00" fill="#000000">a</text>
</g>
<!-- q1&#45;&gt;q2 -->
<g id="edge2" class="edge">
<title>q1&#45;&gt;q2</title>
<path fill="none" stroke="#000000" d="M131.0208,-103.6516C137.7971,-111.6001 146.9527,-120.2169 157.4106,-124.4935 162.232,-126.465 167.5407,-127.3963 172.8392,-127.6681"/>
<polygon fill="#000000" stroke="#000000" points="172.9532,-131.1667 182.8852,-127.4782 172.8208,-124.1679 172.9532,-131.1667"/>
<text text-anchor="middle" x="160.9106" y="-129.6935" font-family="Times,serif" font-size="14.00" fill="#000000">a</text>
</g>
<!-- q1&#45;&gt;q3 -->
<g id="edge3" class="edge">
<title>q1&#45;&gt;q3</title>
<path fill="none" stroke="#000000" d="M137.8958,-78.465C148.6325,-73.9705 162.3064,-68.2464 174.6596,-63.0752"/>
<polygon fill="#000000" stroke="#000000" points="176.3293,-66.1706 184.2021,-59.0805 173.6262,-59.7135 176.3293,-66.1706"/>
<text text-anchor="middle" x="160.9106" y="-74.6935" font-family="Times,serif" font-size="14.00" fill="#000000">b</text>
</g>
</g>
</svg>
