<?xml version="1.0" encoding="UTF-8" standalone="no"?>
<!DOCTYPE svg PUBLIC "-//W3C//DTD SVG 1.1//EN"
 "http://www.w3.org/Graphics/SVG/1.1/DTD/svg11.dtd">
<!-- Generated by graphviz version 2.40.1 (20161225.0304)
 -->
<!-- Title: %13 Pages: 1 -->
<svg width="531pt" height="355pt"
 viewBox="0.00 0.00 530.91 355.02" xmlns="http://www.w3.org/2000/svg" xmlns:xlink="http://www.w3.org/1999/xlink">
<g id="graph0" class="graph" transform="scale(1 1) rotate(0) translate(4 351.0154)">
<title>%13</title>
<polygon fill="#ffffff" stroke="transparent" points="-4,4 -4,-351.0154 526.9054,-351.0154 526.9054,4 -4,4"/>
<text text-anchor="middle" x="261.4527" y="-8.2" font-family="Times,serif" font-size="14.00" fill="#000000">Автомат 1.2. (ответ)</text>
<g id="node1" class="node">
<title></title>
</g>
<!-- q1 -->
<g id="node7" class="node">
<title>q1</title>
<ellipse fill="none" stroke="#000000" cx="111.6935" cy="-193.3219" rx="20.8887" ry="20.8887"/>
<text text-anchor="middle" x="111.6935" y="-189.1219" font-family="Times,serif" font-size="14.00" fill="#000000">q1</text>
</g>
<!-- &#45;&gt;q1 -->
<g id="edge1" class="edge">
<title>&#45;&gt;q1</title>
<path fill="none" stroke="#000000" d="M54.2637,-193.3219C62.7209,-193.3219 72.1012,-193.3219 80.7873,-193.3219"/>
<polygon fill="#000000" stroke="#000000" points="80.9294,-196.822 90.9294,-193.3219 80.9293,-189.822 80.9294,-196.822"/>
</g>
<!-- q5 -->
<g id="node2" class="node">
<title>q5</title>
<ellipse fill="none" stroke="#000000" cx="493.3834" cy="-229.3219" rx="20.8568" ry="20.8568"/>
<ellipse fill="none" stroke="#000000" cx="493.3834" cy="-229.3219" rx="24.8884" ry="24.8884"/>
<text text-anchor="middle" x="493.3834" y="-225.1219" font-family="Times,serif" font-size="14.00" fill="#000000">q5</text>
</g>
<!-- q5&#45;&gt;q5 -->
<g id="edge6" class="edge">
<title>q5&#45;&gt;q5</title>
<path fill="none" stroke="#000000" d="M484.1549,-252.5969C483.276,-263.0097 486.3522,-272.0154 493.3834,-272.0154 497.8878,-272.0154 500.7691,-268.3195 502.0271,-262.9254"/>
<polygon fill="#000000" stroke="#000000" points="505.5409,-262.7788 502.612,-252.5969 498.5521,-262.3831 505.5409,-262.7788"/>
<text text-anchor="middle" x="493.3834" y="-276.2154" font-family="Times,serif" font-size="14.00" fill="#000000">b</text>
</g>
<!-- q7 -->
<g id="node3" class="node">
<title>q7</title>
<ellipse fill="none" stroke="#000000" cx="391.3396" cy="-229.3219" rx="20.8568" ry="20.8568"/>
<ellipse fill="none" stroke="#000000" cx="391.3396" cy="-229.3219" rx="24.8884" ry="24.8884"/>
<text text-anchor="middle" x="391.3396" y="-225.1219" font-family="Times,serif" font-size="14.00" fill="#000000">q7</text>
</g>
<!-- q7&#45;&gt;q5 -->
<g id="edge11" class="edge">
<title>q7&#45;&gt;q5</title>
<path fill="none" stroke="#000000" d="M416.0416,-229.3219C428.7325,-229.3219 444.4151,-229.3219 458.334,-229.3219"/>
<polygon fill="#000000" stroke="#000000" points="458.5553,-232.822 468.5553,-229.3219 458.5552,-225.822 458.5553,-232.822"/>
<text text-anchor="middle" x="442.3615" y="-233.5219" font-family="Times,serif" font-size="14.00" fill="#000000">a</text>
</g>
<!-- q7&#45;&gt;q7 -->
<g id="edge10" class="edge">
<title>q7&#45;&gt;q7</title>
<path fill="none" stroke="#000000" d="M382.1111,-252.5969C381.2322,-263.0097 384.3083,-272.0154 391.3396,-272.0154 395.844,-272.0154 398.7252,-268.3195 399.9833,-262.9254"/>
<polygon fill="#000000" stroke="#000000" points="403.4971,-262.7788 400.5681,-252.5969 396.5083,-262.3831 403.4971,-262.7788"/>
<text text-anchor="middle" x="391.3396" y="-276.2154" font-family="Times,serif" font-size="14.00" fill="#000000">b</text>
</g>
<!-- q11 -->
<g id="node4" class="node">
<title>q11</title>
<ellipse fill="none" stroke="#000000" cx="289.2957" cy="-56.3219" rx="25.5409" ry="25.5409"/>
<ellipse fill="none" stroke="#000000" cx="289.2957" cy="-56.3219" rx="29.5439" ry="29.5439"/>
<text text-anchor="middle" x="289.2957" y="-52.1219" font-family="Times,serif" font-size="14.00" fill="#000000">q11</text>
</g>
<!-- q11&#45;&gt;q11 -->
<g id="edge20" class="edge">
<title>q11&#45;&gt;q11</title>
<path fill="none" stroke="#000000" d="M279.9413,-84.6184C279.6346,-95.1636 282.7528,-103.8439 289.2957,-103.8439 293.4873,-103.8439 296.2734,-100.2815 297.6538,-94.9486"/>
<polygon fill="#000000" stroke="#000000" points="301.1739,-94.9083 298.6501,-84.6184 294.2062,-94.2362 301.1739,-94.9083"/>
<text text-anchor="middle" x="289.2957" y="-108.0439" font-family="Times,serif" font-size="14.00" fill="#000000">b</text>
</g>
<!-- q12 -->
<g id="node5" class="node">
<title>q12</title>
<ellipse fill="none" stroke="#000000" cx="391.3396" cy="-54.3219" rx="25.5409" ry="25.5409"/>
<ellipse fill="none" stroke="#000000" cx="391.3396" cy="-54.3219" rx="29.5439" ry="29.5439"/>
<text text-anchor="middle" x="391.3396" y="-50.1219" font-family="Times,serif" font-size="14.00" fill="#000000">q12</text>
</g>
<!-- q11&#45;&gt;q12 -->
<g id="edge17" class="edge">
<title>q11&#45;&gt;q12</title>
<path fill="none" stroke="#000000" d="M319.0854,-55.7381C329.2496,-55.5389 340.7822,-55.3128 351.602,-55.1008"/>
<polygon fill="#000000" stroke="#000000" points="351.7599,-58.5984 361.6893,-54.9031 351.6226,-51.5998 351.7599,-58.5984"/>
<text text-anchor="middle" x="340.3177" y="-60.5219" font-family="Times,serif" font-size="14.00" fill="#000000">a</text>
</g>
<!-- q12&#45;&gt;q12 -->
<g id="edge21" class="edge">
<title>q12&#45;&gt;q12</title>
<path fill="none" stroke="#000000" d="M381.9852,-82.6184C381.6785,-93.1636 384.7966,-101.8439 391.3396,-101.8439 395.5312,-101.8439 398.3172,-98.2815 399.6977,-92.9486"/>
<polygon fill="#000000" stroke="#000000" points="403.2177,-92.9083 400.694,-82.6184 396.2501,-92.2362 403.2177,-92.9083"/>
<text text-anchor="middle" x="391.3396" y="-106.0439" font-family="Times,serif" font-size="14.00" fill="#000000">b</text>
</g>
<!-- q13 -->
<g id="node6" class="node">
<title>q13</title>
<ellipse fill="none" stroke="#000000" cx="493.3834" cy="-54.3219" rx="25.5409" ry="25.5409"/>
<ellipse fill="none" stroke="#000000" cx="493.3834" cy="-54.3219" rx="29.5439" ry="29.5439"/>
<text text-anchor="middle" x="493.3834" y="-50.1219" font-family="Times,serif" font-size="14.00" fill="#000000">q13</text>
</g>
<!-- q12&#45;&gt;q13 -->
<g id="edge18" class="edge">
<title>q12&#45;&gt;q13</title>
<path fill="none" stroke="#000000" d="M421.1292,-54.3219C431.2935,-54.3219 442.826,-54.3219 453.6459,-54.3219"/>
<polygon fill="#000000" stroke="#000000" points="453.7332,-57.822 463.7332,-54.3219 453.7332,-50.822 453.7332,-57.822"/>
<text text-anchor="middle" x="442.3615" y="-58.5219" font-family="Times,serif" font-size="14.00" fill="#000000">a</text>
</g>
<!-- q13&#45;&gt;q13 -->
<g id="edge22" class="edge">
<title>q13&#45;&gt;q13</title>
<path fill="none" stroke="#000000" d="M484.029,-82.6184C483.7223,-93.1636 486.8405,-101.8439 493.3834,-101.8439 497.575,-101.8439 500.3611,-98.2815 501.7415,-92.9486"/>
<polygon fill="#000000" stroke="#000000" points="505.2616,-92.9083 502.7378,-82.6184 498.2939,-92.2362 505.2616,-92.9083"/>
<text text-anchor="middle" x="493.3834" y="-106.0439" font-family="Times,serif" font-size="14.00" fill="#000000">b</text>
</g>
<!-- q2 -->
<g id="node8" class="node">
<title>q2</title>
<ellipse fill="none" stroke="#000000" cx="196.0804" cy="-241.3219" rx="20.8887" ry="20.8887"/>
<text text-anchor="middle" x="196.0804" y="-237.1219" font-family="Times,serif" font-size="14.00" fill="#000000">q2</text>
</g>
<!-- q1&#45;&gt;q2 -->
<g id="edge2" class="edge">
<title>q1&#45;&gt;q2</title>
<path fill="none" stroke="#000000" d="M130.0042,-203.7372C141.3941,-210.2159 156.2462,-218.6639 168.9838,-225.9092"/>
<polygon fill="#000000" stroke="#000000" points="167.3827,-229.025 177.8054,-230.927 170.8436,-222.9404 167.3827,-229.025"/>
<text text-anchor="middle" x="153.8869" y="-222.5219" font-family="Times,serif" font-size="14.00" fill="#000000">a</text>
</g>
<!-- q8 -->
<g id="node12" class="node">
<title>q8</title>
<ellipse fill="none" stroke="#000000" cx="196.0804" cy="-159.3219" rx="20.8887" ry="20.8887"/>
<text text-anchor="middle" x="196.0804" y="-155.1219" font-family="Times,serif" font-size="14.00" fill="#000000">q8</text>
</g>
<!-- q1&#45;&gt;q8 -->
<g id="edge12" class="edge">
<title>q1&#45;&gt;q8</title>
<path fill="none" stroke="#000000" d="M131.2656,-185.4362C141.9163,-181.1449 155.2973,-175.7537 167.1314,-170.9856"/>
<polygon fill="#000000" stroke="#000000" points="168.6469,-174.1485 176.6143,-167.1649 166.0309,-167.6557 168.6469,-174.1485"/>
<text text-anchor="middle" x="153.8869" y="-182.5219" font-family="Times,serif" font-size="14.00" fill="#000000">b</text>
</g>
<!-- q3 -->
<g id="node9" class="node">
<title>q3</title>
<ellipse fill="none" stroke="#000000" cx="289.2957" cy="-313.3219" rx="20.8887" ry="20.8887"/>
<text text-anchor="middle" x="289.2957" y="-309.1219" font-family="Times,serif" font-size="14.00" fill="#000000">q3</text>
</g>
<!-- q2&#45;&gt;q3 -->
<g id="edge3" class="edge">
<title>q2&#45;&gt;q3</title>
<path fill="none" stroke="#000000" d="M212.7454,-254.1941C227.1939,-265.3541 248.2999,-281.6565 264.6925,-294.3183"/>
<polygon fill="#000000" stroke="#000000" points="262.7213,-297.2182 272.775,-300.5612 267.0004,-291.6784 262.7213,-297.2182"/>
<text text-anchor="middle" x="238.2738" y="-278.5219" font-family="Times,serif" font-size="14.00" fill="#000000">a</text>
</g>
<!-- q6 -->
<g id="node11" class="node">
<title>q6</title>
<ellipse fill="none" stroke="#000000" cx="289.2957" cy="-241.3219" rx="20.8887" ry="20.8887"/>
<text text-anchor="middle" x="289.2957" y="-237.1219" font-family="Times,serif" font-size="14.00" fill="#000000">q6</text>
</g>
<!-- q2&#45;&gt;q6 -->
<g id="edge7" class="edge">
<title>q2&#45;&gt;q6</title>
<path fill="none" stroke="#000000" d="M217.2324,-241.3219C229.3545,-241.3219 244.7906,-241.3219 258.2644,-241.3219"/>
<polygon fill="#000000" stroke="#000000" points="258.5486,-244.822 268.5485,-241.3219 258.5485,-237.822 258.5486,-244.822"/>
<text text-anchor="middle" x="238.2738" y="-245.5219" font-family="Times,serif" font-size="14.00" fill="#000000">b</text>
</g>
<!-- q4 -->
<g id="node10" class="node">
<title>q4</title>
<ellipse fill="none" stroke="#000000" cx="391.3396" cy="-326.3219" rx="20.8887" ry="20.8887"/>
<text text-anchor="middle" x="391.3396" y="-322.1219" font-family="Times,serif" font-size="14.00" fill="#000000">q4</text>
</g>
<!-- q3&#45;&gt;q4 -->
<g id="edge4" class="edge">
<title>q3&#45;&gt;q4</title>
<path fill="none" stroke="#000000" d="M309.9458,-315.9527C324.4688,-317.8028 344.1535,-320.3106 360.5265,-322.3965"/>
<polygon fill="#000000" stroke="#000000" points="360.358,-325.9032 370.7202,-323.6951 361.2427,-318.9593 360.358,-325.9032"/>
<text text-anchor="middle" x="340.3177" y="-323.5219" font-family="Times,serif" font-size="14.00" fill="#000000">b</text>
</g>
<!-- q4&#45;&gt;q5 -->
<g id="edge5" class="edge">
<title>q4&#45;&gt;q5</title>
<path fill="none" stroke="#000000" d="M406.3965,-312.0092C422.5477,-296.6564 448.4818,-272.0041 467.8368,-253.6059"/>
<polygon fill="#000000" stroke="#000000" points="470.3219,-256.0726 475.1584,-246.6461 465.4991,-250.999 470.3219,-256.0726"/>
<text text-anchor="middle" x="442.3615" y="-284.5219" font-family="Times,serif" font-size="14.00" fill="#000000">b</text>
</g>
<!-- q6&#45;&gt;q7 -->
<g id="edge9" class="edge">
<title>q6&#45;&gt;q7</title>
<path fill="none" stroke="#000000" d="M309.9458,-238.8935C323.2895,-237.3244 340.9906,-235.2428 356.4769,-233.4217"/>
<polygon fill="#000000" stroke="#000000" points="357.2409,-236.856 366.7636,-232.212 356.4233,-229.9039 357.2409,-236.856"/>
<text text-anchor="middle" x="340.3177" y="-239.5219" font-family="Times,serif" font-size="14.00" fill="#000000">b</text>
</g>
<!-- q6&#45;&gt;q4 -->
<g id="edge8" class="edge">
<title>q6&#45;&gt;q4</title>
<path fill="none" stroke="#000000" d="M305.2401,-254.6032C321.9163,-268.494 348.2822,-290.4562 367.4471,-306.42"/>
<polygon fill="#000000" stroke="#000000" points="365.2468,-309.1424 375.1704,-312.8534 369.7269,-303.7639 365.2468,-309.1424"/>
<text text-anchor="middle" x="340.3177" y="-290.5219" font-family="Times,serif" font-size="14.00" fill="#000000">a</text>
</g>
<!-- q8&#45;&gt;q11 -->
<g id="edge16" class="edge">
<title>q8&#45;&gt;q11</title>
<path fill="none" stroke="#000000" d="M210.2378,-143.6784C224.1145,-128.3451 245.6102,-104.5931 262.6863,-85.7245"/>
<polygon fill="#000000" stroke="#000000" points="265.3461,-88.0015 269.4612,-78.2384 260.156,-83.3044 265.3461,-88.0015"/>
<text text-anchor="middle" x="238.2738" y="-118.5219" font-family="Times,serif" font-size="14.00" fill="#000000">b</text>
</g>
<!-- q9 -->
<g id="node13" class="node">
<title>q9</title>
<ellipse fill="none" stroke="#000000" cx="289.2957" cy="-159.3219" rx="20.8887" ry="20.8887"/>
<text text-anchor="middle" x="289.2957" y="-155.1219" font-family="Times,serif" font-size="14.00" fill="#000000">q9</text>
</g>
<!-- q8&#45;&gt;q9 -->
<g id="edge13" class="edge">
<title>q8&#45;&gt;q9</title>
<path fill="none" stroke="#000000" d="M217.2324,-159.3219C229.3545,-159.3219 244.7906,-159.3219 258.2644,-159.3219"/>
<polygon fill="#000000" stroke="#000000" points="258.5486,-162.822 268.5485,-159.3219 258.5485,-155.822 258.5486,-162.822"/>
<text text-anchor="middle" x="238.2738" y="-163.5219" font-family="Times,serif" font-size="14.00" fill="#000000">a</text>
</g>
<!-- q9&#45;&gt;q12 -->
<g id="edge19" class="edge">
<title>q9&#45;&gt;q12</title>
<path fill="none" stroke="#000000" d="M304.0376,-144.3929C308.767,-139.5897 314.0213,-134.2388 318.8177,-129.3219 333.6509,-114.1158 350.1141,-97.1012 363.6006,-83.1267"/>
<polygon fill="#000000" stroke="#000000" points="366.3344,-85.334 370.7576,-75.7066 361.2961,-80.4743 366.3344,-85.334"/>
<text text-anchor="middle" x="340.3177" y="-113.5219" font-family="Times,serif" font-size="14.00" fill="#000000">b</text>
</g>
<!-- q10 -->
<g id="node14" class="node">
<title>q10</title>
<ellipse fill="none" stroke="#000000" cx="391.3396" cy="-161.3219" rx="25.5439" ry="25.5439"/>
<text text-anchor="middle" x="391.3396" y="-157.1219" font-family="Times,serif" font-size="14.00" fill="#000000">q10</text>
</g>
<!-- q9&#45;&gt;q10 -->
<g id="edge14" class="edge">
<title>q9&#45;&gt;q10</title>
<path fill="none" stroke="#000000" d="M310.4393,-159.7363C323.4356,-159.991 340.4252,-160.324 355.4784,-160.6191"/>
<polygon fill="#000000" stroke="#000000" points="355.4508,-164.1191 365.5175,-160.8158 355.588,-157.1204 355.4508,-164.1191"/>
<text text-anchor="middle" x="340.3177" y="-165.5219" font-family="Times,serif" font-size="14.00" fill="#000000">a</text>
</g>
<!-- q10&#45;&gt;q5 -->
<g id="edge15" class="edge">
<title>q10&#45;&gt;q5</title>
<path fill="none" stroke="#000000" d="M412.9805,-175.743C427.888,-185.6771 447.8719,-198.9939 464.1869,-209.8659"/>
<polygon fill="#000000" stroke="#000000" points="462.5553,-212.9845 472.8178,-215.6174 466.437,-207.1594 462.5553,-212.9845"/>
<text text-anchor="middle" x="442.3615" y="-202.5219" font-family="Times,serif" font-size="14.00" fill="#000000">b</text>
</g>
</g>
</svg>
