<?xml version="1.0" encoding="UTF-8" standalone="no"?>
<!DOCTYPE svg PUBLIC "-//W3C//DTD SVG 1.1//EN"
 "http://www.w3.org/Graphics/SVG/1.1/DTD/svg11.dtd">
<!-- Generated by graphviz version 2.40.1 (20161225.0304)
 -->
<!-- Title: %327 Pages: 1 -->
<svg width="602pt" height="270pt"
 viewBox="0.00 0.00 601.54 269.60" xmlns="http://www.w3.org/2000/svg" xmlns:xlink="http://www.w3.org/1999/xlink">
<g id="graph0" class="graph" transform="scale(1 1) rotate(0) translate(4 265.6)">
<title>%327</title>
<polygon fill="#ffffff" stroke="transparent" points="-4,4 -4,-265.6 597.536,-265.6 597.536,4 -4,4"/>
<text text-anchor="middle" x="296.768" y="-8.2" font-family="Times,serif" font-size="14.00" fill="#000000">Автомат 2.5.2.</text>
<g id="node1" class="node">
<title></title>
</g>
<!-- g1 -->
<g id="node7" class="node">
<title>g1</title>
<ellipse fill="none" stroke="#000000" cx="111.6935" cy="-169.8" rx="20.8887" ry="20.8887"/>
<text text-anchor="middle" x="111.6935" y="-165.6" font-family="Times,serif" font-size="14.00" fill="#000000">g1</text>
</g>
<!-- &#45;&gt;g1 -->
<g id="edge1" class="edge">
<title>&#45;&gt;g1</title>
<path fill="none" stroke="#000000" d="M54.2637,-169.8C62.7209,-169.8 72.1012,-169.8 80.7873,-169.8"/>
<polygon fill="#000000" stroke="#000000" points="80.9294,-173.3001 90.9294,-169.8 80.9293,-166.3001 80.9294,-173.3001"/>
</g>
<!-- g2 -->
<g id="node2" class="node">
<title>g2</title>
<ellipse fill="none" stroke="#000000" cx="200.0804" cy="-82.8" rx="20.8568" ry="20.8568"/>
<ellipse fill="none" stroke="#000000" cx="200.0804" cy="-82.8" rx="24.8884" ry="24.8884"/>
<text text-anchor="middle" x="200.0804" y="-78.6" font-family="Times,serif" font-size="14.00" fill="#000000">g2</text>
</g>
<!-- g3 -->
<g id="node3" class="node">
<title>g3</title>
<ellipse fill="none" stroke="#000000" cx="292.4673" cy="-130.8" rx="20.8568" ry="20.8568"/>
<ellipse fill="none" stroke="#000000" cx="292.4673" cy="-130.8" rx="24.8884" ry="24.8884"/>
<text text-anchor="middle" x="292.4673" y="-126.6" font-family="Times,serif" font-size="14.00" fill="#000000">g3</text>
</g>
<!-- g2&#45;&gt;g3 -->
<g id="edge5" class="edge">
<title>g2&#45;&gt;g3</title>
<path fill="none" stroke="#000000" d="M222.4447,-94.4195C234.1332,-100.4923 248.6247,-108.0214 261.3867,-114.652"/>
<polygon fill="#000000" stroke="#000000" points="259.8215,-117.7829 270.3089,-119.2875 263.0488,-111.5712 259.8215,-117.7829"/>
<text text-anchor="middle" x="246.2738" y="-113" font-family="Times,serif" font-size="14.00" fill="#000000">b</text>
</g>
<!-- g5 -->
<g id="node5" class="node">
<title>g5</title>
<ellipse fill="none" stroke="#000000" cx="568.8426" cy="-100.8" rx="20.8568" ry="20.8568"/>
<ellipse fill="none" stroke="#000000" cx="568.8426" cy="-100.8" rx="24.8884" ry="24.8884"/>
<text text-anchor="middle" x="568.8426" y="-96.6" font-family="Times,serif" font-size="14.00" fill="#000000">g5</text>
</g>
<!-- g2&#45;&gt;g5 -->
<g id="edge4" class="edge">
<title>g2&#45;&gt;g5</title>
<path fill="none" stroke="#000000" d="M224.7647,-80.7374C243.3619,-79.3601 269.4974,-77.8 292.4673,-77.8 292.4673,-77.8 292.4673,-77.8 476.4557,-77.8 496.6288,-77.8 518.5653,-83.0276 535.9987,-88.4983"/>
<polygon fill="#000000" stroke="#000000" points="535.1022,-91.8883 545.6956,-91.7098 537.303,-85.2432 535.1022,-91.8883"/>
<text text-anchor="middle" x="384.0688" y="-82" font-family="Times,serif" font-size="14.00" fill="#000000">a</text>
</g>
<!-- g6 -->
<g id="node6" class="node">
<title>g6</title>
<ellipse fill="none" stroke="#000000" cx="384.0688" cy="-137.8" rx="20.8568" ry="20.8568"/>
<ellipse fill="none" stroke="#000000" cx="384.0688" cy="-137.8" rx="24.8884" ry="24.8884"/>
<text text-anchor="middle" x="384.0688" y="-133.6" font-family="Times,serif" font-size="14.00" fill="#000000">g6</text>
</g>
<!-- g3&#45;&gt;g6 -->
<g id="edge6" class="edge">
<title>g3&#45;&gt;g6</title>
<path fill="none" stroke="#000000" d="M317.4978,-132.7128C327.2711,-133.4596 338.6452,-134.3288 349.1973,-135.1352"/>
<polygon fill="#000000" stroke="#000000" points="349.148,-138.6415 359.3857,-135.9138 349.6815,-131.6619 349.148,-138.6415"/>
<text text-anchor="middle" x="338.268" y="-139" font-family="Times,serif" font-size="14.00" fill="#000000">a</text>
</g>
<!-- g3&#45;&gt;g1 -->
<g id="edge7" class="edge">
<title>g3&#45;&gt;g1</title>
<path fill="none" stroke="#000000" d="M268.1394,-136.0485C235.4367,-143.1037 177.3192,-155.642 141.8685,-163.2901"/>
<polygon fill="#000000" stroke="#000000" points="141.1161,-159.8718 132.0791,-165.402 142.5923,-166.7144 141.1161,-159.8718"/>
<text text-anchor="middle" x="200.0804" y="-159" font-family="Times,serif" font-size="14.00" fill="#000000">b</text>
</g>
<!-- g4 -->
<g id="node4" class="node">
<title>g4</title>
<ellipse fill="none" stroke="#000000" cx="476.4557" cy="-187.8" rx="20.8568" ry="20.8568"/>
<ellipse fill="none" stroke="#000000" cx="476.4557" cy="-187.8" rx="24.8884" ry="24.8884"/>
<text text-anchor="middle" x="476.4557" y="-183.6" font-family="Times,serif" font-size="14.00" fill="#000000">g4</text>
</g>
<!-- g4&#45;&gt;g5 -->
<g id="edge9" class="edge">
<title>g4&#45;&gt;g5</title>
<path fill="none" stroke="#000000" d="M494.7084,-170.6116C508.5008,-157.6233 527.6166,-139.6221 542.9824,-125.1523"/>
<polygon fill="#000000" stroke="#000000" points="545.7471,-127.3564 550.6278,-117.9527 540.9482,-122.2603 545.7471,-127.3564"/>
<text text-anchor="middle" x="522.6491" y="-151" font-family="Times,serif" font-size="14.00" fill="#000000">b</text>
</g>
<!-- g4&#45;&gt;g1 -->
<g id="edge8" class="edge">
<title>g4&#45;&gt;g1</title>
<path fill="none" stroke="#000000" d="M451.7643,-189.45C433.1634,-190.5519 407.0266,-191.8 384.0688,-191.8 200.0804,-191.8 200.0804,-191.8 200.0804,-191.8 179.9137,-191.8 157.9046,-186.3402 140.8937,-180.8604"/>
<polygon fill="#000000" stroke="#000000" points="141.6034,-177.4048 131.009,-177.4945 139.347,-184.0312 141.6034,-177.4048"/>
<text text-anchor="middle" x="292.4673" y="-196" font-family="Times,serif" font-size="14.00" fill="#000000">a</text>
</g>
<!-- g5&#45;&gt;g2 -->
<g id="edge10" class="edge">
<title>g5&#45;&gt;g2</title>
<path fill="none" stroke="#000000" d="M555.6841,-79.6298C539.8876,-57.142 511.1401,-24.8 476.4557,-24.8 292.4673,-24.8 292.4673,-24.8 292.4673,-24.8 266.3547,-24.8 241.5699,-41.6255 224.2576,-57.1519"/>
<polygon fill="#000000" stroke="#000000" points="221.7301,-54.7245 216.8513,-64.1292 226.5301,-59.8197 221.7301,-54.7245"/>
<text text-anchor="middle" x="384.0688" y="-29" font-family="Times,serif" font-size="14.00" fill="#000000">a</text>
</g>
<!-- g5&#45;&gt;g6 -->
<g id="edge11" class="edge">
<title>g5&#45;&gt;g6</title>
<path fill="none" stroke="#000000" d="M544.4989,-105.6747C512.3424,-112.1139 455.5055,-123.4952 418.8329,-130.8387"/>
<polygon fill="#000000" stroke="#000000" points="417.7234,-127.4913 408.6053,-132.8867 419.0979,-134.355 417.7234,-127.4913"/>
<text text-anchor="middle" x="476.4557" y="-129" font-family="Times,serif" font-size="14.00" fill="#000000">b</text>
</g>
<!-- g6&#45;&gt;g3 -->
<g id="edge12" class="edge">
<title>g6&#45;&gt;g3</title>
<path fill="none" stroke="#000000" d="M363.6916,-123.6807C356.9026,-119.7484 349.0956,-116.0065 341.3753,-114 335.4748,-112.4664 329.2633,-112.9285 323.321,-114.4355"/>
<polygon fill="#000000" stroke="#000000" points="321.9721,-111.1989 313.6771,-117.7901 324.2719,-117.8103 321.9721,-111.1989"/>
<text text-anchor="middle" x="338.268" y="-119" font-family="Times,serif" font-size="14.00" fill="#000000">a</text>
</g>
<!-- g6&#45;&gt;g4 -->
<g id="edge13" class="edge">
<title>g6&#45;&gt;g4</title>
<path fill="none" stroke="#000000" d="M406.8732,-147.7292C415.4231,-151.6381 425.1497,-156.3097 433.7622,-161 438.0518,-163.336 442.5002,-165.9273 446.8344,-168.5515"/>
<polygon fill="#000000" stroke="#000000" points="445.1394,-171.6187 455.4828,-173.913 448.8277,-165.6692 445.1394,-171.6187"/>
<text text-anchor="middle" x="430.2622" y="-165" font-family="Times,serif" font-size="14.00" fill="#000000">b</text>
</g>
<!-- g1&#45;&gt;g2 -->
<g id="edge3" class="edge">
<title>g1&#45;&gt;g2</title>
<path fill="none" stroke="#000000" d="M122.0138,-151.6926C129.0599,-140.3209 139.1339,-125.8133 150.3869,-115 155.9927,-109.6133 162.623,-104.5992 169.1834,-100.2076"/>
<polygon fill="#000000" stroke="#000000" points="171.4118,-102.939 177.9833,-94.6284 167.6636,-97.027 171.4118,-102.939"/>
<text text-anchor="middle" x="153.8869" y="-120" font-family="Times,serif" font-size="14.00" fill="#000000">b</text>
</g>
<!-- g1&#45;&gt;g4 -->
<g id="edge2" class="edge">
<title>g1&#45;&gt;g4</title>
<path fill="none" stroke="#000000" d="M122.3111,-187.9554C136.8149,-210.1519 165.0631,-244.8 200.0804,-244.8 200.0804,-244.8 200.0804,-244.8 384.0688,-244.8 410.0548,-244.8 434.8494,-228.2646 452.1976,-213.0059"/>
<polygon fill="#000000" stroke="#000000" points="454.6504,-215.5049 459.6219,-206.1489 449.901,-210.3626 454.6504,-215.5049"/>
<text text-anchor="middle" x="292.4673" y="-249" font-family="Times,serif" font-size="14.00" fill="#000000">a</text>
</g>
</g>
</svg>
