<?xml version="1.0" encoding="UTF-8" standalone="no"?>
<!DOCTYPE svg PUBLIC "-//W3C//DTD SVG 1.1//EN"
 "http://www.w3.org/Graphics/SVG/1.1/DTD/svg11.dtd">
<!-- Generated by graphviz version 2.40.1 (20161225.0304)
 -->
<!-- Title: %235 Pages: 1 -->
<svg width="742pt" height="246pt"
 viewBox="0.00 0.00 741.79 245.60" xmlns="http://www.w3.org/2000/svg" xmlns:xlink="http://www.w3.org/1999/xlink">
<g id="graph0" class="graph" transform="scale(1 1) rotate(0) translate(4 241.6)">
<title>%235</title>
<polygon fill="#ffffff" stroke="transparent" points="-4,4 -4,-241.6 737.7902,-241.6 737.7902,4 -4,4"/>
<text text-anchor="middle" x="366.8951" y="-8.2" font-family="Times,serif" font-size="14.00" fill="#000000">Автомат 2.3. (ответ)</text>
<g id="node1" class="node">
<title></title>
</g>
<!-- q1_p1 -->
<g id="node2" class="node">
<title>q1_p1</title>
<ellipse fill="none" stroke="#000000" cx="130.1789" cy="-158.8" rx="35.3402" ry="35.3402"/>
<ellipse fill="none" stroke="#000000" cx="130.1789" cy="-158.8" rx="39.3586" ry="39.3586"/>
<text text-anchor="middle" x="130.1789" y="-154.6" font-family="Times,serif" font-size="14.00" fill="#000000">q1_p1</text>
</g>
<!-- &#45;&gt;q1_p1 -->
<g id="edge1" class="edge">
<title>&#45;&gt;q1_p1</title>
<path fill="none" stroke="#000000" d="M54.109,-158.8C62.2647,-158.8 71.4829,-158.8 80.6163,-158.8"/>
<polygon fill="#000000" stroke="#000000" points="80.831,-162.3001 90.831,-158.8 80.831,-155.3001 80.831,-162.3001"/>
</g>
<!-- q2_p1 -->
<g id="node3" class="node">
<title>q2_p1</title>
<ellipse fill="none" stroke="#000000" cx="246.7512" cy="-102.8" rx="35.3587" ry="35.3587"/>
<text text-anchor="middle" x="246.7512" y="-98.6" font-family="Times,serif" font-size="14.00" fill="#000000">q2_p1</text>
</g>
<!-- q1_p1&#45;&gt;q2_p1 -->
<g id="edge2" class="edge">
<title>q1_p1&#45;&gt;q2_p1</title>
<path fill="none" stroke="#000000" d="M165.7878,-141.6939C178.3956,-135.6373 192.6804,-128.775 205.7035,-122.5188"/>
<polygon fill="#000000" stroke="#000000" points="207.4231,-125.5757 214.9214,-118.0907 204.3919,-119.266 207.4231,-125.5757"/>
<text text-anchor="middle" x="190.465" y="-135" font-family="Times,serif" font-size="14.00" fill="#000000">a</text>
</g>
<!-- q1_p2 -->
<g id="node4" class="node">
<title>q1_p2</title>
<ellipse fill="none" stroke="#000000" cx="472.6813" cy="-142.8" rx="35.3587" ry="35.3587"/>
<text text-anchor="middle" x="472.6813" y="-138.6" font-family="Times,serif" font-size="14.00" fill="#000000">q1_p2</text>
</g>
<!-- q1_p1&#45;&gt;q1_p2 -->
<g id="edge3" class="edge">
<title>q1_p1&#45;&gt;q1_p2</title>
<path fill="none" stroke="#000000" d="M169.7079,-157.0898C221.5173,-154.8302 315.2148,-150.6814 395.2878,-146.8 405.5683,-146.3017 416.6157,-145.744 427.0536,-145.2069"/>
<polygon fill="#000000" stroke="#000000" points="427.4317,-148.6921 437.2374,-144.6797 427.0698,-141.7015 427.4317,-148.6921"/>
<text text-anchor="middle" x="303.4301" y="-156" font-family="Times,serif" font-size="14.00" fill="#000000">b</text>
</g>
<!-- q2_p1&#45;&gt;q1_p1 -->
<g id="edge8" class="edge">
<title>q2_p1&#45;&gt;q1_p1</title>
<path fill="none" stroke="#000000" d="M211.2943,-102.946C203.1837,-103.9391 194.7732,-105.7746 187.3577,-109 179.3754,-112.472 171.7018,-117.4729 164.71,-122.9814"/>
<polygon fill="#000000" stroke="#000000" points="162.2263,-120.4974 156.8378,-129.6197 166.7389,-125.8488 162.2263,-120.4974"/>
<text text-anchor="middle" x="190.465" y="-114" font-family="Times,serif" font-size="14.00" fill="#000000">a</text>
</g>
<!-- q2_p2 -->
<g id="node5" class="node">
<title>q2_p2</title>
<ellipse fill="none" stroke="#000000" cx="360.1089" cy="-102.8" rx="35.3587" ry="35.3587"/>
<text text-anchor="middle" x="360.1089" y="-98.6" font-family="Times,serif" font-size="14.00" fill="#000000">q2_p2</text>
</g>
<!-- q2_p1&#45;&gt;q2_p2 -->
<g id="edge9" class="edge">
<title>q2_p1&#45;&gt;q2_p2</title>
<path fill="none" stroke="#000000" d="M281.9969,-102.8C292.34,-102.8 303.7997,-102.8 314.6828,-102.8"/>
<polygon fill="#000000" stroke="#000000" points="314.8851,-106.3001 324.885,-102.8 314.885,-99.3001 314.8851,-106.3001"/>
<text text-anchor="middle" x="303.4301" y="-107" font-family="Times,serif" font-size="14.00" fill="#000000">b</text>
</g>
<!-- q1_p2&#45;&gt;q2_p2 -->
<g id="edge4" class="edge">
<title>q1_p2&#45;&gt;q2_p2</title>
<path fill="none" stroke="#000000" d="M446.6203,-118.9576C438.5046,-112.9303 429.1406,-107.2504 419.5024,-104 414.9764,-102.4737 410.1442,-101.4603 405.2647,-100.8243"/>
<polygon fill="#000000" stroke="#000000" points="405.5177,-97.3333 395.2653,-100.0052 404.9461,-104.31 405.5177,-97.3333"/>
<text text-anchor="middle" x="416.3951" y="-109" font-family="Times,serif" font-size="14.00" fill="#000000">a</text>
</g>
<!-- q1_p3 -->
<g id="node6" class="node">
<title>q1_p3</title>
<ellipse fill="none" stroke="#000000" cx="586.039" cy="-142.8" rx="35.3587" ry="35.3587"/>
<text text-anchor="middle" x="586.039" y="-138.6" font-family="Times,serif" font-size="14.00" fill="#000000">q1_p3</text>
</g>
<!-- q1_p2&#45;&gt;q1_p3 -->
<g id="edge5" class="edge">
<title>q1_p2&#45;&gt;q1_p3</title>
<path fill="none" stroke="#000000" d="M507.927,-142.8C518.27,-142.8 529.7298,-142.8 540.6128,-142.8"/>
<polygon fill="#000000" stroke="#000000" points="540.8151,-146.3001 550.8151,-142.8 540.8151,-139.3001 540.8151,-146.3001"/>
<text text-anchor="middle" x="529.3602" y="-147" font-family="Times,serif" font-size="14.00" fill="#000000">b</text>
</g>
<!-- q2_p2&#45;&gt;q1_p2 -->
<g id="edge10" class="edge">
<title>q2_p2&#45;&gt;q1_p2</title>
<path fill="none" stroke="#000000" d="M393.2755,-114.585C404.7387,-118.6582 417.7504,-123.2816 429.8754,-127.5899"/>
<polygon fill="#000000" stroke="#000000" points="428.7681,-130.9108 439.3628,-130.961 431.1118,-124.3148 428.7681,-130.9108"/>
<text text-anchor="middle" x="416.3951" y="-127" font-family="Times,serif" font-size="14.00" fill="#000000">a</text>
</g>
<!-- q2_p3 -->
<g id="node7" class="node">
<title>q2_p3</title>
<ellipse fill="none" stroke="#000000" cx="698.6114" cy="-85.8" rx="35.3587" ry="35.3587"/>
<text text-anchor="middle" x="698.6114" y="-81.6" font-family="Times,serif" font-size="14.00" fill="#000000">q2_p3</text>
</g>
<!-- q2_p2&#45;&gt;q2_p3 -->
<g id="edge11" class="edge">
<title>q2_p2&#45;&gt;q2_p3</title>
<path fill="none" stroke="#000000" d="M395.2834,-100.0069C401.2883,-99.5723 407.4656,-99.1515 413.2878,-98.8 498.0933,-93.6797 597.1884,-89.5901 653.458,-87.445"/>
<polygon fill="#000000" stroke="#000000" points="653.5926,-90.9426 663.4533,-87.0673 653.3283,-83.9475 653.5926,-90.9426"/>
<text text-anchor="middle" x="529.3602" y="-97" font-family="Times,serif" font-size="14.00" fill="#000000">b</text>
</g>
<!-- q1_p3&#45;&gt;q1_p1 -->
<g id="edge7" class="edge">
<title>q1_p3&#45;&gt;q1_p1</title>
<path fill="none" stroke="#000000" d="M563.5044,-170.5195C542.5834,-192.9389 509.2315,-220.8 472.6813,-220.8 246.7512,-220.8 246.7512,-220.8 246.7512,-220.8 218.0155,-220.8 189.4696,-205.9329 167.8183,-190.7592"/>
<polygon fill="#000000" stroke="#000000" points="169.7148,-187.8101 159.5762,-184.7343 165.5838,-193.4613 169.7148,-187.8101"/>
<text text-anchor="middle" x="360.1089" y="-225" font-family="Times,serif" font-size="14.00" fill="#000000">b</text>
</g>
<!-- q1_p3&#45;&gt;q2_p3 -->
<g id="edge6" class="edge">
<title>q1_p3&#45;&gt;q2_p3</title>
<path fill="none" stroke="#000000" d="M613.3409,-120.2134C621.3354,-114.3543 630.3255,-108.4483 639.2179,-104 644.1008,-101.5574 649.3751,-99.3692 654.6951,-97.4302"/>
<polygon fill="#000000" stroke="#000000" points="655.8893,-100.7211 664.2458,-94.208 653.6516,-94.0884 655.8893,-100.7211"/>
<text text-anchor="middle" x="642.3252" y="-109" font-family="Times,serif" font-size="14.00" fill="#000000">a</text>
</g>
<!-- q2_p3&#45;&gt;q2_p1 -->
<g id="edge13" class="edge">
<title>q2_p3&#45;&gt;q2_p1</title>
<path fill="none" stroke="#000000" d="M672.5372,-62.0411C650.983,-44.9134 618.7152,-24.8 586.039,-24.8 360.1089,-24.8 360.1089,-24.8 360.1089,-24.8 327.4136,-24.8 297.2776,-47.094 276.3093,-67.8443"/>
<polygon fill="#000000" stroke="#000000" points="273.7392,-65.4671 269.2858,-75.0805 278.7622,-70.3425 273.7392,-65.4671"/>
<text text-anchor="middle" x="472.6813" y="-29" font-family="Times,serif" font-size="14.00" fill="#000000">b</text>
</g>
<!-- q2_p3&#45;&gt;q1_p3 -->
<g id="edge12" class="edge">
<title>q2_p3&#45;&gt;q1_p3</title>
<path fill="none" stroke="#000000" d="M669.7924,-106.4741C662.0858,-111.5232 653.618,-116.6583 645.4325,-120.8 640.2155,-123.4397 634.6034,-125.9319 628.9854,-128.224"/>
<polygon fill="#000000" stroke="#000000" points="627.6408,-124.9916 619.5939,-131.8834 630.1823,-131.5139 627.6408,-124.9916"/>
<text text-anchor="middle" x="642.3252" y="-128" font-family="Times,serif" font-size="14.00" fill="#000000">a</text>
</g>
</g>
</svg>
