<?xml version="1.0" encoding="UTF-8" standalone="no"?>
<!DOCTYPE svg PUBLIC "-//W3C//DTD SVG 1.1//EN"
 "http://www.w3.org/Graphics/SVG/1.1/DTD/svg11.dtd">
<!-- Generated by graphviz version 2.40.1 (20161225.0304)
 -->
<!-- Title: %89 Pages: 1 -->
<svg width="317pt" height="117pt"
 viewBox="0.00 0.00 317.16 116.99" xmlns="http://www.w3.org/2000/svg" xmlns:xlink="http://www.w3.org/1999/xlink">
<g id="graph0" class="graph" transform="scale(1 1) rotate(0) translate(4 112.9869)">
<title>%89</title>
<polygon fill="#ffffff" stroke="transparent" points="-4,4 -4,-112.9869 313.1607,-112.9869 313.1607,4 -4,4"/>
<text text-anchor="middle" x="154.5804" y="-8.2" font-family="Times,serif" font-size="14.00" fill="#000000">Автомат 2.1.2.</text>
<g id="node1" class="node">
<title></title>
</g>
<!-- p1 -->
<g id="node3" class="node">
<title>p1</title>
<ellipse fill="none" stroke="#000000" cx="111.6935" cy="-49.4935" rx="20.8887" ry="20.8887"/>
<text text-anchor="middle" x="111.6935" y="-45.2935" font-family="Times,serif" font-size="14.00" fill="#000000">p1</text>
</g>
<!-- &#45;&gt;p1 -->
<g id="edge1" class="edge">
<title>&#45;&gt;p1</title>
<path fill="none" stroke="#000000" d="M54.2637,-49.4935C62.7209,-49.4935 72.1012,-49.4935 80.7873,-49.4935"/>
<polygon fill="#000000" stroke="#000000" points="80.9294,-52.9936 90.9294,-49.4935 80.9293,-45.9936 80.9294,-52.9936"/>
</g>
<!-- p3 -->
<g id="node2" class="node">
<title>p3</title>
<ellipse fill="none" stroke="#000000" cx="284.4673" cy="-49.4935" rx="20.8568" ry="20.8568"/>
<ellipse fill="none" stroke="#000000" cx="284.4673" cy="-49.4935" rx="24.8884" ry="24.8884"/>
<text text-anchor="middle" x="284.4673" y="-45.2935" font-family="Times,serif" font-size="14.00" fill="#000000">p3</text>
</g>
<!-- p3&#45;&gt;p3 -->
<g id="edge6" class="edge">
<title>p3&#45;&gt;p3</title>
<path fill="none" stroke="#000000" d="M275.977,-72.7685C275.1684,-83.1813 277.9985,-92.1869 284.4673,-92.1869 288.6113,-92.1869 291.262,-88.491 292.4195,-83.0969"/>
<polygon fill="#000000" stroke="#000000" points="295.9324,-82.937 292.9575,-72.7685 288.9419,-82.5728 295.9324,-82.937"/>
<text text-anchor="middle" x="284.4673" y="-96.3869" font-family="Times,serif" font-size="14.00" fill="#000000">b,a</text>
</g>
<!-- p1&#45;&gt;p1 -->
<g id="edge2" class="edge">
<title>p1&#45;&gt;p1</title>
<path fill="none" stroke="#000000" d="M104.7789,-69.402C103.8222,-79.3307 106.127,-88.1869 111.6935,-88.1869 115.1725,-88.1869 117.3774,-84.7274 118.3083,-79.7089"/>
<polygon fill="#000000" stroke="#000000" points="121.8158,-79.4995 118.608,-69.402 114.8187,-79.296 121.8158,-79.4995"/>
<text text-anchor="middle" x="111.6935" y="-92.3869" font-family="Times,serif" font-size="14.00" fill="#000000">a</text>
</g>
<!-- p2 -->
<g id="node4" class="node">
<title>p2</title>
<ellipse fill="none" stroke="#000000" cx="196.0804" cy="-49.4935" rx="20.8887" ry="20.8887"/>
<text text-anchor="middle" x="196.0804" y="-45.2935" font-family="Times,serif" font-size="14.00" fill="#000000">p2</text>
</g>
<!-- p1&#45;&gt;p2 -->
<g id="edge3" class="edge">
<title>p1&#45;&gt;p2</title>
<path fill="none" stroke="#000000" d="M132.5531,-49.4935C142.2902,-49.4935 154.0843,-49.4935 164.854,-49.4935"/>
<polygon fill="#000000" stroke="#000000" points="165.1682,-52.9935 175.1682,-49.4935 165.1681,-45.9935 165.1682,-52.9935"/>
<text text-anchor="middle" x="153.8869" y="-53.6935" font-family="Times,serif" font-size="14.00" fill="#000000">b</text>
</g>
<!-- p2&#45;&gt;p3 -->
<g id="edge5" class="edge">
<title>p2&#45;&gt;p3</title>
<path fill="none" stroke="#000000" d="M217.0268,-49.4935C226.6983,-49.4935 238.4462,-49.4935 249.4097,-49.4935"/>
<polygon fill="#000000" stroke="#000000" points="249.5875,-52.9936 259.5874,-49.4935 249.5874,-45.9936 249.5875,-52.9936"/>
<text text-anchor="middle" x="238.2738" y="-53.6935" font-family="Times,serif" font-size="14.00" fill="#000000">b</text>
</g>
<!-- p2&#45;&gt;p2 -->
<g id="edge4" class="edge">
<title>p2&#45;&gt;p2</title>
<path fill="none" stroke="#000000" d="M188.4822,-69.0043C187.3133,-79.0929 189.846,-88.1869 196.0804,-88.1869 200.0743,-88.1869 202.549,-84.4547 203.5046,-79.1198"/>
<polygon fill="#000000" stroke="#000000" points="207.006,-79.063 203.6785,-69.0043 200.007,-78.9426 207.006,-79.063"/>
<text text-anchor="middle" x="196.0804" y="-92.3869" font-family="Times,serif" font-size="14.00" fill="#000000">a</text>
</g>
</g>
</svg>
