<?xml version="1.0" encoding="UTF-8" standalone="no"?>
<!DOCTYPE svg PUBLIC "-//W3C//DTD SVG 1.1//EN"
 "http://www.w3.org/Graphics/SVG/1.1/DTD/svg11.dtd">
<!-- Generated by graphviz version 2.40.1 (20161225.0304)
 -->
<!-- Title: %207 Pages: 1 -->
<svg width="232pt" height="117pt"
 viewBox="0.00 0.00 231.99 116.99" xmlns="http://www.w3.org/2000/svg" xmlns:xlink="http://www.w3.org/1999/xlink">
<g id="graph0" class="graph" transform="scale(1 1) rotate(0) translate(4 112.9869)">
<title>%207</title>
<polygon fill="#ffffff" stroke="transparent" points="-4,4 -4,-112.9869 227.9884,-112.9869 227.9884,4 -4,4"/>
<text text-anchor="middle" x="111.9942" y="-8.2" font-family="Times,serif" font-size="14.00" fill="#000000">Автомат 2.3.1.</text>
<g id="node1" class="node">
<title></title>
</g>
<!-- q1 -->
<g id="node2" class="node">
<title>q1</title>
<ellipse fill="none" stroke="#000000" cx="115.6935" cy="-49.4935" rx="20.8568" ry="20.8568"/>
<ellipse fill="none" stroke="#000000" cx="115.6935" cy="-49.4935" rx="24.8884" ry="24.8884"/>
<text text-anchor="middle" x="115.6935" y="-45.2935" font-family="Times,serif" font-size="14.00" fill="#000000">q1</text>
</g>
<!-- &#45;&gt;q1 -->
<g id="edge1" class="edge">
<title>&#45;&gt;q1</title>
<path fill="none" stroke="#000000" d="M54.0929,-49.4935C62.5145,-49.4935 71.9196,-49.4935 80.7952,-49.4935"/>
<polygon fill="#000000" stroke="#000000" points="80.8805,-52.9936 90.8805,-49.4935 80.8805,-45.9936 80.8805,-52.9936"/>
</g>
<!-- q1&#45;&gt;q1 -->
<g id="edge2" class="edge">
<title>q1&#45;&gt;q1</title>
<path fill="none" stroke="#000000" d="M107.9127,-73.2015C107.2756,-83.4297 109.8692,-92.1869 115.6935,-92.1869 119.4246,-92.1869 121.8299,-88.5929 122.9093,-83.3207"/>
<polygon fill="#000000" stroke="#000000" points="126.4113,-83.3811 123.4742,-73.2015 119.4222,-82.9908 126.4113,-83.3811"/>
<text text-anchor="middle" x="115.6935" y="-96.3869" font-family="Times,serif" font-size="14.00" fill="#000000">b</text>
</g>
<!-- q2 -->
<g id="node3" class="node">
<title>q2</title>
<ellipse fill="none" stroke="#000000" cx="203.295" cy="-49.4935" rx="20.8887" ry="20.8887"/>
<text text-anchor="middle" x="203.295" y="-45.2935" font-family="Times,serif" font-size="14.00" fill="#000000">q2</text>
</g>
<!-- q1&#45;&gt;q2 -->
<g id="edge3" class="edge">
<title>q1&#45;&gt;q2</title>
<path fill="none" stroke="#000000" d="M140.5622,-49.4935C150.3984,-49.4935 161.8118,-49.4935 172.1857,-49.4935"/>
<polygon fill="#000000" stroke="#000000" points="172.5104,-52.9935 182.5103,-49.4935 172.5103,-45.9935 172.5104,-52.9935"/>
<text text-anchor="middle" x="161.4942" y="-53.6935" font-family="Times,serif" font-size="14.00" fill="#000000">a</text>
</g>
<!-- q2&#45;&gt;q1 -->
<g id="edge4" class="edge">
<title>q2&#45;&gt;q1</title>
<path fill="none" stroke="#000000" d="M185.9405,-37.8096C179.5195,-34.1365 171.9974,-30.5553 164.6015,-28.6935 158.1423,-27.0674 151.437,-28.0123 145.138,-30.2074"/>
<polygon fill="#000000" stroke="#000000" points="143.3331,-27.1826 135.6677,-34.4964 146.221,-33.5591 143.3331,-27.1826"/>
<text text-anchor="middle" x="161.4942" y="-32.6935" font-family="Times,serif" font-size="14.00" fill="#000000">a</text>
</g>
<!-- q2&#45;&gt;q2 -->
<g id="edge5" class="edge">
<title>q2&#45;&gt;q2</title>
<path fill="none" stroke="#000000" d="M196.0586,-69.0043C194.9453,-79.0929 197.3575,-88.1869 203.295,-88.1869 207.0987,-88.1869 209.4556,-84.4547 210.3656,-79.1198"/>
<polygon fill="#000000" stroke="#000000" points="213.867,-79.0603 210.5313,-69.0043 206.8679,-78.9456 213.867,-79.0603"/>
<text text-anchor="middle" x="203.295" y="-92.3869" font-family="Times,serif" font-size="14.00" fill="#000000">b</text>
</g>
</g>
</svg>
