<?xml version="1.0" encoding="UTF-8" standalone="no"?>
<!DOCTYPE svg PUBLIC "-//W3C//DTD SVG 1.1//EN"
 "http://www.w3.org/Graphics/SVG/1.1/DTD/svg11.dtd">
<!-- Generated by graphviz version 2.40.1 (20161225.0304)
 -->
<!-- Title: %219 Pages: 1 -->
<svg width="317pt" height="152pt"
 viewBox="0.00 0.00 317.16 151.99" xmlns="http://www.w3.org/2000/svg" xmlns:xlink="http://www.w3.org/1999/xlink">
<g id="graph0" class="graph" transform="scale(1 1) rotate(0) translate(4 147.9869)">
<title>%219</title>
<polygon fill="#ffffff" stroke="transparent" points="-4,4 -4,-147.9869 313.1607,-147.9869 313.1607,4 -4,4"/>
<text text-anchor="middle" x="154.5804" y="-8.2" font-family="Times,serif" font-size="14.00" fill="#000000">Автомат 2.3.2.</text>
<g id="node1" class="node">
<title></title>
</g>
<!-- p1 -->
<g id="node2" class="node">
<title>p1</title>
<ellipse fill="none" stroke="#000000" cx="115.6935" cy="-49.4935" rx="20.8568" ry="20.8568"/>
<ellipse fill="none" stroke="#000000" cx="115.6935" cy="-49.4935" rx="24.8884" ry="24.8884"/>
<text text-anchor="middle" x="115.6935" y="-45.2935" font-family="Times,serif" font-size="14.00" fill="#000000">p1</text>
</g>
<!-- &#45;&gt;p1 -->
<g id="edge1" class="edge">
<title>&#45;&gt;p1</title>
<path fill="none" stroke="#000000" d="M54.0929,-49.4935C62.5145,-49.4935 71.9196,-49.4935 80.7952,-49.4935"/>
<polygon fill="#000000" stroke="#000000" points="80.8805,-52.9936 90.8805,-49.4935 80.8805,-45.9936 80.8805,-52.9936"/>
</g>
<!-- p1&#45;&gt;p1 -->
<g id="edge3" class="edge">
<title>p1&#45;&gt;p1</title>
<path fill="none" stroke="#000000" d="M107.9127,-73.2015C107.2756,-83.4297 109.8692,-92.1869 115.6935,-92.1869 119.4246,-92.1869 121.8299,-88.5929 122.9093,-83.3207"/>
<polygon fill="#000000" stroke="#000000" points="126.4113,-83.3811 123.4742,-73.2015 119.4222,-82.9908 126.4113,-83.3811"/>
<text text-anchor="middle" x="115.6935" y="-96.3869" font-family="Times,serif" font-size="14.00" fill="#000000">a</text>
</g>
<!-- p2 -->
<g id="node3" class="node">
<title>p2</title>
<ellipse fill="none" stroke="#000000" cx="204.0804" cy="-88.4935" rx="20.8887" ry="20.8887"/>
<text text-anchor="middle" x="204.0804" y="-84.2935" font-family="Times,serif" font-size="14.00" fill="#000000">p2</text>
</g>
<!-- p1&#45;&gt;p2 -->
<g id="edge2" class="edge">
<title>p1&#45;&gt;p2</title>
<path fill="none" stroke="#000000" d="M138.4553,-59.5369C149.8368,-64.5589 163.7206,-70.685 175.782,-76.007"/>
<polygon fill="#000000" stroke="#000000" points="174.4197,-79.2315 184.9816,-80.0663 177.2456,-72.8272 174.4197,-79.2315"/>
<text text-anchor="middle" x="161.8869" y="-74.6935" font-family="Times,serif" font-size="14.00" fill="#000000">b</text>
</g>
<!-- p2&#45;&gt;p2 -->
<g id="edge4" class="edge">
<title>p2&#45;&gt;p2</title>
<path fill="none" stroke="#000000" d="M196.4822,-108.0043C195.3133,-118.0929 197.846,-127.1869 204.0804,-127.1869 208.0743,-127.1869 210.549,-123.4547 211.5046,-118.1198"/>
<polygon fill="#000000" stroke="#000000" points="215.006,-118.063 211.6785,-108.0043 208.007,-117.9426 215.006,-118.063"/>
<text text-anchor="middle" x="204.0804" y="-131.3869" font-family="Times,serif" font-size="14.00" fill="#000000">a</text>
</g>
<!-- p3 -->
<g id="node4" class="node">
<title>p3</title>
<ellipse fill="none" stroke="#000000" cx="288.4673" cy="-49.4935" rx="20.8887" ry="20.8887"/>
<text text-anchor="middle" x="288.4673" y="-45.2935" font-family="Times,serif" font-size="14.00" fill="#000000">p3</text>
</g>
<!-- p2&#45;&gt;p3 -->
<g id="edge5" class="edge">
<title>p2&#45;&gt;p3</title>
<path fill="none" stroke="#000000" d="M223.2291,-79.6437C234.1263,-74.6075 247.982,-68.204 260.1187,-62.5949"/>
<polygon fill="#000000" stroke="#000000" points="261.7852,-65.6805 269.3943,-58.3081 258.8485,-59.3263 261.7852,-65.6805"/>
<text text-anchor="middle" x="246.2738" y="-73.6935" font-family="Times,serif" font-size="14.00" fill="#000000">b</text>
</g>
<!-- p3&#45;&gt;p1 -->
<g id="edge7" class="edge">
<title>p3&#45;&gt;p1</title>
<path fill="none" stroke="#000000" d="M267.8726,-46.3257C255.4286,-44.5729 239.2296,-42.5753 224.7738,-41.6935 206.4138,-40.5734 201.7508,-40.6389 183.3869,-41.6935 172.6688,-42.3089 161.0429,-43.4682 150.4998,-44.7084"/>
<polygon fill="#000000" stroke="#000000" points="149.8862,-41.2576 140.3914,-45.9585 150.7454,-48.2046 149.8862,-41.2576"/>
<text text-anchor="middle" x="204.0804" y="-45.6935" font-family="Times,serif" font-size="14.00" fill="#000000">b</text>
</g>
<!-- p3&#45;&gt;p3 -->
<g id="edge6" class="edge">
<title>p3&#45;&gt;p3</title>
<path fill="none" stroke="#000000" d="M280.8691,-69.0043C279.7002,-79.0929 282.2329,-88.1869 288.4673,-88.1869 292.4612,-88.1869 294.9359,-84.4547 295.8915,-79.1198"/>
<polygon fill="#000000" stroke="#000000" points="299.3929,-79.063 296.0654,-69.0043 292.3939,-78.9426 299.3929,-79.063"/>
<text text-anchor="middle" x="288.4673" y="-92.3869" font-family="Times,serif" font-size="14.00" fill="#000000">a</text>
</g>
</g>
</svg>
