<?xml version="1.0" encoding="UTF-8" standalone="no"?>
<!DOCTYPE svg PUBLIC "-//W3C//DTD SVG 1.1//EN"
 "http://www.w3.org/Graphics/SVG/1.1/DTD/svg11.dtd">
<!-- Generated by graphviz version 2.40.1 (20161225.0304)
 -->
<!-- Title: %171 Pages: 1 -->
<svg width="743pt" height="233pt"
 viewBox="0.00 0.00 743.36 233.16" xmlns="http://www.w3.org/2000/svg" xmlns:xlink="http://www.w3.org/1999/xlink">
<g id="graph0" class="graph" transform="scale(1 1) rotate(0) translate(4 229.1577)">
<title>%171</title>
<polygon fill="#ffffff" stroke="transparent" points="-4,4 -4,-229.1577 739.361,-229.1577 739.361,4 -4,4"/>
<text text-anchor="middle" x="367.6805" y="-8.2" font-family="Times,serif" font-size="14.00" fill="#000000">Автомат 2.2. (ответ)</text>
<g id="node1" class="node">
<title></title>
</g>
<!-- q1_p1 -->
<g id="node3" class="node">
<title>q1_p1</title>
<ellipse fill="none" stroke="#000000" cx="126.1789" cy="-127.9789" rx="35.3587" ry="35.3587"/>
<text text-anchor="middle" x="126.1789" y="-123.7789" font-family="Times,serif" font-size="14.00" fill="#000000">q1_p1</text>
</g>
<!-- &#45;&gt;q1_p1 -->
<g id="edge1" class="edge">
<title>&#45;&gt;q1_p1</title>
<path fill="none" stroke="#000000" d="M54.1011,-127.9789C62.3519,-127.9789 71.6565,-127.9789 80.7714,-127.9789"/>
<polygon fill="#000000" stroke="#000000" points="80.9154,-131.479 90.9154,-127.9789 80.9154,-124.479 80.9154,-131.479"/>
</g>
<!-- q4_p2 -->
<g id="node2" class="node">
<title>q4_p2</title>
<ellipse fill="none" stroke="#000000" cx="582.8244" cy="-63.9789" rx="35.3402" ry="35.3402"/>
<ellipse fill="none" stroke="#000000" cx="582.8244" cy="-63.9789" rx="39.3586" ry="39.3586"/>
<text text-anchor="middle" x="582.8244" y="-59.7789" font-family="Times,serif" font-size="14.00" fill="#000000">q4_p2</text>
</g>
<!-- q4_p2&#45;&gt;q4_p2 -->
<g id="edge16" class="edge">
<title>q4_p2&#45;&gt;q4_p2</title>
<path fill="none" stroke="#000000" d="M571.6081,-101.6475C571.9958,-112.6417 575.7346,-121.1577 582.8244,-121.1577 587.4771,-121.1577 590.6867,-117.4902 592.453,-111.8615"/>
<polygon fill="#000000" stroke="#000000" points="595.9631,-112.0664 594.0408,-101.6475 589.0462,-110.9912 595.9631,-112.0664"/>
<text text-anchor="middle" x="582.8244" y="-125.3577" font-family="Times,serif" font-size="14.00" fill="#000000">a</text>
</g>
<!-- q4_p1 -->
<g id="node9" class="node">
<title>q4_p1</title>
<ellipse fill="none" stroke="#000000" cx="700.1822" cy="-103.9789" rx="35.3587" ry="35.3587"/>
<text text-anchor="middle" x="700.1822" y="-99.7789" font-family="Times,serif" font-size="14.00" fill="#000000">q4_p1</text>
</g>
<!-- q4_p2&#45;&gt;q4_p1 -->
<g id="edge17" class="edge">
<title>q4_p2&#45;&gt;q4_p1</title>
<path fill="none" stroke="#000000" d="M621.8372,-59.3163C630.3041,-59.4492 639.0895,-60.4928 647.0033,-63.1789 653.8972,-65.5188 660.5976,-69.1517 666.7874,-73.306"/>
<polygon fill="#000000" stroke="#000000" points="664.7428,-76.1468 674.8817,-79.2216 668.8732,-70.4953 664.7428,-76.1468"/>
<text text-anchor="middle" x="643.5033" y="-68.1789" font-family="Times,serif" font-size="14.00" fill="#000000">b</text>
</g>
<!-- q2_p1 -->
<g id="node4" class="node">
<title>q2_p1</title>
<ellipse fill="none" stroke="#000000" cx="239.5366" cy="-175.9789" rx="35.3587" ry="35.3587"/>
<text text-anchor="middle" x="239.5366" y="-171.7789" font-family="Times,serif" font-size="14.00" fill="#000000">q2_p1</text>
</g>
<!-- q1_p1&#45;&gt;q2_p1 -->
<g id="edge2" class="edge">
<title>q1_p1&#45;&gt;q2_p1</title>
<path fill="none" stroke="#000000" d="M158.6626,-141.7337C170.7579,-146.8553 184.6628,-152.7432 197.4935,-158.1762"/>
<polygon fill="#000000" stroke="#000000" points="196.4749,-161.5457 207.0481,-162.222 199.2043,-155.0997 196.4749,-161.5457"/>
<text text-anchor="middle" x="182.8577" y="-158.1789" font-family="Times,serif" font-size="14.00" fill="#000000">a</text>
</g>
<!-- q1_p2 -->
<g id="node5" class="node">
<title>q1_p2</title>
<ellipse fill="none" stroke="#000000" cx="239.5366" cy="-87.9789" rx="35.3587" ry="35.3587"/>
<text text-anchor="middle" x="239.5366" y="-83.7789" font-family="Times,serif" font-size="14.00" fill="#000000">q1_p2</text>
</g>
<!-- q1_p1&#45;&gt;q1_p2 -->
<g id="edge3" class="edge">
<title>q1_p1&#45;&gt;q1_p2</title>
<path fill="none" stroke="#000000" d="M159.5768,-116.1939C171.12,-112.1207 184.2225,-107.4973 196.4321,-103.189"/>
<polygon fill="#000000" stroke="#000000" points="197.7202,-106.446 205.9857,-99.8178 195.3908,-99.8449 197.7202,-106.446"/>
<text text-anchor="middle" x="182.8577" y="-114.1789" font-family="Times,serif" font-size="14.00" fill="#000000">b</text>
</g>
<!-- q2_p2 -->
<g id="node6" class="node">
<title>q2_p2</title>
<ellipse fill="none" stroke="#000000" cx="352.8943" cy="-133.9789" rx="35.3587" ry="35.3587"/>
<text text-anchor="middle" x="352.8943" y="-129.7789" font-family="Times,serif" font-size="14.00" fill="#000000">q2_p2</text>
</g>
<!-- q2_p1&#45;&gt;q2_p2 -->
<g id="edge7" class="edge">
<title>q2_p1&#45;&gt;q2_p2</title>
<path fill="none" stroke="#000000" d="M272.6291,-163.7178C284.2828,-159.4 297.5556,-154.4823 309.906,-149.9064"/>
<polygon fill="#000000" stroke="#000000" points="311.4034,-153.0842 319.5645,-146.3279 308.9714,-146.5202 311.4034,-153.0842"/>
<text text-anchor="middle" x="296.2155" y="-161.1789" font-family="Times,serif" font-size="14.00" fill="#000000">b</text>
</g>
<!-- q3_p1 -->
<g id="node7" class="node">
<title>q3_p1</title>
<ellipse fill="none" stroke="#000000" cx="582.8244" cy="-189.9789" rx="35.3587" ry="35.3587"/>
<text text-anchor="middle" x="582.8244" y="-185.7789" font-family="Times,serif" font-size="14.00" fill="#000000">q3_p1</text>
</g>
<!-- q2_p1&#45;&gt;q3_p1 -->
<g id="edge6" class="edge">
<title>q2_p1&#45;&gt;q3_p1</title>
<path fill="none" stroke="#000000" d="M274.9815,-177.4244C337.7145,-179.9828 468.1908,-185.3039 537.4135,-188.1269"/>
<polygon fill="#000000" stroke="#000000" points="537.4381,-191.6307 547.5724,-188.5412 537.7234,-184.6365 537.4381,-191.6307"/>
<text text-anchor="middle" x="409.1805" y="-187.1789" font-family="Times,serif" font-size="14.00" fill="#000000">a</text>
</g>
<!-- q1_p2&#45;&gt;q1_p1 -->
<g id="edge5" class="edge">
<title>q1_p2&#45;&gt;q1_p1</title>
<path fill="none" stroke="#000000" d="M204.5205,-82.7197C196.1003,-82.5954 187.2601,-83.4449 179.3577,-86.1789 172.3384,-88.6073 165.5414,-92.3874 159.2853,-96.703"/>
<polygon fill="#000000" stroke="#000000" points="157.0086,-94.0358 151.1195,-102.8432 161.2156,-99.6307 157.0086,-94.0358"/>
<text text-anchor="middle" x="182.8577" y="-91.1789" font-family="Times,serif" font-size="14.00" fill="#000000">b</text>
</g>
<!-- q1_p2&#45;&gt;q2_p2 -->
<g id="edge4" class="edge">
<title>q1_p2&#45;&gt;q2_p2</title>
<path fill="none" stroke="#000000" d="M272.7318,-100.5231C281.5297,-103.9168 291.0036,-107.6334 299.7155,-111.1789 303.4299,-112.6905 307.2791,-114.2852 311.1307,-115.9002"/>
<polygon fill="#000000" stroke="#000000" points="310.0608,-119.2478 320.6342,-119.9209 312.7883,-112.801 310.0608,-119.2478"/>
<text text-anchor="middle" x="296.2155" y="-116.1789" font-family="Times,serif" font-size="14.00" fill="#000000">a</text>
</g>
<!-- q2_p2&#45;&gt;q2_p1 -->
<g id="edge9" class="edge">
<title>q2_p2&#45;&gt;q2_p1</title>
<path fill="none" stroke="#000000" d="M317.8517,-129.4247C309.4323,-129.4366 300.5991,-130.4004 292.7155,-133.1789 285.569,-135.6975 278.675,-139.6279 272.3533,-144.1076"/>
<polygon fill="#000000" stroke="#000000" points="269.8873,-141.5901 264.1174,-150.476 274.1693,-147.1277 269.8873,-141.5901"/>
<text text-anchor="middle" x="296.2155" y="-138.1789" font-family="Times,serif" font-size="14.00" fill="#000000">b</text>
</g>
<!-- q3_p2 -->
<g id="node8" class="node">
<title>q3_p2</title>
<ellipse fill="none" stroke="#000000" cx="465.4667" cy="-133.9789" rx="35.3587" ry="35.3587"/>
<text text-anchor="middle" x="465.4667" y="-129.7789" font-family="Times,serif" font-size="14.00" fill="#000000">q3_p2</text>
</g>
<!-- q2_p2&#45;&gt;q3_p2 -->
<g id="edge8" class="edge">
<title>q2_p2&#45;&gt;q3_p2</title>
<path fill="none" stroke="#000000" d="M388.2041,-133.9789C398.3677,-133.9789 409.5962,-133.9789 420.2707,-133.9789"/>
<polygon fill="#000000" stroke="#000000" points="420.2823,-137.479 430.2823,-133.9789 420.2822,-130.479 420.2823,-137.479"/>
<text text-anchor="middle" x="409.1805" y="-138.1789" font-family="Times,serif" font-size="14.00" fill="#000000">a</text>
</g>
<!-- q3_p1&#45;&gt;q3_p2 -->
<g id="edge11" class="edge">
<title>q3_p1&#45;&gt;q3_p2</title>
<path fill="none" stroke="#000000" d="M559.1789,-163.8929C547.1851,-151.395 533.5236,-138.4361 525.6456,-135.1789 521.0585,-133.2823 516.1019,-132.0483 511.0707,-131.2962"/>
<polygon fill="#000000" stroke="#000000" points="511.0056,-127.7765 500.7334,-130.3714 510.3818,-134.7486 511.0056,-127.7765"/>
<text text-anchor="middle" x="522.1456" y="-140.1789" font-family="Times,serif" font-size="14.00" fill="#000000">b</text>
</g>
<!-- q3_p1&#45;&gt;q4_p1 -->
<g id="edge10" class="edge">
<title>q3_p1&#45;&gt;q4_p1</title>
<path fill="none" stroke="#000000" d="M611.2335,-169.1607C626.8306,-157.7311 646.3569,-143.4222 663.1381,-131.1249"/>
<polygon fill="#000000" stroke="#000000" points="665.6307,-133.6375 671.628,-124.9034 661.4931,-127.9912 665.6307,-133.6375"/>
<text text-anchor="middle" x="643.5033" y="-151.1789" font-family="Times,serif" font-size="14.00" fill="#000000">a</text>
</g>
<!-- q3_p2&#45;&gt;q4_p2 -->
<g id="edge12" class="edge">
<title>q3_p2&#45;&gt;q4_p2</title>
<path fill="none" stroke="#000000" d="M495.6892,-115.9521C509.1872,-107.901 525.3359,-98.2688 540.0435,-89.4963"/>
<polygon fill="#000000" stroke="#000000" points="542.1828,-92.2956 548.9781,-84.1671 538.5969,-86.2838 542.1828,-92.2956"/>
<text text-anchor="middle" x="522.1456" y="-106.1789" font-family="Times,serif" font-size="14.00" fill="#000000">a</text>
</g>
<!-- q3_p2&#45;&gt;q3_p1 -->
<g id="edge13" class="edge">
<title>q3_p2&#45;&gt;q3_p1</title>
<path fill="none" stroke="#000000" d="M497.2254,-149.1333C510.9239,-155.6699 527.1215,-163.3989 541.7201,-170.365"/>
<polygon fill="#000000" stroke="#000000" points="540.5079,-173.6645 551.0403,-174.8124 543.5225,-167.3469 540.5079,-173.6645"/>
<text text-anchor="middle" x="522.1456" y="-166.1789" font-family="Times,serif" font-size="14.00" fill="#000000">b</text>
</g>
<!-- q4_p1&#45;&gt;q4_p2 -->
<g id="edge15" class="edge">
<title>q4_p1&#45;&gt;q4_p2</title>
<path fill="none" stroke="#000000" d="M666.8661,-92.6235C655.3214,-88.6886 642.1548,-84.2009 629.7238,-79.964"/>
<polygon fill="#000000" stroke="#000000" points="630.5516,-76.5485 619.9571,-76.6351 628.2933,-83.1742 630.5516,-76.5485"/>
<text text-anchor="middle" x="643.5033" y="-90.1789" font-family="Times,serif" font-size="14.00" fill="#000000">b</text>
</g>
<!-- q4_p1&#45;&gt;q4_p1 -->
<g id="edge14" class="edge">
<title>q4_p1&#45;&gt;q4_p1</title>
<path fill="none" stroke="#000000" d="M689.6847,-137.7333C689.7924,-148.5694 693.2915,-157.1577 700.1822,-157.1577 704.7041,-157.1577 707.7655,-153.4591 709.3663,-147.8537"/>
<polygon fill="#000000" stroke="#000000" points="712.8635,-148.1006 710.6796,-137.7333 705.9217,-147.1998 712.8635,-148.1006"/>
<text text-anchor="middle" x="700.1822" y="-161.3577" font-family="Times,serif" font-size="14.00" fill="#000000">a</text>
</g>
</g>
</svg>
