<?xml version="1.0" encoding="UTF-8" standalone="no"?>
<!DOCTYPE svg PUBLIC "-//W3C//DTD SVG 1.1//EN"
 "http://www.w3.org/Graphics/SVG/1.1/DTD/svg11.dtd">
<!-- Generated by graphviz version 2.40.1 (20161225.0304)
 -->
<!-- Title: %291 Pages: 1 -->
<svg width="550pt" height="169pt"
 viewBox="0.00 0.00 550.17 168.96" xmlns="http://www.w3.org/2000/svg" xmlns:xlink="http://www.w3.org/1999/xlink">
<g id="graph0" class="graph" transform="scale(1 1) rotate(0) translate(4 164.9596)">
<title>%291</title>
<polygon fill="#ffffff" stroke="transparent" points="-4,4 -4,-164.9596 546.1719,-164.9596 546.1719,4 -4,4"/>
<text text-anchor="middle" x="271.086" y="-8.2" font-family="Times,serif" font-size="14.00" fill="#000000">Автомат 2.5.1.</text>
<g id="node1" class="node">
<title></title>
</g>
<!-- f1 -->
<g id="node3" class="node">
<title>f1</title>
<ellipse fill="none" stroke="#000000" cx="110.0798" cy="-97.8798" rx="19.1599" ry="19.1599"/>
<text text-anchor="middle" x="110.0798" y="-93.6798" font-family="Times,serif" font-size="14.00" fill="#000000">f1</text>
</g>
<!-- &#45;&gt;f1 -->
<g id="edge1" class="edge">
<title>&#45;&gt;f1</title>
<path fill="none" stroke="#000000" d="M54.2034,-97.8798C62.749,-97.8798 72.2172,-97.8798 80.8942,-97.8798"/>
<polygon fill="#000000" stroke="#000000" points="80.9708,-101.3799 90.9707,-97.8798 80.9707,-94.3799 80.9708,-101.3799"/>
</g>
<!-- f8 -->
<g id="node2" class="node">
<title>f8</title>
<ellipse fill="none" stroke="#000000" cx="437.9326" cy="-47.8798" rx="19.146" ry="19.146"/>
<ellipse fill="none" stroke="#000000" cx="437.9326" cy="-47.8798" rx="23.1598" ry="23.1598"/>
<text text-anchor="middle" x="437.9326" y="-43.6798" font-family="Times,serif" font-size="14.00" fill="#000000">f8</text>
</g>
<!-- f8&#45;&gt;f8 -->
<g id="edge16" class="edge">
<title>f8&#45;&gt;f8</title>
<path fill="none" stroke="#000000" d="M429.8457,-69.8568C428.9635,-80.0519 431.6592,-88.9596 437.9326,-88.9596 441.9515,-88.9596 444.5021,-85.3039 445.5843,-79.9959"/>
<polygon fill="#000000" stroke="#000000" points="449.0874,-79.9977 446.0194,-69.8568 442.0938,-79.6976 449.0874,-79.9977"/>
<text text-anchor="middle" x="437.9326" y="-93.1596" font-family="Times,serif" font-size="14.00" fill="#000000">a</text>
</g>
<!-- f7 -->
<g id="node9" class="node">
<title>f7</title>
<ellipse fill="none" stroke="#000000" cx="523.0921" cy="-87.8798" rx="19.1599" ry="19.1599"/>
<text text-anchor="middle" x="523.0921" y="-83.6798" font-family="Times,serif" font-size="14.00" fill="#000000">f7</text>
</g>
<!-- f8&#45;&gt;f7 -->
<g id="edge17" class="edge">
<title>f8&#45;&gt;f7</title>
<path fill="none" stroke="#000000" d="M460.7425,-43.6191C469.0107,-43.0614 478.2253,-43.6343 486.0124,-47.0798 493.8901,-50.5653 500.8117,-56.6429 506.4758,-63.059"/>
<polygon fill="#000000" stroke="#000000" points="503.9885,-65.5542 512.9552,-71.1977 509.465,-61.1943 503.9885,-65.5542"/>
<text text-anchor="middle" x="482.5124" y="-52.0798" font-family="Times,serif" font-size="14.00" fill="#000000">b</text>
</g>
<!-- f3 -->
<g id="node4" class="node">
<title>f3</title>
<ellipse fill="none" stroke="#000000" cx="191.2393" cy="-137.8798" rx="19.1599" ry="19.1599"/>
<text text-anchor="middle" x="191.2393" y="-133.6798" font-family="Times,serif" font-size="14.00" fill="#000000">f3</text>
</g>
<!-- f1&#45;&gt;f3 -->
<g id="edge2" class="edge">
<title>f1&#45;&gt;f3</title>
<path fill="none" stroke="#000000" d="M127.2916,-106.3627C138.267,-111.772 152.702,-118.8864 165.0795,-124.9868"/>
<polygon fill="#000000" stroke="#000000" points="163.5352,-128.1276 174.0523,-129.409 166.6298,-121.8488 163.5352,-128.1276"/>
<text text-anchor="middle" x="150.6596" y="-124.0798" font-family="Times,serif" font-size="14.00" fill="#000000">a</text>
</g>
<!-- f2 -->
<g id="node5" class="node">
<title>f2</title>
<ellipse fill="none" stroke="#000000" cx="191.2393" cy="-57.8798" rx="19.1599" ry="19.1599"/>
<text text-anchor="middle" x="191.2393" y="-53.6798" font-family="Times,serif" font-size="14.00" fill="#000000">f2</text>
</g>
<!-- f1&#45;&gt;f2 -->
<g id="edge3" class="edge">
<title>f1&#45;&gt;f2</title>
<path fill="none" stroke="#000000" d="M127.2916,-89.3968C138.267,-83.9875 152.702,-76.8731 165.0795,-70.7728"/>
<polygon fill="#000000" stroke="#000000" points="166.6298,-73.9108 174.0523,-66.3505 163.5352,-67.632 166.6298,-73.9108"/>
<text text-anchor="middle" x="150.6596" y="-84.0798" font-family="Times,serif" font-size="14.00" fill="#000000">b</text>
</g>
<!-- f4 -->
<g id="node6" class="node">
<title>f4</title>
<ellipse fill="none" stroke="#000000" cx="272.3989" cy="-97.8798" rx="19.1599" ry="19.1599"/>
<text text-anchor="middle" x="272.3989" y="-93.6798" font-family="Times,serif" font-size="14.00" fill="#000000">f4</text>
</g>
<!-- f3&#45;&gt;f4 -->
<g id="edge7" class="edge">
<title>f3&#45;&gt;f4</title>
<path fill="none" stroke="#000000" d="M208.4512,-129.3968C219.4266,-123.9875 233.8616,-116.8731 246.2391,-110.7728"/>
<polygon fill="#000000" stroke="#000000" points="247.7894,-113.9108 255.2118,-106.3505 244.6948,-107.632 247.7894,-113.9108"/>
<text text-anchor="middle" x="231.8191" y="-124.0798" font-family="Times,serif" font-size="14.00" fill="#000000">b</text>
</g>
<!-- f5 -->
<g id="node7" class="node">
<title>f5</title>
<ellipse fill="none" stroke="#000000" cx="437.9326" cy="-141.8798" rx="19.1599" ry="19.1599"/>
<text text-anchor="middle" x="437.9326" y="-137.6798" font-family="Times,serif" font-size="14.00" fill="#000000">f5</text>
</g>
<!-- f3&#45;&gt;f5 -->
<g id="edge6" class="edge">
<title>f3&#45;&gt;f5</title>
<path fill="none" stroke="#000000" d="M210.4673,-139.7148C216.2048,-140.1868 222.5118,-140.6314 228.3191,-140.8798 292.5975,-143.6294 368.0636,-143.0582 408.6098,-142.4415"/>
<polygon fill="#000000" stroke="#000000" points="408.905,-145.9372 418.8461,-142.2733 408.7899,-138.9382 408.905,-145.9372"/>
<text text-anchor="middle" x="312.586" y="-146.0798" font-family="Times,serif" font-size="14.00" fill="#000000">a</text>
</g>
<!-- f2&#45;&gt;f1 -->
<g id="edge5" class="edge">
<title>f2&#45;&gt;f1</title>
<path fill="none" stroke="#000000" d="M172.5148,-53.4725C164.3983,-52.4665 154.9832,-52.5617 147.1596,-56.0798 138.8928,-59.7971 131.7209,-66.3694 125.946,-73.2173"/>
<polygon fill="#000000" stroke="#000000" points="123.1155,-71.1569 119.8264,-81.2283 128.6783,-75.4062 123.1155,-71.1569"/>
<text text-anchor="middle" x="150.6596" y="-61.0798" font-family="Times,serif" font-size="14.00" fill="#000000">b</text>
</g>
<!-- f2&#45;&gt;f4 -->
<g id="edge4" class="edge">
<title>f2&#45;&gt;f4</title>
<path fill="none" stroke="#000000" d="M210.3868,-55.2726C218.4008,-54.9622 227.6218,-55.6641 235.3191,-59.0798 242.6967,-62.3535 249.327,-67.8544 254.8712,-73.7002"/>
<polygon fill="#000000" stroke="#000000" points="252.5645,-76.3878 261.7262,-81.709 257.8825,-71.8359 252.5645,-76.3878"/>
<text text-anchor="middle" x="231.8191" y="-64.0798" font-family="Times,serif" font-size="14.00" fill="#000000">a</text>
</g>
<!-- f4&#45;&gt;f3 -->
<g id="edge9" class="edge">
<title>f4&#45;&gt;f3</title>
<path fill="none" stroke="#000000" d="M253.6744,-93.4725C245.5578,-92.4665 236.1427,-92.5617 228.3191,-96.0798 220.0523,-99.7971 212.8805,-106.3694 207.1055,-113.2173"/>
<polygon fill="#000000" stroke="#000000" points="204.2751,-111.1569 200.986,-121.2283 209.8378,-115.4062 204.2751,-111.1569"/>
<text text-anchor="middle" x="231.8191" y="-101.0798" font-family="Times,serif" font-size="14.00" fill="#000000">b</text>
</g>
<!-- f6 -->
<g id="node8" class="node">
<title>f6</title>
<ellipse fill="none" stroke="#000000" cx="352.773" cy="-97.8798" rx="19.1599" ry="19.1599"/>
<text text-anchor="middle" x="352.773" y="-93.6798" font-family="Times,serif" font-size="14.00" fill="#000000">f6</text>
</g>
<!-- f4&#45;&gt;f6 -->
<g id="edge8" class="edge">
<title>f4&#45;&gt;f6</title>
<path fill="none" stroke="#000000" d="M291.8552,-97.8798C301.3328,-97.8798 312.9288,-97.8798 323.4505,-97.8798"/>
<polygon fill="#000000" stroke="#000000" points="323.4959,-101.3799 333.4959,-97.8798 323.4958,-94.3799 323.4959,-101.3799"/>
<text text-anchor="middle" x="312.586" y="-102.0798" font-family="Times,serif" font-size="14.00" fill="#000000">a</text>
</g>
<!-- f5&#45;&gt;f6 -->
<g id="edge11" class="edge">
<title>f5&#45;&gt;f6</title>
<path fill="none" stroke="#000000" d="M425.5051,-126.6491C416.123,-115.6151 403.7284,-102.1219 396.8528,-99.0798 392.2803,-97.0567 387.1719,-95.9878 382.0985,-95.5178"/>
<polygon fill="#000000" stroke="#000000" points="381.9957,-92.0146 371.9169,-95.2807 381.8327,-99.0127 381.9957,-92.0146"/>
<text text-anchor="middle" x="393.3528" y="-104.0798" font-family="Times,serif" font-size="14.00" fill="#000000">b</text>
</g>
<!-- f5&#45;&gt;f7 -->
<g id="edge10" class="edge">
<title>f5&#45;&gt;f7</title>
<path fill="none" stroke="#000000" d="M454.3522,-131.468C466.7224,-123.6241 483.902,-112.7304 497.9918,-103.796"/>
<polygon fill="#000000" stroke="#000000" points="500.152,-106.5706 506.7229,-98.2596 496.4034,-100.6589 500.152,-106.5706"/>
<text text-anchor="middle" x="482.5124" y="-119.0798" font-family="Times,serif" font-size="14.00" fill="#000000">a</text>
</g>
<!-- f6&#45;&gt;f8 -->
<g id="edge12" class="edge">
<title>f6&#45;&gt;f8</title>
<path fill="none" stroke="#000000" d="M369.3833,-88.1093C375.7805,-84.3476 383.1558,-80.0124 389.8528,-76.0798 396.02,-72.4582 402.6336,-68.5774 408.9217,-64.8888"/>
<polygon fill="#000000" stroke="#000000" points="410.9567,-67.753 417.8119,-59.6748 407.4153,-61.7148 410.9567,-67.753"/>
<text text-anchor="middle" x="393.3528" y="-81.0798" font-family="Times,serif" font-size="14.00" fill="#000000">a</text>
</g>
<!-- f6&#45;&gt;f5 -->
<g id="edge13" class="edge">
<title>f6&#45;&gt;f5</title>
<path fill="none" stroke="#000000" d="M370.0063,-106.7838C382.0109,-112.9863 398.2414,-121.3723 411.8268,-128.3915"/>
<polygon fill="#000000" stroke="#000000" points="410.2341,-131.5081 420.7249,-132.989 413.4473,-125.2892 410.2341,-131.5081"/>
<text text-anchor="middle" x="393.3528" y="-124.0798" font-family="Times,serif" font-size="14.00" fill="#000000">b</text>
</g>
<!-- f7&#45;&gt;f8 -->
<g id="edge15" class="edge">
<title>f7&#45;&gt;f8</title>
<path fill="none" stroke="#000000" d="M505.7209,-79.7204C494.9423,-74.6576 480.7961,-68.0131 468.2162,-62.1042"/>
<polygon fill="#000000" stroke="#000000" points="469.5226,-58.851 458.9833,-57.7674 466.5465,-65.1869 469.5226,-58.851"/>
<text text-anchor="middle" x="482.5124" y="-75.0798" font-family="Times,serif" font-size="14.00" fill="#000000">b</text>
</g>
<!-- f7&#45;&gt;f7 -->
<g id="edge14" class="edge">
<title>f7&#45;&gt;f7</title>
<path fill="none" stroke="#000000" d="M515.951,-105.8119C514.618,-115.7801 516.9984,-124.9596 523.0921,-124.9596 526.996,-124.9596 529.3758,-121.1923 530.2317,-115.8638"/>
<polygon fill="#000000" stroke="#000000" points="533.7316,-115.8125 530.2333,-105.8119 526.7316,-115.8113 533.7316,-115.8125"/>
<text text-anchor="middle" x="523.0921" y="-129.1596" font-family="Times,serif" font-size="14.00" fill="#000000">a</text>
</g>
</g>
</svg>
