<?xml version="1.0" encoding="UTF-8" standalone="no"?>
<!DOCTYPE svg PUBLIC "-//W3C//DTD SVG 1.1//EN"
 "http://www.w3.org/Graphics/SVG/1.1/DTD/svg11.dtd">
<!-- Generated by graphviz version 2.40.1 (20161225.0304)
 -->
<!-- Title: %103 Pages: 1 -->
<svg width="631pt" height="348pt"
 viewBox="0.00 0.00 630.79 347.96" xmlns="http://www.w3.org/2000/svg" xmlns:xlink="http://www.w3.org/1999/xlink">
<g id="graph0" class="graph" transform="scale(1 1) rotate(0) translate(4 343.9577)">
<title>%103</title>
<polygon fill="#ffffff" stroke="transparent" points="-4,4 -4,-343.9577 626.7887,-343.9577 626.7887,4 -4,4"/>
<text text-anchor="middle" x="311.3943" y="-8.2" font-family="Times,serif" font-size="14.00" fill="#000000">Автомат 2.1. (ответ)</text>
<g id="node1" class="node">
<title></title>
</g>
<!-- q1_p1 -->
<g id="node3" class="node">
<title>q1_p1</title>
<ellipse fill="none" stroke="#000000" cx="126.1789" cy="-155.9789" rx="35.3587" ry="35.3587"/>
<text text-anchor="middle" x="126.1789" y="-151.7789" font-family="Times,serif" font-size="14.00" fill="#000000">q1_p1</text>
</g>
<!-- &#45;&gt;q1_p1 -->
<g id="edge1" class="edge">
<title>&#45;&gt;q1_p1</title>
<path fill="none" stroke="#000000" d="M54.1011,-155.9789C62.3519,-155.9789 71.6565,-155.9789 80.7714,-155.9789"/>
<polygon fill="#000000" stroke="#000000" points="80.9154,-159.479 90.9154,-155.9789 80.9154,-152.479 80.9154,-159.479"/>
</g>
<!-- q3_p3 -->
<g id="node2" class="node">
<title>q3_p3</title>
<ellipse fill="none" stroke="#000000" cx="583.6098" cy="-164.9789" rx="35.3402" ry="35.3402"/>
<ellipse fill="none" stroke="#000000" cx="583.6098" cy="-164.9789" rx="39.3586" ry="39.3586"/>
<text text-anchor="middle" x="583.6098" y="-160.7789" font-family="Times,serif" font-size="14.00" fill="#000000">q3_p3</text>
</g>
<!-- q3_p3&#45;&gt;q3_p3 -->
<g id="edge18" class="edge">
<title>q3_p3&#45;&gt;q3_p3</title>
<path fill="none" stroke="#000000" d="M572.3935,-202.6475C572.7812,-213.6417 576.52,-222.1577 583.6098,-222.1577 588.2625,-222.1577 591.4721,-218.4902 593.2384,-212.8615"/>
<polygon fill="#000000" stroke="#000000" points="596.7485,-213.0664 594.8262,-202.6475 589.8316,-211.9912 596.7485,-213.0664"/>
<text text-anchor="middle" x="583.6098" y="-226.3577" font-family="Times,serif" font-size="14.00" fill="#000000">b,a</text>
</g>
<!-- q2_p1 -->
<g id="node4" class="node">
<title>q2_p1</title>
<ellipse fill="none" stroke="#000000" cx="239.5366" cy="-199.9789" rx="35.3587" ry="35.3587"/>
<text text-anchor="middle" x="239.5366" y="-195.7789" font-family="Times,serif" font-size="14.00" fill="#000000">q2_p1</text>
</g>
<!-- q1_p1&#45;&gt;q2_p1 -->
<g id="edge2" class="edge">
<title>q1_p1&#45;&gt;q2_p1</title>
<path fill="none" stroke="#000000" d="M159.2714,-168.8238C171.1446,-173.4324 184.6986,-178.6934 197.2453,-183.5634"/>
<polygon fill="#000000" stroke="#000000" points="196.0101,-186.8383 206.599,-187.1941 198.5431,-180.3127 196.0101,-186.8383"/>
<text text-anchor="middle" x="182.8577" y="-183.1789" font-family="Times,serif" font-size="14.00" fill="#000000">a</text>
</g>
<!-- q1_p2 -->
<g id="node5" class="node">
<title>q1_p2</title>
<ellipse fill="none" stroke="#000000" cx="239.5366" cy="-111.9789" rx="35.3587" ry="35.3587"/>
<text text-anchor="middle" x="239.5366" y="-107.7789" font-family="Times,serif" font-size="14.00" fill="#000000">q1_p2</text>
</g>
<!-- q1_p1&#45;&gt;q1_p2 -->
<g id="edge3" class="edge">
<title>q1_p1&#45;&gt;q1_p2</title>
<path fill="none" stroke="#000000" d="M159.2714,-143.134C171.1446,-138.5253 184.6986,-133.2644 197.2453,-128.3943"/>
<polygon fill="#000000" stroke="#000000" points="198.5431,-131.6451 206.599,-124.7637 196.0101,-125.1194 198.5431,-131.6451"/>
<text text-anchor="middle" x="182.8577" y="-140.1789" font-family="Times,serif" font-size="14.00" fill="#000000">b</text>
</g>
<!-- q2_p2 -->
<g id="node6" class="node">
<title>q2_p2</title>
<ellipse fill="none" stroke="#000000" cx="352.8943" cy="-181.9789" rx="35.3587" ry="35.3587"/>
<text text-anchor="middle" x="352.8943" y="-177.7789" font-family="Times,serif" font-size="14.00" fill="#000000">q2_p2</text>
</g>
<!-- q2_p1&#45;&gt;q2_p2 -->
<g id="edge9" class="edge">
<title>q2_p1&#45;&gt;q2_p2</title>
<path fill="none" stroke="#000000" d="M274.4726,-194.4314C285.0316,-192.7548 296.7771,-190.8897 307.8958,-189.1242"/>
<polygon fill="#000000" stroke="#000000" points="308.5512,-192.564 317.8785,-187.539 307.4534,-185.6506 308.5512,-192.564"/>
<text text-anchor="middle" x="296.2155" y="-195.1789" font-family="Times,serif" font-size="14.00" fill="#000000">b</text>
</g>
<!-- q3_p1 -->
<g id="node9" class="node">
<title>q3_p1</title>
<ellipse fill="none" stroke="#000000" cx="352.8943" cy="-269.9789" rx="35.3587" ry="35.3587"/>
<text text-anchor="middle" x="352.8943" y="-265.7789" font-family="Times,serif" font-size="14.00" fill="#000000">q3_p1</text>
</g>
<!-- q2_p1&#45;&gt;q3_p1 -->
<g id="edge8" class="edge">
<title>q2_p1&#45;&gt;q3_p1</title>
<path fill="none" stroke="#000000" d="M269.6168,-218.5538C283.1963,-226.9393 299.4101,-236.9516 313.9076,-245.904"/>
<polygon fill="#000000" stroke="#000000" points="312.3261,-249.041 322.6736,-251.3171 316.0041,-243.085 312.3261,-249.041"/>
<text text-anchor="middle" x="296.2155" y="-241.1789" font-family="Times,serif" font-size="14.00" fill="#000000">a</text>
</g>
<!-- q1_p2&#45;&gt;q2_p2 -->
<g id="edge4" class="edge">
<title>q1_p2&#45;&gt;q2_p2</title>
<path fill="none" stroke="#000000" d="M269.6168,-130.5538C283.1963,-138.9393 299.4101,-148.9516 313.9076,-157.904"/>
<polygon fill="#000000" stroke="#000000" points="312.3261,-161.041 322.6736,-163.3171 316.0041,-155.085 312.3261,-161.041"/>
<text text-anchor="middle" x="296.2155" y="-154.1789" font-family="Times,serif" font-size="14.00" fill="#000000">a</text>
</g>
<!-- q1_p3 -->
<g id="node7" class="node">
<title>q1_p3</title>
<ellipse fill="none" stroke="#000000" cx="352.8943" cy="-59.9789" rx="35.3587" ry="35.3587"/>
<text text-anchor="middle" x="352.8943" y="-55.7789" font-family="Times,serif" font-size="14.00" fill="#000000">q1_p3</text>
</g>
<!-- q1_p2&#45;&gt;q1_p3 -->
<g id="edge5" class="edge">
<title>q1_p2&#45;&gt;q1_p3</title>
<path fill="none" stroke="#000000" d="M271.7172,-97.2168C284.0423,-91.563 298.2814,-85.0312 311.3595,-79.0319"/>
<polygon fill="#000000" stroke="#000000" points="313.0034,-82.1286 320.6333,-74.7778 310.0847,-75.7661 313.0034,-82.1286"/>
<text text-anchor="middle" x="296.2155" y="-92.1789" font-family="Times,serif" font-size="14.00" fill="#000000">b</text>
</g>
<!-- q2_p3 -->
<g id="node8" class="node">
<title>q2_p3</title>
<ellipse fill="none" stroke="#000000" cx="466.2521" cy="-103.9789" rx="35.3587" ry="35.3587"/>
<text text-anchor="middle" x="466.2521" y="-99.7789" font-family="Times,serif" font-size="14.00" fill="#000000">q2_p3</text>
</g>
<!-- q2_p2&#45;&gt;q2_p3 -->
<g id="edge11" class="edge">
<title>q2_p2&#45;&gt;q2_p3</title>
<path fill="none" stroke="#000000" d="M382.0868,-161.8919C396.2348,-152.1569 413.3977,-140.3473 428.5252,-129.9383"/>
<polygon fill="#000000" stroke="#000000" points="430.9044,-132.5497 437.1586,-123.9977 426.9364,-126.783 430.9044,-132.5497"/>
<text text-anchor="middle" x="409.5732" y="-150.1789" font-family="Times,serif" font-size="14.00" fill="#000000">b</text>
</g>
<!-- q3_p2 -->
<g id="node10" class="node">
<title>q3_p2</title>
<ellipse fill="none" stroke="#000000" cx="466.2521" cy="-225.9789" rx="35.3587" ry="35.3587"/>
<text text-anchor="middle" x="466.2521" y="-221.7789" font-family="Times,serif" font-size="14.00" fill="#000000">q3_p2</text>
</g>
<!-- q2_p2&#45;&gt;q3_p2 -->
<g id="edge10" class="edge">
<title>q2_p2&#45;&gt;q3_p2</title>
<path fill="none" stroke="#000000" d="M385.9868,-194.8238C397.8601,-199.4324 411.414,-204.6934 423.9608,-209.5634"/>
<polygon fill="#000000" stroke="#000000" points="422.7256,-212.8383 433.3144,-213.1941 425.2586,-206.3127 422.7256,-212.8383"/>
<text text-anchor="middle" x="409.5732" y="-209.1789" font-family="Times,serif" font-size="14.00" fill="#000000">a</text>
</g>
<!-- q1_p3&#45;&gt;q1_p3 -->
<g id="edge7" class="edge">
<title>q1_p3&#45;&gt;q1_p3</title>
<path fill="none" stroke="#000000" d="M342.3969,-93.7333C342.5046,-104.5694 346.0037,-113.1577 352.8943,-113.1577 357.4163,-113.1577 360.4777,-109.4591 362.0785,-103.8537"/>
<polygon fill="#000000" stroke="#000000" points="365.5757,-104.1006 363.3918,-93.7333 358.6339,-103.1998 365.5757,-104.1006"/>
<text text-anchor="middle" x="352.8943" y="-117.3577" font-family="Times,serif" font-size="14.00" fill="#000000">b</text>
</g>
<!-- q1_p3&#45;&gt;q2_p3 -->
<g id="edge6" class="edge">
<title>q1_p3&#45;&gt;q2_p3</title>
<path fill="none" stroke="#000000" d="M385.9868,-72.8238C397.8601,-77.4324 411.414,-82.6934 423.9608,-87.5634"/>
<polygon fill="#000000" stroke="#000000" points="422.7256,-90.8383 433.3144,-91.1941 425.2586,-84.3127 422.7256,-90.8383"/>
<text text-anchor="middle" x="409.5732" y="-88.1789" font-family="Times,serif" font-size="14.00" fill="#000000">a</text>
</g>
<!-- q2_p3&#45;&gt;q3_p3 -->
<g id="edge12" class="edge">
<title>q2_p3&#45;&gt;q3_p3</title>
<path fill="none" stroke="#000000" d="M497.7018,-120.3258C510.6233,-127.042 525.8082,-134.9348 539.7886,-142.2016"/>
<polygon fill="#000000" stroke="#000000" points="538.2788,-145.3613 548.766,-146.8678 541.5072,-139.1502 538.2788,-145.3613"/>
<text text-anchor="middle" x="522.931" y="-139.1789" font-family="Times,serif" font-size="14.00" fill="#000000">a</text>
</g>
<!-- q2_p3&#45;&gt;q2_p3 -->
<g id="edge13" class="edge">
<title>q2_p3&#45;&gt;q2_p3</title>
<path fill="none" stroke="#000000" d="M455.7547,-137.7333C455.8623,-148.5694 459.3615,-157.1577 466.2521,-157.1577 470.7741,-157.1577 473.8354,-153.4591 475.4362,-147.8537"/>
<polygon fill="#000000" stroke="#000000" points="478.9335,-148.1006 476.7495,-137.7333 471.9917,-147.1998 478.9335,-148.1006"/>
<text text-anchor="middle" x="466.2521" y="-161.3577" font-family="Times,serif" font-size="14.00" fill="#000000">b</text>
</g>
<!-- q3_p1&#45;&gt;q3_p1 -->
<g id="edge14" class="edge">
<title>q3_p1&#45;&gt;q3_p1</title>
<path fill="none" stroke="#000000" d="M342.3969,-303.7333C342.5046,-314.5694 346.0037,-323.1577 352.8943,-323.1577 357.4163,-323.1577 360.4777,-319.4591 362.0785,-313.8537"/>
<polygon fill="#000000" stroke="#000000" points="365.5757,-314.1006 363.3918,-303.7333 358.6339,-313.1998 365.5757,-314.1006"/>
<text text-anchor="middle" x="352.8943" y="-327.3577" font-family="Times,serif" font-size="14.00" fill="#000000">a</text>
</g>
<!-- q3_p1&#45;&gt;q3_p2 -->
<g id="edge15" class="edge">
<title>q3_p1&#45;&gt;q3_p2</title>
<path fill="none" stroke="#000000" d="M385.9868,-257.134C397.8601,-252.5253 411.414,-247.2644 423.9608,-242.3943"/>
<polygon fill="#000000" stroke="#000000" points="425.2586,-245.6451 433.3144,-238.7637 422.7256,-239.1194 425.2586,-245.6451"/>
<text text-anchor="middle" x="409.5732" y="-253.1789" font-family="Times,serif" font-size="14.00" fill="#000000">b</text>
</g>
<!-- q3_p2&#45;&gt;q3_p3 -->
<g id="edge17" class="edge">
<title>q3_p2&#45;&gt;q3_p3</title>
<path fill="none" stroke="#000000" d="M497.7018,-209.632C510.6233,-202.9157 525.8082,-195.0229 539.7886,-187.7562"/>
<polygon fill="#000000" stroke="#000000" points="541.5072,-190.8075 548.766,-183.09 538.2788,-184.5964 541.5072,-190.8075"/>
<text text-anchor="middle" x="522.931" y="-201.1789" font-family="Times,serif" font-size="14.00" fill="#000000">b</text>
</g>
<!-- q3_p2&#45;&gt;q3_p2 -->
<g id="edge16" class="edge">
<title>q3_p2&#45;&gt;q3_p2</title>
<path fill="none" stroke="#000000" d="M455.7547,-259.7333C455.8623,-270.5694 459.3615,-279.1577 466.2521,-279.1577 470.7741,-279.1577 473.8354,-275.4591 475.4362,-269.8537"/>
<polygon fill="#000000" stroke="#000000" points="478.9335,-270.1006 476.7495,-259.7333 471.9917,-269.1998 478.9335,-270.1006"/>
<text text-anchor="middle" x="466.2521" y="-283.3577" font-family="Times,serif" font-size="14.00" fill="#000000">a</text>
</g>
</g>
</svg>
