<?xml version="1.0" encoding="UTF-8" standalone="no"?>
<!DOCTYPE svg PUBLIC "-//W3C//DTD SVG 1.1//EN"
 "http://www.w3.org/Graphics/SVG/1.1/DTD/svg11.dtd">
<!-- Generated by graphviz version 2.40.1 (20161225.0304)
 -->
<!-- Title: %141 Pages: 1 -->
<svg width="399pt" height="117pt"
 viewBox="0.00 0.00 399.19 116.99" xmlns="http://www.w3.org/2000/svg" xmlns:xlink="http://www.w3.org/1999/xlink">
<g id="graph0" class="graph" transform="scale(1 1) rotate(0) translate(4 112.9869)">
<title>%141</title>
<polygon fill="#ffffff" stroke="transparent" points="-4,4 -4,-112.9869 395.1914,-112.9869 395.1914,4 -4,4"/>
<text text-anchor="middle" x="195.5957" y="-8.2" font-family="Times,serif" font-size="14.00" fill="#000000">Автомат 2.2.1.</text>
<g id="node1" class="node">
<title></title>
</g>
<!-- q1 -->
<g id="node3" class="node">
<title>q1</title>
<ellipse fill="none" stroke="#000000" cx="111.6935" cy="-49.4935" rx="20.8887" ry="20.8887"/>
<text text-anchor="middle" x="111.6935" y="-45.2935" font-family="Times,serif" font-size="14.00" fill="#000000">q1</text>
</g>
<!-- &#45;&gt;q1 -->
<g id="edge1" class="edge">
<title>&#45;&gt;q1</title>
<path fill="none" stroke="#000000" d="M54.2637,-49.4935C62.7209,-49.4935 72.1012,-49.4935 80.7873,-49.4935"/>
<polygon fill="#000000" stroke="#000000" points="80.9294,-52.9936 90.9294,-49.4935 80.9293,-45.9936 80.9294,-52.9936"/>
</g>
<!-- q4 -->
<g id="node2" class="node">
<title>q4</title>
<ellipse fill="none" stroke="#000000" cx="366.498" cy="-49.4935" rx="20.8568" ry="20.8568"/>
<ellipse fill="none" stroke="#000000" cx="366.498" cy="-49.4935" rx="24.8884" ry="24.8884"/>
<text text-anchor="middle" x="366.498" y="-45.2935" font-family="Times,serif" font-size="14.00" fill="#000000">q4</text>
</g>
<!-- q4&#45;&gt;q4 -->
<g id="edge8" class="edge">
<title>q4&#45;&gt;q4</title>
<path fill="none" stroke="#000000" d="M358.3467,-73.2015C357.6793,-83.4297 360.3964,-92.1869 366.498,-92.1869 370.4068,-92.1869 372.9266,-88.5929 374.0575,-83.3207"/>
<polygon fill="#000000" stroke="#000000" points="377.5594,-83.3888 374.6493,-73.2015 370.5713,-82.9801 377.5594,-83.3888"/>
<text text-anchor="middle" x="366.498" y="-96.3869" font-family="Times,serif" font-size="14.00" fill="#000000">b,a</text>
</g>
<!-- q1&#45;&gt;q1 -->
<g id="edge2" class="edge">
<title>q1&#45;&gt;q1</title>
<path fill="none" stroke="#000000" d="M104.7789,-69.402C103.8222,-79.3307 106.127,-88.1869 111.6935,-88.1869 115.1725,-88.1869 117.3774,-84.7274 118.3083,-79.7089"/>
<polygon fill="#000000" stroke="#000000" points="121.8158,-79.4995 118.608,-69.402 114.8187,-79.296 121.8158,-79.4995"/>
<text text-anchor="middle" x="111.6935" y="-92.3869" font-family="Times,serif" font-size="14.00" fill="#000000">b</text>
</g>
<!-- q2 -->
<g id="node4" class="node">
<title>q2</title>
<ellipse fill="none" stroke="#000000" cx="195.295" cy="-49.4935" rx="20.8887" ry="20.8887"/>
<text text-anchor="middle" x="195.295" y="-45.2935" font-family="Times,serif" font-size="14.00" fill="#000000">q2</text>
</g>
<!-- q1&#45;&gt;q2 -->
<g id="edge3" class="edge">
<title>q1&#45;&gt;q2</title>
<path fill="none" stroke="#000000" d="M132.7896,-49.4935C142.3672,-49.4935 153.8849,-49.4935 164.4098,-49.4935"/>
<polygon fill="#000000" stroke="#000000" points="164.4952,-52.9936 174.4951,-49.4935 164.4951,-45.9936 164.4952,-52.9936"/>
<text text-anchor="middle" x="153.4942" y="-53.6935" font-family="Times,serif" font-size="14.00" fill="#000000">a</text>
</g>
<!-- q2&#45;&gt;q2 -->
<g id="edge4" class="edge">
<title>q2&#45;&gt;q2</title>
<path fill="none" stroke="#000000" d="M188.0586,-69.0043C186.9453,-79.0929 189.3575,-88.1869 195.295,-88.1869 199.0987,-88.1869 201.4556,-84.4547 202.3656,-79.1198"/>
<polygon fill="#000000" stroke="#000000" points="205.867,-79.0603 202.5313,-69.0043 198.8679,-78.9456 205.867,-79.0603"/>
<text text-anchor="middle" x="195.295" y="-92.3869" font-family="Times,serif" font-size="14.00" fill="#000000">b</text>
</g>
<!-- q3 -->
<g id="node5" class="node">
<title>q3</title>
<ellipse fill="none" stroke="#000000" cx="278.8965" cy="-49.4935" rx="20.8887" ry="20.8887"/>
<text text-anchor="middle" x="278.8965" y="-45.2935" font-family="Times,serif" font-size="14.00" fill="#000000">q3</text>
</g>
<!-- q2&#45;&gt;q3 -->
<g id="edge5" class="edge">
<title>q2&#45;&gt;q3</title>
<path fill="none" stroke="#000000" d="M216.3911,-49.4935C225.9687,-49.4935 237.4864,-49.4935 248.0113,-49.4935"/>
<polygon fill="#000000" stroke="#000000" points="248.0967,-52.9936 258.0966,-49.4935 248.0966,-45.9936 248.0967,-52.9936"/>
<text text-anchor="middle" x="237.0957" y="-53.6935" font-family="Times,serif" font-size="14.00" fill="#000000">a</text>
</g>
<!-- q3&#45;&gt;q4 -->
<g id="edge7" class="edge">
<title>q3&#45;&gt;q4</title>
<path fill="none" stroke="#000000" d="M299.6568,-49.4935C309.1656,-49.4935 320.6997,-49.4935 331.491,-49.4935"/>
<polygon fill="#000000" stroke="#000000" points="331.5195,-52.9936 341.5195,-49.4935 331.5194,-45.9936 331.5195,-52.9936"/>
<text text-anchor="middle" x="320.6972" y="-53.6935" font-family="Times,serif" font-size="14.00" fill="#000000">a</text>
</g>
<!-- q3&#45;&gt;q3 -->
<g id="edge6" class="edge">
<title>q3&#45;&gt;q3</title>
<path fill="none" stroke="#000000" d="M271.6601,-69.0043C270.5469,-79.0929 272.959,-88.1869 278.8965,-88.1869 282.7002,-88.1869 285.0571,-84.4547 285.9671,-79.1198"/>
<polygon fill="#000000" stroke="#000000" points="289.4685,-79.0603 286.1328,-69.0043 282.4694,-78.9456 289.4685,-79.0603"/>
<text text-anchor="middle" x="278.8965" y="-92.3869" font-family="Times,serif" font-size="14.00" fill="#000000">b</text>
</g>
</g>
</svg>
