<?xml version="1.0" encoding="UTF-8" standalone="no"?>
<!DOCTYPE svg PUBLIC "-//W3C//DTD SVG 1.1//EN"
 "http://www.w3.org/Graphics/SVG/1.1/DTD/svg11.dtd">
<!-- Generated by graphviz version 2.40.1 (20161225.0304)
 -->
<!-- Title: %159 Pages: 1 -->
<svg width="233pt" height="117pt"
 viewBox="0.00 0.00 232.77 116.99" xmlns="http://www.w3.org/2000/svg" xmlns:xlink="http://www.w3.org/1999/xlink">
<g id="graph0" class="graph" transform="scale(1 1) rotate(0) translate(4 112.9869)">
<title>%159</title>
<polygon fill="#ffffff" stroke="transparent" points="-4,4 -4,-112.9869 228.7738,-112.9869 228.7738,4 -4,4"/>
<text text-anchor="middle" x="112.3869" y="-8.2" font-family="Times,serif" font-size="14.00" fill="#000000">Автомат 2.2.2.</text>
<g id="node1" class="node">
<title></title>
</g>
<!-- p1 -->
<g id="node3" class="node">
<title>p1</title>
<ellipse fill="none" stroke="#000000" cx="111.6935" cy="-49.4935" rx="20.8887" ry="20.8887"/>
<text text-anchor="middle" x="111.6935" y="-45.2935" font-family="Times,serif" font-size="14.00" fill="#000000">p1</text>
</g>
<!-- &#45;&gt;p1 -->
<g id="edge1" class="edge">
<title>&#45;&gt;p1</title>
<path fill="none" stroke="#000000" d="M54.2637,-49.4935C62.7209,-49.4935 72.1012,-49.4935 80.7873,-49.4935"/>
<polygon fill="#000000" stroke="#000000" points="80.9294,-52.9936 90.9294,-49.4935 80.9293,-45.9936 80.9294,-52.9936"/>
</g>
<!-- p2 -->
<g id="node2" class="node">
<title>p2</title>
<ellipse fill="none" stroke="#000000" cx="200.0804" cy="-49.4935" rx="20.8568" ry="20.8568"/>
<ellipse fill="none" stroke="#000000" cx="200.0804" cy="-49.4935" rx="24.8884" ry="24.8884"/>
<text text-anchor="middle" x="200.0804" y="-45.2935" font-family="Times,serif" font-size="14.00" fill="#000000">p2</text>
</g>
<!-- p2&#45;&gt;p2 -->
<g id="edge4" class="edge">
<title>p2&#45;&gt;p2</title>
<path fill="none" stroke="#000000" d="M191.5901,-72.7685C190.7815,-83.1813 193.6116,-92.1869 200.0804,-92.1869 204.2244,-92.1869 206.8751,-88.491 208.0325,-83.0969"/>
<polygon fill="#000000" stroke="#000000" points="211.5455,-82.937 208.5706,-72.7685 204.555,-82.5728 211.5455,-82.937"/>
<text text-anchor="middle" x="200.0804" y="-96.3869" font-family="Times,serif" font-size="14.00" fill="#000000">a</text>
</g>
<!-- p2&#45;&gt;p1 -->
<g id="edge5" class="edge">
<title>p2&#45;&gt;p1</title>
<path fill="none" stroke="#000000" d="M180.2413,-34.7262C171.3263,-29.7978 160.5449,-26.1362 150.3869,-28.6935 146.2267,-29.7408 142.0266,-31.3321 138.005,-33.1777"/>
<polygon fill="#000000" stroke="#000000" points="136.3228,-30.1072 129.0479,-37.8096 139.5382,-36.3251 136.3228,-30.1072"/>
<text text-anchor="middle" x="153.8869" y="-32.6935" font-family="Times,serif" font-size="14.00" fill="#000000">b</text>
</g>
<!-- p1&#45;&gt;p2 -->
<g id="edge3" class="edge">
<title>p1&#45;&gt;p2</title>
<path fill="none" stroke="#000000" d="M132.6399,-49.4935C142.3114,-49.4935 154.0593,-49.4935 165.0228,-49.4935"/>
<polygon fill="#000000" stroke="#000000" points="165.2006,-52.9936 175.2005,-49.4935 165.2005,-45.9936 165.2006,-52.9936"/>
<text text-anchor="middle" x="153.8869" y="-53.6935" font-family="Times,serif" font-size="14.00" fill="#000000">b</text>
</g>
<!-- p1&#45;&gt;p1 -->
<g id="edge2" class="edge">
<title>p1&#45;&gt;p1</title>
<path fill="none" stroke="#000000" d="M104.7789,-69.402C103.8222,-79.3307 106.127,-88.1869 111.6935,-88.1869 115.1725,-88.1869 117.3774,-84.7274 118.3083,-79.7089"/>
<polygon fill="#000000" stroke="#000000" points="121.8158,-79.4995 118.608,-69.402 114.8187,-79.296 121.8158,-79.4995"/>
<text text-anchor="middle" x="111.6935" y="-92.3869" font-family="Times,serif" font-size="14.00" fill="#000000">a</text>
</g>
</g>
</svg>
