<?xml version="1.0" encoding="UTF-8" standalone="no"?>
<!DOCTYPE svg PUBLIC "-//W3C//DTD SVG 1.1//EN"
 "http://www.w3.org/Graphics/SVG/1.1/DTD/svg11.dtd">
<!-- Generated by graphviz version 2.40.1 (20161225.0304)
 -->
<!-- Title: %263 Pages: 1 -->
<svg width="775pt" height="298pt"
 viewBox="0.00 0.00 775.36 297.60" xmlns="http://www.w3.org/2000/svg" xmlns:xlink="http://www.w3.org/1999/xlink">
<g id="graph0" class="graph" transform="scale(1 1) rotate(0) translate(4 293.6)">
<title>%263</title>
<polygon fill="#ffffff" stroke="transparent" points="-4,4 -4,-293.6 771.361,-293.6 771.361,4 -4,4"/>
<text text-anchor="middle" x="383.6805" y="-8.2" font-family="Times,serif" font-size="14.00" fill="#000000">Автомат 2.4. (ответ)</text>
<g id="node1" class="node">
<title></title>
</g>
<!-- q1_p1 -->
<g id="node7" class="node">
<title>q1_p1</title>
<ellipse fill="none" stroke="#000000" cx="126.1789" cy="-191.8" rx="35.3587" ry="35.3587"/>
<text text-anchor="middle" x="126.1789" y="-187.6" font-family="Times,serif" font-size="14.00" fill="#000000">q1_p1</text>
</g>
<!-- &#45;&gt;q1_p1 -->
<g id="edge1" class="edge">
<title>&#45;&gt;q1_p1</title>
<path fill="none" stroke="#000000" d="M54.1011,-191.8C62.3519,-191.8 71.6565,-191.8 80.7714,-191.8"/>
<polygon fill="#000000" stroke="#000000" points="80.9154,-195.3001 90.9154,-191.8 80.9154,-188.3001 80.9154,-195.3001"/>
</g>
<!-- q1_p2 -->
<g id="node2" class="node">
<title>q1_p2</title>
<ellipse fill="none" stroke="#000000" cx="243.5366" cy="-83.8" rx="35.3402" ry="35.3402"/>
<ellipse fill="none" stroke="#000000" cx="243.5366" cy="-83.8" rx="39.3586" ry="39.3586"/>
<text text-anchor="middle" x="243.5366" y="-79.6" font-family="Times,serif" font-size="14.00" fill="#000000">q1_p2</text>
</g>
<!-- q1_p3 -->
<g id="node3" class="node">
<title>q1_p3</title>
<ellipse fill="none" stroke="#000000" cx="364.8943" cy="-144.8" rx="35.3402" ry="35.3402"/>
<ellipse fill="none" stroke="#000000" cx="364.8943" cy="-144.8" rx="39.3586" ry="39.3586"/>
<text text-anchor="middle" x="364.8943" y="-140.6" font-family="Times,serif" font-size="14.00" fill="#000000">q1_p3</text>
</g>
<!-- q1_p2&#45;&gt;q1_p3 -->
<g id="edge5" class="edge">
<title>q1_p2&#45;&gt;q1_p3</title>
<path fill="none" stroke="#000000" d="M278.6383,-101.4437C291.7201,-108.0193 306.7433,-115.5706 320.548,-122.5095"/>
<polygon fill="#000000" stroke="#000000" points="319.3649,-125.832 329.8716,-127.1959 322.5086,-119.5777 319.3649,-125.832"/>
<text text-anchor="middle" x="304.2155" y="-119" font-family="Times,serif" font-size="14.00" fill="#000000">b</text>
</g>
<!-- q2_p2 -->
<g id="node5" class="node">
<title>q2_p2</title>
<ellipse fill="none" stroke="#000000" cx="728.1822" cy="-100.8" rx="35.3402" ry="35.3402"/>
<ellipse fill="none" stroke="#000000" cx="728.1822" cy="-100.8" rx="39.3586" ry="39.3586"/>
<text text-anchor="middle" x="728.1822" y="-96.6" font-family="Times,serif" font-size="14.00" fill="#000000">q2_p2</text>
</g>
<!-- q1_p2&#45;&gt;q2_p2 -->
<g id="edge4" class="edge">
<title>q1_p2&#45;&gt;q2_p2</title>
<path fill="none" stroke="#000000" d="M282.8637,-80.8703C306.6047,-79.3472 337.4711,-77.8 364.8943,-77.8 364.8943,-77.8 364.8943,-77.8 606.8244,-77.8 631.4642,-77.8 658.4336,-82.4335 680.6776,-87.541"/>
<polygon fill="#000000" stroke="#000000" points="679.9994,-90.9776 690.5399,-89.9062 681.6318,-84.1706 679.9994,-90.9776"/>
<text text-anchor="middle" x="485.4667" y="-82" font-family="Times,serif" font-size="14.00" fill="#000000">a</text>
</g>
<!-- q2_p3 -->
<g id="node6" class="node">
<title>q2_p3</title>
<ellipse fill="none" stroke="#000000" cx="485.4667" cy="-152.8" rx="35.3402" ry="35.3402"/>
<ellipse fill="none" stroke="#000000" cx="485.4667" cy="-152.8" rx="39.3586" ry="39.3586"/>
<text text-anchor="middle" x="485.4667" y="-148.6" font-family="Times,serif" font-size="14.00" fill="#000000">q2_p3</text>
</g>
<!-- q1_p3&#45;&gt;q2_p3 -->
<g id="edge6" class="edge">
<title>q1_p3&#45;&gt;q2_p3</title>
<path fill="none" stroke="#000000" d="M404.0407,-147.3974C414.2541,-148.075 425.3943,-148.8142 436.0641,-149.5221"/>
<polygon fill="#000000" stroke="#000000" points="435.8943,-153.0185 446.1041,-150.1883 436.3578,-146.0338 435.8943,-153.0185"/>
<text text-anchor="middle" x="425.1805" y="-153" font-family="Times,serif" font-size="14.00" fill="#000000">a</text>
</g>
<!-- q1_p3&#45;&gt;q1_p1 -->
<g id="edge7" class="edge">
<title>q1_p3&#45;&gt;q1_p1</title>
<path fill="none" stroke="#000000" d="M326.1798,-152.4224C283.7001,-160.7861 215.6177,-174.1906 170.8932,-182.9963"/>
<polygon fill="#000000" stroke="#000000" points="170.0256,-179.5999 160.8901,-184.9658 171.3779,-186.468 170.0256,-179.5999"/>
<text text-anchor="middle" x="243.5366" y="-180" font-family="Times,serif" font-size="14.00" fill="#000000">b</text>
</g>
<!-- q2_p1 -->
<g id="node4" class="node">
<title>q2_p1</title>
<ellipse fill="none" stroke="#000000" cx="606.8244" cy="-212.8" rx="35.3402" ry="35.3402"/>
<ellipse fill="none" stroke="#000000" cx="606.8244" cy="-212.8" rx="39.3586" ry="39.3586"/>
<text text-anchor="middle" x="606.8244" y="-208.6" font-family="Times,serif" font-size="14.00" fill="#000000">q2_p1</text>
</g>
<!-- q2_p1&#45;&gt;q2_p2 -->
<g id="edge9" class="edge">
<title>q2_p1&#45;&gt;q2_p2</title>
<path fill="none" stroke="#000000" d="M635.8926,-185.9732C652.7044,-170.4577 674.0078,-150.797 691.91,-134.2752"/>
<polygon fill="#000000" stroke="#000000" points="694.3761,-136.762 699.3512,-127.4079 689.6287,-131.6179 694.3761,-136.762"/>
<text text-anchor="middle" x="667.5033" y="-161" font-family="Times,serif" font-size="14.00" fill="#000000">b</text>
</g>
<!-- q2_p1&#45;&gt;q1_p1 -->
<g id="edge8" class="edge">
<title>q2_p1&#45;&gt;q1_p1</title>
<path fill="none" stroke="#000000" d="M567.7797,-216.1975C544.0057,-217.981 513.0075,-219.8 485.4667,-219.8 243.5366,-219.8 243.5366,-219.8 243.5366,-219.8 218.3787,-219.8 190.9951,-213.6368 169.0118,-207.0936"/>
<polygon fill="#000000" stroke="#000000" points="169.907,-203.7067 159.3188,-204.0812 167.8296,-210.3913 169.907,-203.7067"/>
<text text-anchor="middle" x="364.8943" y="-224" font-family="Times,serif" font-size="14.00" fill="#000000">a</text>
</g>
<!-- q2_p2&#45;&gt;q1_p2 -->
<g id="edge10" class="edge">
<title>q2_p2&#45;&gt;q1_p2</title>
<path fill="none" stroke="#000000" d="M701.2538,-71.6338C678.429,-50.2014 643.6166,-24.8 606.8244,-24.8 364.8943,-24.8 364.8943,-24.8 364.8943,-24.8 335.3964,-24.8 305.5571,-39.0732 282.8482,-53.5789"/>
<polygon fill="#000000" stroke="#000000" points="280.9009,-50.6706 274.5096,-59.1205 284.7754,-56.5006 280.9009,-50.6706"/>
<text text-anchor="middle" x="485.4667" y="-29" font-family="Times,serif" font-size="14.00" fill="#000000">a</text>
</g>
<!-- q2_p2&#45;&gt;q2_p3 -->
<g id="edge11" class="edge">
<title>q2_p2&#45;&gt;q2_p3</title>
<path fill="none" stroke="#000000" d="M689.502,-109.0869C647.2848,-118.1317 579.6204,-132.6283 533.9017,-142.4231"/>
<polygon fill="#000000" stroke="#000000" points="532.9706,-139.0431 523.9257,-144.5604 534.437,-145.8878 532.9706,-139.0431"/>
<text text-anchor="middle" x="606.8244" y="-139" font-family="Times,serif" font-size="14.00" fill="#000000">b</text>
</g>
<!-- q2_p3&#45;&gt;q1_p3 -->
<g id="edge12" class="edge">
<title>q2_p3&#45;&gt;q1_p3</title>
<path fill="none" stroke="#000000" d="M450.5203,-134.9861C443.3397,-132.0907 435.7041,-129.5391 428.2878,-128 422.7137,-126.8432 416.8987,-126.7792 411.1496,-127.4252"/>
<polygon fill="#000000" stroke="#000000" points="410.1559,-124.048 400.9385,-129.2721 411.4018,-130.9363 410.1559,-124.048"/>
<text text-anchor="middle" x="425.1805" y="-133" font-family="Times,serif" font-size="14.00" fill="#000000">a</text>
</g>
<!-- q2_p3&#45;&gt;q2_p1 -->
<g id="edge13" class="edge">
<title>q2_p3&#45;&gt;q2_p1</title>
<path fill="none" stroke="#000000" d="M520.8946,-170.3158C533.855,-176.7235 548.686,-184.056 562.3373,-190.8053"/>
<polygon fill="#000000" stroke="#000000" points="561.0468,-194.0716 571.5623,-195.3662 564.1492,-187.7967 561.0468,-194.0716"/>
<text text-anchor="middle" x="546.1456" y="-187" font-family="Times,serif" font-size="14.00" fill="#000000">b</text>
</g>
<!-- q1_p1&#45;&gt;q1_p2 -->
<g id="edge3" class="edge">
<title>q1_p1&#45;&gt;q1_p2</title>
<path fill="none" stroke="#000000" d="M150.9774,-166.4462C159.8032,-157.6196 169.8991,-147.7425 179.3577,-139 187.7034,-131.2862 196.863,-123.1959 205.5834,-115.6605"/>
<polygon fill="#000000" stroke="#000000" points="208.1243,-118.092 213.4325,-108.9228 203.5649,-112.7805 208.1243,-118.092"/>
<text text-anchor="middle" x="182.8577" y="-144" font-family="Times,serif" font-size="14.00" fill="#000000">b</text>
</g>
<!-- q1_p1&#45;&gt;q2_p1 -->
<g id="edge2" class="edge">
<title>q1_p1&#45;&gt;q2_p1</title>
<path fill="none" stroke="#000000" d="M148.232,-219.2229C169.7854,-242.7216 204.9167,-272.8 243.5366,-272.8 243.5366,-272.8 243.5366,-272.8 485.4667,-272.8 515.2692,-272.8 545.3221,-258.0798 568.0655,-243.2216"/>
<polygon fill="#000000" stroke="#000000" points="570.1057,-246.0669 576.4086,-237.5507 566.1706,-240.2776 570.1057,-246.0669"/>
<text text-anchor="middle" x="364.8943" y="-277" font-family="Times,serif" font-size="14.00" fill="#000000">a</text>
</g>
</g>
</svg>
