<?xml version="1.0" encoding="UTF-8" standalone="no"?>
<!DOCTYPE svg PUBLIC "-//W3C//DTD SVG 1.1//EN"
 "http://www.w3.org/Graphics/SVG/1.1/DTD/svg11.dtd">
<!-- Generated by graphviz version 2.40.1 (20161225.0304)
 -->
<!-- Title: %713 Pages: 1 -->
<svg width="779pt" height="172pt"
 viewBox="0.00 0.00 778.73 172.19" xmlns="http://www.w3.org/2000/svg" xmlns:xlink="http://www.w3.org/1999/xlink">
<g id="graph0" class="graph" transform="scale(1 1) rotate(0) translate(4 168.1869)">
<title>%713</title>
<polygon fill="#ffffff" stroke="transparent" points="-4,4 -4,-168.1869 774.7306,-168.1869 774.7306,4 -4,4"/>
<text text-anchor="middle" x="385.3653" y="-8.2" font-family="Times,serif" font-size="14.00" fill="#000000">Автомат 4.1. (ответ)</text>
<g id="node1" class="node">
<title></title>
</g>
<!-- q1 -->
<g id="node3" class="node">
<title>q1</title>
<ellipse fill="none" stroke="#000000" cx="111.6935" cy="-94.4935" rx="20.8887" ry="20.8887"/>
<text text-anchor="middle" x="111.6935" y="-90.2935" font-family="Times,serif" font-size="14.00" fill="#000000">q1</text>
</g>
<!-- &#45;&gt;q1 -->
<g id="edge1" class="edge">
<title>&#45;&gt;q1</title>
<path fill="none" stroke="#000000" d="M54.2637,-94.4935C62.7209,-94.4935 72.1012,-94.4935 80.7873,-94.4935"/>
<polygon fill="#000000" stroke="#000000" points="80.9294,-97.9936 90.9294,-94.4935 80.9293,-90.9936 80.9294,-97.9936"/>
</g>
<!-- q8 -->
<g id="node2" class="node">
<title>q8</title>
<ellipse fill="none" stroke="#000000" cx="746.0372" cy="-94.4935" rx="20.8568" ry="20.8568"/>
<ellipse fill="none" stroke="#000000" cx="746.0372" cy="-94.4935" rx="24.8884" ry="24.8884"/>
<text text-anchor="middle" x="746.0372" y="-90.2935" font-family="Times,serif" font-size="14.00" fill="#000000">q8</text>
</g>
<!-- q5 -->
<g id="node7" class="node">
<title>q5</title>
<ellipse fill="none" stroke="#000000" cx="469.4515" cy="-94.4935" rx="20.8887" ry="20.8887"/>
<text text-anchor="middle" x="469.4515" y="-90.2935" font-family="Times,serif" font-size="14.00" fill="#000000">q5</text>
</g>
<!-- q8&#45;&gt;q5 -->
<g id="edge12" class="edge">
<title>q8&#45;&gt;q5</title>
<path fill="none" stroke="#000000" d="M721.0769,-94.4935C670.4503,-94.4935 555.8113,-94.4935 500.4794,-94.4935"/>
<polygon fill="#000000" stroke="#000000" points="500.2404,-90.9936 490.2404,-94.4935 500.2403,-97.9936 500.2404,-90.9936"/>
<text text-anchor="middle" x="605.7443" y="-98.6935" font-family="Times,serif" font-size="14.00" fill="#000000">lamb</text>
</g>
<!-- q2 -->
<g id="node4" class="node">
<title>q2</title>
<ellipse fill="none" stroke="#000000" cx="195.295" cy="-143.4935" rx="20.8887" ry="20.8887"/>
<text text-anchor="middle" x="195.295" y="-139.2935" font-family="Times,serif" font-size="14.00" fill="#000000">q2</text>
</g>
<!-- q1&#45;&gt;q2 -->
<g id="edge2" class="edge">
<title>q1&#45;&gt;q2</title>
<path fill="none" stroke="#000000" d="M129.8337,-105.1257C141.1177,-111.7394 155.8315,-120.3634 168.4506,-127.7596"/>
<polygon fill="#000000" stroke="#000000" points="166.7929,-130.8449 177.1901,-132.8819 170.3326,-124.8057 166.7929,-130.8449"/>
<text text-anchor="middle" x="153.4942" y="-123.6935" font-family="Times,serif" font-size="14.00" fill="#000000">a</text>
</g>
<!-- q4 -->
<g id="node6" class="node">
<title>q4</title>
<ellipse fill="none" stroke="#000000" cx="385.0646" cy="-94.4935" rx="20.8887" ry="20.8887"/>
<text text-anchor="middle" x="385.0646" y="-90.2935" font-family="Times,serif" font-size="14.00" fill="#000000">q4</text>
</g>
<!-- q1&#45;&gt;q4 -->
<g id="edge5" class="edge">
<title>q1&#45;&gt;q4</title>
<path fill="none" stroke="#000000" d="M132.6905,-94.4935C180.6125,-94.4935 298.2242,-94.4935 354.3249,-94.4935"/>
<polygon fill="#000000" stroke="#000000" points="354.3702,-97.9936 364.3702,-94.4935 354.3701,-90.9936 354.3702,-97.9936"/>
<text text-anchor="middle" x="247.9863" y="-98.6935" font-family="Times,serif" font-size="14.00" fill="#000000">lamb</text>
</g>
<!-- q3 -->
<g id="node5" class="node">
<title>q3</title>
<ellipse fill="none" stroke="#000000" cx="300.6777" cy="-143.4935" rx="20.8887" ry="20.8887"/>
<text text-anchor="middle" x="300.6777" y="-139.2935" font-family="Times,serif" font-size="14.00" fill="#000000">q3</text>
</g>
<!-- q2&#45;&gt;q3 -->
<g id="edge3" class="edge">
<title>q2&#45;&gt;q3</title>
<path fill="none" stroke="#000000" d="M216.1152,-143.4935C231.4148,-143.4935 252.4569,-143.4935 269.7231,-143.4935"/>
<polygon fill="#000000" stroke="#000000" points="269.9007,-146.9936 279.9007,-143.4935 269.9006,-139.9936 269.9007,-146.9936"/>
<text text-anchor="middle" x="247.9863" y="-147.6935" font-family="Times,serif" font-size="14.00" fill="#000000">a</text>
</g>
<!-- q3&#45;&gt;q4 -->
<g id="edge4" class="edge">
<title>q3&#45;&gt;q4</title>
<path fill="none" stroke="#000000" d="M318.574,-133.1018C330.0198,-126.4557 345.0843,-117.7084 357.9795,-110.2206"/>
<polygon fill="#000000" stroke="#000000" points="360.0128,-113.0873 366.9032,-105.039 356.4978,-107.0338 360.0128,-113.0873"/>
<text text-anchor="middle" x="342.8711" y="-123.6935" font-family="Times,serif" font-size="14.00" fill="#000000">b</text>
</g>
<!-- q4&#45;&gt;q1 -->
<g id="edge6" class="edge">
<title>q4&#45;&gt;q1</title>
<path fill="none" stroke="#000000" d="M365.1002,-88.898C336.2587,-81.4641 281.2123,-69.7062 233.9884,-73.6935 202.254,-76.3729 166.3761,-82.8971 141.7301,-87.9302"/>
<polygon fill="#000000" stroke="#000000" points="140.9748,-84.5124 131.9001,-89.9804 142.4041,-91.3649 140.9748,-84.5124"/>
<text text-anchor="middle" x="247.9863" y="-78.6935" font-family="Times,serif" font-size="14.00" fill="#000000">lamb</text>
</g>
<!-- q4&#45;&gt;q5 -->
<g id="edge7" class="edge">
<title>q4&#45;&gt;q5</title>
<path fill="none" stroke="#000000" d="M405.9243,-94.4935C415.6613,-94.4935 427.4554,-94.4935 438.2251,-94.4935"/>
<polygon fill="#000000" stroke="#000000" points="438.5393,-97.9935 448.5393,-94.4935 438.5393,-90.9935 438.5393,-97.9935"/>
<text text-anchor="middle" x="427.258" y="-98.6935" font-family="Times,serif" font-size="14.00" fill="#000000">b</text>
</g>
<!-- q5&#45;&gt;q8 -->
<g id="edge11" class="edge">
<title>q5&#45;&gt;q8</title>
<path fill="none" stroke="#000000" d="M488.8104,-102.781C494.8906,-105.0331 501.7004,-107.2039 508.1449,-108.4935 593.2137,-125.5153 618.0269,-124.2248 703.3437,-108.4935 706.5656,-107.8994 709.8794,-107.1234 713.1684,-106.2412"/>
<polygon fill="#000000" stroke="#000000" points="714.2633,-109.567 722.8435,-103.3516 712.2601,-102.8598 714.2633,-109.567"/>
<text text-anchor="middle" x="605.7443" y="-124.6935" font-family="Times,serif" font-size="14.00" fill="#000000">lamb</text>
</g>
<!-- q6 -->
<g id="node8" class="node">
<title>q6</title>
<ellipse fill="none" stroke="#000000" cx="553.053" cy="-45.4935" rx="20.8887" ry="20.8887"/>
<text text-anchor="middle" x="553.053" y="-41.2935" font-family="Times,serif" font-size="14.00" fill="#000000">q6</text>
</g>
<!-- q5&#45;&gt;q6 -->
<g id="edge8" class="edge">
<title>q5&#45;&gt;q6</title>
<path fill="none" stroke="#000000" d="M484.8947,-80.5147C491.6989,-74.8137 499.9897,-68.4572 508.1449,-63.6935 513.0481,-60.8293 518.4878,-58.2103 523.8401,-55.9062"/>
<polygon fill="#000000" stroke="#000000" points="525.2796,-59.0996 533.2453,-52.114 522.662,-52.6075 525.2796,-59.0996"/>
<text text-anchor="middle" x="511.2522" y="-68.6935" font-family="Times,serif" font-size="14.00" fill="#000000">a</text>
</g>
<!-- q7 -->
<g id="node9" class="node">
<title>q7</title>
<ellipse fill="none" stroke="#000000" cx="658.4357" cy="-45.4935" rx="20.8887" ry="20.8887"/>
<text text-anchor="middle" x="658.4357" y="-41.2935" font-family="Times,serif" font-size="14.00" fill="#000000">q7</text>
</g>
<!-- q6&#45;&gt;q7 -->
<g id="edge9" class="edge">
<title>q6&#45;&gt;q7</title>
<path fill="none" stroke="#000000" d="M573.8732,-45.4935C589.1728,-45.4935 610.2149,-45.4935 627.4811,-45.4935"/>
<polygon fill="#000000" stroke="#000000" points="627.6587,-48.9936 637.6587,-45.4935 627.6587,-41.9936 627.6587,-48.9936"/>
<text text-anchor="middle" x="605.7443" y="-49.6935" font-family="Times,serif" font-size="14.00" fill="#000000">b</text>
</g>
<!-- q7&#45;&gt;q8 -->
<g id="edge10" class="edge">
<title>q7&#45;&gt;q8</title>
<path fill="none" stroke="#000000" d="M678.1368,-52.3015C686.1573,-55.3718 695.3924,-59.2978 703.3437,-63.6935 708.3429,-66.4571 713.4458,-69.7071 718.3038,-73.0413"/>
<polygon fill="#000000" stroke="#000000" points="716.5373,-76.0807 726.7085,-79.0469 720.607,-70.3853 716.5373,-76.0807"/>
<text text-anchor="middle" x="700.2364" y="-68.6935" font-family="Times,serif" font-size="14.00" fill="#000000">a</text>
</g>
</g>
</svg>
